<svg width="53" height="52" viewBox="0 0 53 52" fill="none" xmlns="http://www.w3.org/2000/svg">
<g clip-path="url(#clip0_804_283)">
<path d="M41.9643 20.5506C41.2596 20.5195 40.8035 20.6065 40.4408 20.4615C39.1101 19.9333 38.3017 20.5733 37.4124 21.4785C31.9415 27.0376 26.4382 32.565 20.9024 38.0606C20.3178 38.6447 20.1644 39.1791 20.3261 39.9807C21.4537 45.5937 17.1589 51.4262 11.5229 51.9937C10.3268 52.1118 9.30492 51.6396 8.8717 50.7696C8.38459 49.7879 8.59187 48.7916 9.49355 47.8534C9.9475 47.3791 10.4408 46.94 10.8637 46.4429C11.5177 45.6711 11.8436 44.6743 11.7715 43.6656C11.6995 42.6569 11.2352 41.7164 10.4781 41.0453C8.98571 39.6948 6.72633 39.7777 5.24634 41.2524C4.77995 41.7122 4.34675 42.2072 3.88658 42.6732C3.11549 43.452 2.19514 43.568 1.22506 43.1558C0.254977 42.7437 -0.0994652 41.9359 0.0435595 40.7677C0.822941 34.4091 6.31593 30.4303 12.6194 31.6233C12.8101 31.6451 13.0033 31.6271 13.1867 31.5704C13.3701 31.5137 13.5397 31.4196 13.6848 31.294C19.6131 25.4117 25.5206 19.5074 31.4074 13.5809C31.5359 13.4185 31.6291 13.2311 31.6812 13.0307C31.7333 12.8303 31.7431 12.6213 31.7101 12.4169C30.5638 6.50771 34.2949 1.05419 40.2066 0.0724325C40.7829 -0.0417188 41.3769 -0.033251 41.9498 0.0972861C43.4899 0.526028 43.948 2.47505 42.8204 3.70328C42.3333 4.23558 41.7529 4.68296 41.2388 5.19248C40.5102 5.89264 40.0898 6.8533 40.07 7.86319C40.0501 8.87308 40.4326 9.84948 41.1331 10.5777C41.4625 10.9446 41.8613 11.243 42.3064 11.4555C42.7515 11.6681 43.2343 11.7907 43.727 11.8163C44.2197 11.8419 44.7126 11.77 45.1773 11.6047C45.6421 11.4394 46.0697 11.184 46.4354 10.8531C47.0365 10.3395 47.5692 9.74295 48.1475 9.19615C48.9 8.48986 49.7706 8.2786 50.7137 8.74462C51.6009 9.18372 51.9781 9.92936 51.9574 10.936C51.9076 15.1985 48.2263 19.459 43.8112 20.2875C43.1127 20.4366 42.3892 20.4946 41.9643 20.5506ZM10.1838 33.1456C9.61586 33.2181 9.03131 33.2741 8.45506 33.3735C4.9665 33.9659 1.93189 37.2342 1.61475 40.747C1.58988 41.0246 1.72877 41.3166 1.78889 41.6004C2.08323 41.4802 2.43145 41.4243 2.66154 41.2275C3.21083 40.7594 3.68549 40.1919 4.2265 39.7197C5.08806 38.9644 6.16164 38.4928 7.30104 38.369C8.44045 38.2452 9.59036 38.4753 10.5942 39.0279C12.5613 40.1049 13.7159 42.462 13.4485 44.6844C13.2288 46.4988 12.1281 47.7374 10.901 48.9345C10.6626 49.1686 10.5569 49.5414 10.3911 49.8521C10.7352 49.9039 11.0979 50.0592 11.4275 49.9971C16.45 49.1251 19.4866 44.645 18.4564 39.641C18.2616 38.6986 18.3901 37.8597 19.0783 37.1555C25.1254 31.0938 31.1739 25.0327 37.2238 18.9723C37.4946 18.6806 37.8406 18.4692 38.2239 18.3614C38.6072 18.2536 39.0128 18.2536 39.3961 18.3613C42.3436 19.0448 45.0196 18.4296 47.3163 16.4433C48.1219 15.7612 48.7826 14.9249 49.2597 13.9837C49.7367 13.0425 50.0203 12.0154 50.0939 10.9629C50.1147 10.7288 49.953 10.4762 49.8742 10.2338C49.6332 10.3172 49.4039 10.4313 49.1923 10.5735C48.7777 10.936 48.4046 11.3481 48.0108 11.7355C45.6664 14.0138 42.2918 14.0759 40.0304 11.8639C37.7689 9.65181 37.7088 6.30059 39.9433 3.88762C40.389 3.4071 40.8782 2.968 41.3218 2.48333C41.4461 2.3487 41.585 2.02973 41.529 1.96346C41.3642 1.81142 41.1565 1.71379 40.9341 1.68384C40.7254 1.66317 40.5147 1.68072 40.3123 1.73562C35.4204 2.67595 32.4501 7.13322 33.4512 12.042C33.6585 13.0196 33.5341 13.8626 32.7879 14.6082C26.7215 20.6521 20.6619 26.7021 14.6093 32.7583C14.3273 33.0642 13.9684 33.289 13.5699 33.4092C13.1714 33.5294 12.748 33.5407 12.3437 33.4418C11.6431 33.2948 10.9155 33.243 10.1755 33.1456H10.1838Z" fill="white"/>
<path d="M52.9979 45.6911C52.942 48.3651 51.6631 50.2954 49.2669 51.3725C46.7463 52.5013 44.3273 52.0187 42.381 50.1463C38.4302 46.3456 34.5996 42.4165 30.7172 38.5475C30.1306 37.9634 30.1741 37.429 30.7462 36.8594C33.1452 34.4775 35.5358 32.0887 37.9182 29.693C38.4944 29.111 39.023 29.0862 39.6034 29.6682C43.5024 33.5724 47.4221 37.458 51.2982 41.3851C51.8623 41.9477 52.3043 42.6204 52.5967 43.3613C52.8891 44.1021 53.0257 44.8952 52.9979 45.6911ZM32.6698 37.6134C36.4009 41.4327 40.1319 45.3639 44.006 49.1231C45.6871 50.7511 48.359 50.4052 49.9737 48.7089C51.5636 47.0519 51.632 44.3034 50.069 42.605C48.8254 41.267 47.4988 40.0098 46.2115 38.7153C43.7594 36.2464 41.3093 33.7754 38.9048 31.3521L32.6698 37.6134Z" fill="white"/>
<path d="M16.966 12.9616L14.3086 15.6397C15.7016 17.0544 17.1173 18.498 18.5372 19.9375C18.9248 20.331 19.4306 20.6583 19.6752 21.1243C19.868 21.4888 19.9198 22.1309 19.7187 22.4561C19.3809 23.0008 18.7901 22.9594 18.3092 22.4789C16.8168 20.9938 15.2767 19.5522 13.8568 18.0009C12.9095 16.9653 11.8441 16.2528 10.4718 16.0042C9.43544 15.8178 8.75349 15.2089 8.25601 14.3141C7.65489 13.2309 7.01231 12.1746 6.4029 11.0892C5.67533 9.78231 5.7997 8.68249 6.81746 7.58681C7.43931 6.90331 8.11298 6.24673 8.79494 5.61087C9.83135 4.64775 10.9714 4.50277 12.2109 5.1842C13.3883 5.83249 14.6071 6.42693 15.6809 7.22642C16.3027 7.67795 16.9038 8.40494 17.0945 9.11951C17.4331 10.4858 18.1756 11.7186 19.2254 12.6572C20.6556 13.9558 21.9719 15.3767 23.3441 16.7375C23.8291 17.218 24.3805 17.7523 23.7815 18.3944C23.1596 19.0759 22.6124 18.5063 22.1418 18.0175C21.9035 17.7689 21.661 17.5224 21.4143 17.2822C19.9315 15.8434 18.4488 14.4032 16.966 12.9616ZM7.66319 9.58554C7.81243 9.91693 7.91815 10.2069 8.07775 10.47C8.56901 11.3399 9.15769 12.1642 9.55568 13.0735C10.0614 14.223 11.0937 14.457 12.0866 14.5502C12.5343 14.5937 13.0815 14.0179 13.5148 13.6431C14.1258 13.1351 14.686 12.5691 15.1875 11.9529C15.4318 11.5897 15.5532 11.1578 15.5337 10.7206C15.4881 9.17544 14.3315 8.54372 13.1499 7.90164C9.97852 6.17424 10.9983 5.95884 8.19174 8.71148C7.95337 8.93725 7.84145 9.279 7.66319 9.58554Z" fill="white"/>
<path d="M29.9253 34.0613C29.6247 33.7403 29.148 33.4399 29.0195 33.0257C28.9366 32.7626 29.3138 32.2821 29.5874 31.9901C30.7316 30.8033 31.9753 29.7117 33.0573 28.469C33.4843 27.9802 33.8388 27.8021 34.3425 28.0775C34.8462 28.353 35.2732 28.9537 34.8275 29.4383C33.4366 30.9545 31.938 32.3733 30.4746 33.821C30.3854 33.908 30.23 33.9308 29.9253 34.0613Z" fill="white"/>
</g>
<defs>
<clipPath id="clip0_804_283">
<rect width="53" height="52" fill="white"/>
</clipPath>
</defs>
</svg>
