<svg width="63" height="63" viewBox="0 0 63 63" fill="none" xmlns="http://www.w3.org/2000/svg">
<g clip-path="url(#clip0_170_295)">
<path d="M35.8553 34.5172C35.8553 32.2314 35.8553 30.1014 35.8553 27.9714C35.8745 25.1141 37.8744 23.87 40.4515 25.1278C41.8194 25.7867 43.1025 25.5844 43.9205 24.5809C44.3096 24.0994 44.5218 23.4992 44.5218 22.8802C44.5218 22.2613 44.3096 21.6611 43.9205 21.1795C43.0806 20.1542 41.792 19.9327 40.4679 20.5862C37.9236 21.8358 35.8854 20.5862 35.8663 17.7508C35.8499 14.7431 35.8663 11.7354 35.8663 8.72773C35.8663 6.32158 36.2356 5.99347 38.5583 6.38447C47.291 7.82269 54.6558 14.6283 56.6802 23.2494C57.0496 24.827 57.0195 26.4922 57.2684 28.0999C57.4107 29.0186 57.5831 29.9975 58.0208 30.7959C59.4188 33.347 60.9344 35.8352 62.4309 38.3343C63.8836 40.7595 62.4774 43.5758 59.6431 43.8766C56.4258 44.2184 56.4258 44.2184 56.4231 47.5378C56.4231 49.4053 56.4231 51.2755 56.4231 53.143C56.4039 56.2272 54.3849 58.2424 51.2743 58.2752C49.5425 58.2943 47.808 58.3189 46.0763 58.2752C44.6208 58.2314 43.7673 58.9259 43.3405 60.2466C43.1435 60.8508 42.963 61.4579 42.7714 62.0649C42.5143 62.8851 41.8632 63.2269 41.1956 62.8523C40.9666 62.6814 40.7826 62.4575 40.6591 62.1999C40.5357 61.9423 40.4767 61.6585 40.4871 61.3731C40.6874 60.2557 41.0564 59.1752 41.5814 58.1686C41.944 57.4503 42.5031 56.8497 43.1936 56.4363C43.8842 56.023 44.6779 55.814 45.4826 55.8335C47.3074 55.8089 49.1295 55.8335 50.9542 55.8335C53.1128 55.8335 53.9636 54.9995 53.9636 52.8723C53.9636 50.4115 53.9636 47.9506 53.9636 45.4898C53.9636 42.9415 55.3561 41.547 57.9305 41.4677C58.2944 41.454 58.661 41.4677 59.0248 41.454C60.4256 41.3583 60.8195 40.6748 60.1328 39.4772C58.7978 37.1503 57.4709 34.8289 56.0674 32.5294C55.176 31.0996 54.7251 29.4394 54.7707 27.7554C54.8664 19.2792 47.4743 10.5296 39.1383 9.10506C38.9143 9.08724 38.6893 9.08724 38.4653 9.10506V18.746C41.6279 16.8786 44.2789 17.3051 46.2869 20.2143C47.5208 22.0025 47.2937 24.4114 45.934 26.0739C44.2023 28.1874 42.2161 28.4964 38.52 27.1402V34.5227H42.4349C43.1654 34.5227 43.8959 34.5227 44.6236 34.5227C45.5401 34.5227 46.3198 34.7196 46.3006 35.8269C46.2815 36.8687 45.5209 37.0136 44.6592 37.0109C41.2394 37.0109 37.8197 37.0109 34.3999 37.0109C33.7433 37.0109 33.0867 37.071 32.2414 37.1148C33.8391 40.0514 33.653 42.5614 31.1115 44.5766C29.47 45.8726 27.0078 45.8206 25.2322 44.5957C23.112 43.1219 22.7837 41.3911 23.8917 37.1585H16.1439C16.8525 38.3042 17.4954 39.3842 18.1766 40.4396C18.9481 41.6208 19.7962 42.7528 20.5349 43.9532C21.3565 45.2437 21.8985 46.6919 22.1261 48.2045C22.3537 49.7171 22.2618 51.2606 21.8563 52.7356C21.1285 55.5956 20.45 58.4775 19.788 61.3458C19.5637 62.3246 19.2572 63.216 18.0398 62.8988C16.8224 62.5816 17.1726 61.5672 17.3586 60.747C17.996 57.958 18.6006 55.1581 19.3667 52.4047C20.1327 49.6513 19.6594 47.1878 18.141 44.8582C17.52 43.9039 16.7731 43.0208 16.226 42.0392C15.1617 40.1936 14.1222 38.3315 13.1947 36.4148C12.7132 35.4168 13.2905 34.561 14.3903 34.5473C17.5364 34.5036 20.6826 34.4379 23.826 34.5719C26.0393 34.6649 27.0762 36.9425 26.0147 39.0506C25.0845 40.9236 26.0147 42.8485 27.9297 43.0016C28.3846 43.05 28.8442 42.9758 29.2607 42.7868C29.6772 42.5978 30.0355 42.3008 30.2985 41.9267C30.5614 41.5526 30.7194 41.1149 30.7561 40.6592C30.7927 40.2035 30.7067 39.7463 30.5069 39.335C29.1663 36.3765 30.34 34.5336 33.5682 34.5282C34.2877 34.5145 35.0018 34.5172 35.8553 34.5172Z" fill="white"/>
<path d="M22.2198 4.14511C23.6971 1.34797 25.7216 -0.103921 28.7638 0.713622C30.6515 1.22219 32.0714 3.26195 32.0632 5.27436C32.0632 8.42422 30.1235 9.87611 27.0703 10.4694C27.8035 11.4647 28.4382 12.3178 29.0675 13.1818C30.4928 15.1478 30.2767 16.6407 28.3698 18.1035C27.5491 18.7269 26.753 19.3667 25.9076 20.0339C29.248 22.4564 30.1153 24.2556 29.2426 26.7219C28.5313 28.737 26.7174 29.9455 24.4795 29.8963C21.9954 29.8416 20.4388 28.3788 19.4867 24.9938C18.5237 25.7129 17.6373 26.361 16.7509 27.039C14.8906 28.4499 13.5336 28.2886 12.0727 26.4785L9.9114 23.7962C8.72132 25.8551 7.26588 27.6078 4.7462 27.3507C3.55271 27.2037 2.42846 26.7104 1.51247 25.9317C-0.0770298 24.5645 -0.331446 22.667 0.363447 20.6819C1.05834 18.6968 2.91868 18.0133 4.80091 17.2121C4.03762 16.1376 3.36736 15.2243 2.72992 14.2919C1.65749 12.7143 1.87906 11.2843 3.3564 10.1031C4.10327 9.507 4.85562 8.9164 5.61891 8.3422C7.84311 6.66337 9.87036 7.39888 10.4914 10.1003C10.8005 11.4428 11.6951 12.2877 12.9016 12.3233C14.0288 12.3534 14.8167 11.8092 15.2134 10.7565C15.6511 9.61362 15.1778 8.41602 14.0315 7.73245C11.2081 6.05089 11.1534 4.13691 13.7251 2.0452C17.2652 -0.831234 18.5045 -0.844897 21.1801 2.92564C21.4291 3.30844 21.7656 3.62287 22.2198 4.14511ZM14.658 25.5106L16.4171 24.2364L17.4129 23.5146C19.6016 21.9178 21.6671 22.7408 22.2115 25.4286C22.4851 26.7383 23.4536 27.5941 24.6546 27.5668C25.2309 27.5527 25.7835 27.3352 26.2147 26.9528C26.6458 26.5705 26.9276 26.0479 27.0101 25.4778C27.1798 24.1107 26.4274 23.315 25.2401 22.7435C23.1062 21.7018 22.8764 19.4214 24.6929 17.8875C25.6258 17.1028 26.5615 16.3208 27.5901 15.4595C26.8816 14.5025 26.2222 13.633 25.5985 12.7608C23.8311 10.3437 24.6574 8.28751 27.6284 7.74066C28.8048 7.52466 29.5079 6.87116 29.6529 5.68176C29.7979 4.49236 29.2945 3.58733 28.2276 3.14438C27.1606 2.70143 26.1593 3.0022 25.3988 3.89356C25.1793 4.18207 24.9956 4.49605 24.8516 4.82867C23.6779 7.19107 21.7218 7.40435 20.0557 5.34819C19.4238 4.56893 18.8301 3.75685 18.1407 3.02681C17.9273 2.79713 17.3555 2.58112 17.1695 2.70143C16.16 3.35492 15.2216 4.11231 14.2093 4.87243C17.6373 7.26764 18.5237 9.00935 17.7057 11.5085C17.386 12.5108 16.7492 13.3823 15.8912 13.9918C15.0332 14.6013 14.0004 14.9158 12.9481 14.888C10.3327 14.8634 8.91554 13.5209 7.83764 9.89526L4.4945 12.4737C5.17298 13.3842 5.76119 14.1826 6.36033 14.9728C8.28907 17.5184 7.67623 19.271 4.56015 20.1104C2.60132 20.6409 1.91464 22.6888 3.19226 24.1544C4.44525 25.5762 6.40408 25.1032 7.36161 23.1509C8.37659 21.0838 10.4148 20.7612 11.9632 22.4482C12.8524 23.4189 13.7059 24.4278 14.658 25.5106Z" fill="white"/>
</g>
<defs>
<clipPath id="clip0_170_295">
<rect width="63" height="63" fill="white"/>
</clipPath>
</defs>
</svg>
