<svg width="60" height="61" viewBox="0 0 60 61" fill="none" xmlns="http://www.w3.org/2000/svg">
<g clip-path="url(#clip0_1477_99)">
<path d="M30.338 49.0768C29.4306 50.4231 28.9597 50.6135 27.4799 50.2713C27.117 50.1923 26.7601 50.0874 26.4122 49.9575C25.2552 49.5019 24.2748 49.7267 23.2233 50.4191C21.3335 51.6642 19.8213 51.1905 18.6907 49.1922C18.6538 49.1175 18.6014 49.0514 18.537 48.9983C18.4727 48.9453 18.3977 48.9065 18.3172 48.8844V53.2819H16.403C16.403 51.5691 16.3827 49.8907 16.4152 48.2203C16.4274 47.613 16.2935 47.3174 15.6195 47.208C14.7259 47.0376 13.8444 46.809 12.9808 46.5237C11.8806 46.1977 11.4056 45.5519 11.5457 44.4242C11.6433 43.6587 11.8279 42.9068 12.0958 42.1829C12.5017 41.0795 13.4639 40.9236 14.5823 41.0309C13.8313 39.5428 13.1209 38.1356 12.4124 36.7285C10.3217 32.578 11.9436 28.1137 16.2265 26.2268L21.9872 23.6858C20.5054 21.5964 20.6434 19.1405 20.1136 16.875C19.5656 14.5203 19.2185 12.1171 18.8247 9.73005C18.4837 7.6548 19.525 6.0189 21.4838 5.3042C21.9685 5.12444 22.3912 4.80962 22.7017 4.39717C26.0002 -0.312126 33.9571 -0.318201 37.2718 4.37085C37.6118 4.80381 38.0669 5.13281 38.5852 5.32039C40.4262 6.00876 41.5264 7.67099 41.1914 9.59844C40.4999 13.5735 39.7685 17.5404 38.9972 21.4992C38.8531 22.2342 38.4532 22.9165 38.1325 23.7263C39.7787 24.4532 41.4655 25.2792 43.2071 25.9534C47.3865 27.5731 49.2783 30.6769 49.5097 35.0521C49.666 37.9737 50.0883 40.8811 50.3867 43.7965C50.7074 46.9347 51.022 50.0729 51.3447 53.2799H49.4752C49.2134 50.7815 48.9454 48.3114 48.6937 45.8373C48.2654 41.6504 47.8981 37.4574 47.4028 33.2846C47.1856 31.4382 46.2721 29.7739 44.6462 28.879C42.0968 27.478 39.395 26.3583 36.6669 25.0768C36.6089 25.2648 36.5741 25.4593 36.5635 25.6558C36.8923 27.5347 36.0803 28.9155 34.7812 30.2011C33.4374 31.5272 32.2622 33.0214 30.9956 34.4245C30.1654 35.3437 29.8304 35.3558 29.0347 34.469C27.2951 32.5355 25.5637 30.5959 23.8708 28.6219C23.6187 28.276 23.4727 27.8645 23.4507 27.4375C23.3837 26.741 23.4324 26.0324 23.4324 25.1334C22.858 25.3784 22.4175 25.5667 21.9649 25.7611C20.2334 26.5142 18.4999 27.2593 16.7786 28.0287C13.7866 29.367 12.5159 32.5821 13.9368 35.5198C16.0357 39.8505 18.2583 44.1245 20.4201 48.4248C20.8261 49.2347 21.3985 49.3643 22.1536 48.8885C22.8397 48.4572 23.542 48.0523 24.2342 47.6312C25.2917 46.9853 25.3831 46.6776 24.8046 45.5924C22.8261 41.8792 20.8451 38.1674 18.8612 34.4569C18.7516 34.2544 18.6359 34.0418 18.5364 33.8293C18.2766 33.2826 18.2523 32.7683 18.8612 32.4424C19.4702 32.1164 19.9106 32.4424 20.1948 32.9607C21.226 34.8537 22.2368 36.7569 23.2497 38.66C24.0271 40.1157 24.8411 41.5532 25.5495 43.0413C25.9331 43.8512 26.4711 44.2946 27.3378 44.4343C27.9346 44.5315 28.5172 44.7177 29.1079 44.8513C30.0781 45.072 30.6911 45.6875 30.7581 46.6492C30.8007 47.2566 31.1215 47.3578 31.5559 47.4591C32.8956 47.7931 34.227 48.1596 35.5769 48.4552C36.0277 48.5343 36.4533 48.7191 36.8186 48.9944C37.1838 49.2696 37.4783 49.6275 37.6778 50.0385C38.2725 51.2532 39.0236 52.2129 40.3613 52.7353C41.3133 53.1078 41.6624 54.0311 41.364 55.013C41.1428 55.7378 40.7367 56.414 40.3592 57.0822C40.2022 57.3013 39.9841 57.4696 39.732 57.5661C39.0479 57.8758 37.3185 57.2947 36.6202 56.5193C35.9605 55.7884 35.7779 54.8692 36.326 54.0898C37.1582 52.9175 36.8374 51.9538 36.058 51.0163C35.769 50.6686 35.3877 50.4091 34.9578 50.2672C33.4537 49.8421 31.9172 49.4797 30.338 49.0768ZM30.0111 6.98463C27.6808 6.98463 25.3425 6.98463 23.0183 6.98463C21.3072 6.98463 20.4161 7.94228 20.7023 9.61665C21.362 13.4635 22.0805 17.2819 22.8173 21.1044C23.0487 22.305 23.812 22.9104 25.0339 22.9266C28.3439 22.9509 31.6552 22.9509 34.9679 22.9266C36.1858 22.9266 36.9592 22.3192 37.1906 21.1227C37.9315 17.3002 38.6501 13.4716 39.3098 9.63489C39.6 7.95445 38.711 7.00286 37.0059 6.98869C34.6736 6.97654 32.3434 6.98463 30.0111 6.98463ZM25.2532 24.8338C25.3425 25.8461 25.1071 26.9678 25.5597 27.5853C26.8811 29.3872 28.4765 30.9867 30.0111 32.7177C31.2838 31.2742 32.384 29.8063 33.7095 28.5855C34.9477 27.4436 34.6777 26.1701 34.6168 24.8338H25.2532ZM24.7478 5.03896H35.2501C32.8102 1.96962 27.2688 1.96557 24.7478 5.03896ZM13.3807 44.7076L16.7603 45.5418C16.2935 43.9666 15.6013 42.847 13.7805 43.0292C13.6486 43.5536 13.5247 44.0941 13.3786 44.7015L13.3807 44.7076ZM27.2181 46.3273C27.0476 46.9549 26.9014 47.4874 26.735 48.1009L28.4482 48.5281C28.5943 47.866 28.7161 47.3133 28.8419 46.7282L27.2181 46.3273ZM38.5323 53.867L37.893 55.1851L39.0216 55.7499L39.6569 54.4825L38.5323 53.867Z" fill="#0083BF"/>
<path d="M43.4181 59.0035H58.4084C58.6783 59.0035 59.0173 58.9084 59.2061 59.0319C59.5309 59.2344 59.9795 59.5765 59.9856 59.864C59.9916 60.1515 59.5959 60.5807 59.2731 60.7751C59.0214 60.9269 58.6134 60.8277 58.2764 60.8277C39.4301 60.8277 20.5837 60.8277 1.73731 60.8277C0.994388 60.8277 -0.0185132 61.0565 -0.00024463 59.8701C0.0159941 58.7343 1.0147 59.0157 1.70282 59.0157C12.0915 59.0049 22.4789 59.0049 32.8649 59.0157H33.9854C33.486 57.4142 33.0496 57.0781 31.5252 57.0761C21.6115 57.0761 11.6977 57.0761 1.78399 57.0761C1.05731 57.0761 0.00793023 57.3454 0.00590039 56.1691C0.00590039 55.0312 1.02086 55.2155 1.7719 55.2155C12.0246 55.2155 22.2732 55.2256 32.5279 55.1912C33.5266 55.1912 34.2594 55.4402 34.6573 56.3513C35.6539 58.6351 37.3509 59.4226 39.8029 59.0703C40.6798 58.9448 41.3558 58.8416 41.7353 57.9912C42.7503 55.7135 44.433 54.9786 46.9682 55.1567C50.7742 55.4098 54.6106 55.2195 58.4348 55.2296C58.7982 55.2296 59.2244 55.2175 59.5065 55.3956C59.7887 55.5738 60.0262 55.9848 59.9977 56.2662C59.9693 56.5477 59.6263 56.8736 59.338 57.0194C59.0498 57.1652 58.6763 57.0923 58.3394 57.0923C54.3122 57.0923 50.283 57.1874 46.2618 57.0477C44.705 56.9647 44.0453 57.7017 43.4181 59.0035Z" fill="#0083BF"/>
<path d="M42.9638 42.7417L41.0416 42.5149C40.8183 40.9276 40.5341 39.2755 40.396 37.6254C40.3656 37.2772 40.802 36.682 41.139 36.5625C41.7479 36.36 42.1235 36.7953 42.2128 37.4331C42.4584 39.1884 42.708 40.9418 42.9638 42.7417Z" fill="#0083BF"/>
<path d="M46.1871 46.9286C46.0224 47.2165 45.8358 47.4913 45.6289 47.7506C44.7642 48.6415 43.8853 49.5202 43.0023 50.3827C42.5659 50.8139 42.0768 51.1257 41.5206 50.5851C40.9644 50.0445 41.1978 49.51 41.685 49.0302C42.5923 48.1353 43.4651 47.208 44.4151 46.3496C44.5682 46.2374 44.7436 46.159 44.9294 46.1195C45.1152 46.0801 45.3073 46.0805 45.4929 46.1208C45.7629 46.2018 45.9395 46.6229 46.1871 46.9286Z" fill="#0083BF"/>
<path d="M44.169 52.9701C43.8301 52.7089 43.3957 52.5409 43.3206 52.2736C43.2333 51.9537 43.3348 51.3565 43.5641 51.2147C44.5091 50.6342 45.5019 50.135 46.5318 49.7226C46.7896 49.6193 47.3437 49.8663 47.5467 50.1275C47.7071 50.33 47.6705 50.9961 47.496 51.1074C46.4465 51.7654 45.3382 52.3283 44.169 52.9701Z" fill="#0083BF"/>
<path d="M42.5821 45.2765C41.8981 46.4791 41.2871 47.619 40.5868 48.7002C40.4934 48.8439 39.8256 48.8237 39.6368 48.6496C39.3993 48.4329 39.2004 47.9065 39.304 47.6372C39.6736 46.6694 40.1329 45.7381 40.6761 44.8554C40.8425 44.5902 41.419 44.4505 41.7824 44.4808C42.0402 44.4991 42.2553 44.9303 42.5821 45.2765Z" fill="#0083BF"/>
<path d="M34.6696 52.7454C34.6859 53.5998 33.9389 54.0411 33.2487 53.618C32.5483 53.217 31.904 52.7255 31.3326 52.1562C31.0951 51.9072 31.0687 51.2816 31.2047 50.9252C31.2818 50.7228 31.9903 50.5081 32.2196 50.6397C33.0143 51.1382 33.7721 51.693 34.4869 52.3C34.6087 52.4073 34.631 52.6522 34.6696 52.7454Z" fill="#0083BF"/>
<path d="M28.2249 51.314C28.9982 51.8829 29.7046 52.3263 30.2952 52.8871C30.4597 53.041 30.4131 53.6646 30.2324 53.865C30.0294 54.0958 29.4773 54.2699 29.2175 54.1646C28.5801 53.8748 27.9924 53.4867 27.4759 53.0147C27.3695 52.8804 27.2978 52.7221 27.267 52.5537C27.2363 52.3853 27.2473 52.212 27.2993 52.0489C27.4312 51.7574 27.8575 51.5853 28.2249 51.314Z" fill="#0083BF"/>
<path d="M30.005 9.7928C31.7649 9.7928 33.5227 9.7928 35.2826 9.7928C36.3442 9.7928 36.7218 10.2362 36.5005 11.2343C36.2549 12.3135 35.9464 13.3784 35.6886 14.4555C35.5201 15.1601 35.0796 15.4679 34.3773 15.4679H25.649C24.9487 15.4679 24.5062 15.1702 24.3377 14.4555C24.08 13.3784 23.7714 12.3135 23.5258 11.2343C23.2964 10.2342 23.6699 9.79887 24.7335 9.7928C26.4893 9.78673 28.2472 9.7928 30.005 9.7928ZM34.2799 11.7101H25.7079C25.8601 13.504 25.8601 13.504 27.4941 13.504H32.5687C34.2088 13.504 34.2088 13.504 34.2799 11.7101Z" fill="#0083BF"/>
</g>
<defs>
<clipPath id="clip0_1477_99">
<rect width="60" height="60" fill="white" transform="translate(0 0.860107)"/>
</clipPath>
</defs>
</svg>
