<svg width="78" height="35" viewBox="0 0 78 35" fill="none" xmlns="http://www.w3.org/2000/svg">
<g clip-path="url(#clip0_1477_109)">
<path d="M75.5087 18.1391C75.2528 16.7673 74.3695 15.9257 73.1451 15.4386C72.3654 15.1303 71.6618 14.7635 72.0303 13.7986C72.4354 12.7412 73.3187 13.0094 74.1015 13.3022C75.2205 13.742 76.1854 14.5078 76.8745 15.5026C77.5635 16.4974 77.9457 17.6767 77.9727 18.8913C78.0123 20.8951 77.9971 22.8989 77.9727 24.9027C77.9514 27.0329 76.7544 28.3493 74.6589 28.5712C74.4569 28.5979 74.2527 28.6031 74.0497 28.5867C71.7044 28.3308 69.9744 28.5373 68.8292 31.3612C67.684 34.185 64.7966 35.1746 61.7721 34.7769C58.8725 34.3915 56.8226 32.6775 55.848 29.8938C55.4916 28.8764 55.0866 28.5743 54.051 28.5774C43.4922 28.6144 32.9334 28.6144 22.3746 28.5774C21.403 28.5774 20.9004 28.7439 20.5471 29.8321C19.999 31.4411 18.9196 32.8097 17.4908 33.7071C16.0619 34.6045 14.3711 34.9759 12.7033 34.7587C11.0355 34.5414 9.49268 33.7488 8.33493 32.5145C7.17718 31.2801 6.4753 29.6795 6.34759 27.9824C6.27145 27.0144 5.91508 26.5458 5.06225 26.2006C-0.301409 24.0241 -0.0364135 24.0796 0.00927355 18.4443C0.00927355 16.8012 -0.0181387 15.155 0.00927355 13.5119C0.0366858 11.8687 0.980882 10.4106 2.51901 10.2657C8.9152 9.64912 14.0017 6.19333 19.1339 2.81769C21.1645 1.44791 23.5696 0.75979 26.0083 0.850869C31.2349 0.964932 36.4645 0.807707 41.6911 0.934101C43.1985 0.975837 44.6791 1.34706 46.0314 2.02232C51.5351 4.86156 56.914 7.95052 62.43 10.7651C64.0046 11.5697 65.9083 11.6899 67.6078 12.2541C68.1591 12.436 68.5673 13.0618 69.0424 13.4872C68.5033 13.817 67.9368 14.4768 67.4342 14.4305C54.0114 13.1974 40.5611 14.1222 27.1261 13.9527C23.6691 13.9095 20.7725 13.0833 18.275 10.6819C17.3247 9.75702 16.2373 8.99557 15.1347 8.09848C14.776 8.26923 14.4299 8.46602 14.0992 8.68729C11.1691 10.9593 7.63596 11.505 4.17593 12.2602C2.26926 12.6764 2.19617 12.7781 2.39414 15.0933C3.10686 15.0933 3.88962 14.9423 4.56883 15.1396C5.12926 15.306 5.56786 15.8856 6.06129 16.2802C5.56786 16.6809 5.12623 17.2543 4.5658 17.4331C3.92923 17.6335 3.183 17.4794 2.51901 17.4794C1.587 21.9001 2.21443 22.8928 6.76487 24.3262C6.8867 24.1536 6.98722 23.8546 7.17301 23.7775C7.71212 23.5586 8.28472 23.4292 8.84211 23.2627C8.94262 23.8053 9.14669 24.3509 9.12841 24.8873C9.07663 26.2777 8.57713 27.7543 8.8878 29.0367C9.52437 31.6448 12.2869 32.9981 14.9124 32.3384C17.4495 31.7033 18.9968 29.194 18.5674 26.4102C18.1988 23.9748 15.8261 22.0943 13.3194 22.2145C13.1184 22.2145 12.8717 22.3594 12.7103 22.2824C12.2016 22.008 11.7265 21.6658 11.2361 21.3575C11.6747 20.9105 12.0615 20.1491 12.561 20.0658C16.1185 19.4493 19.4354 21.5672 20.5898 25.1401C20.8395 25.9046 21.0954 26.2129 21.9147 26.2129C32.9283 26.1821 43.943 26.1708 54.9586 26.179C55.0864 26.1637 55.2127 26.1379 55.3363 26.1019C56.4876 22.2577 58.8573 19.81 63.1031 20.0011C66.9104 20.1676 69.0241 22.5167 70.0871 26.1913C71.5308 26.1913 72.9928 26.2746 74.4396 26.1389C74.8599 26.0989 75.5208 25.47 75.5635 25.06C75.6502 23.6755 75.6675 22.2875 75.6153 20.9013C74.5249 20.2076 72.5695 21.4315 72.5329 19.5264C72.536 17.578 74.5371 18.8142 75.5087 18.1391ZM26.8245 11.5882H38.7458V3.29243H26.8245V11.5882ZM41.1977 11.545H58.3821C55.6013 9.78169 52.7656 8.23413 49.9209 6.70507C47.9594 5.65076 46.0161 4.54712 43.9968 3.62229C43.1866 3.24619 42.1937 3.26777 41.1977 3.09205V11.545ZM62.701 22.2145C61.6964 22.2297 60.7186 22.5448 59.8903 23.1203C59.0619 23.6957 58.4198 24.506 58.0446 25.4493C57.6694 26.3926 57.5778 27.4271 57.7812 28.423C57.9846 29.4188 58.474 30.3317 59.188 31.0472C59.902 31.7626 60.8088 32.2488 61.7947 32.4446C62.7806 32.6405 63.8017 32.5373 64.7299 32.1481C65.6581 31.7589 66.4522 31.1009 67.0124 30.2567C67.5726 29.4126 67.874 28.4198 67.8789 27.4029C67.882 24.616 65.4453 22.1775 62.701 22.2145ZM24.3422 11.4618V3.18761C21.5005 3.52672 19.6395 5.51512 17.0841 6.83146C19.6882 8.41601 21.272 10.9901 24.3422 11.4618Z" fill="#0083BF"/>
</g>
<defs>
<clipPath id="clip0_1477_109">
<rect width="78" height="34" fill="white" transform="translate(0 0.860107)"/>
</clipPath>
</defs>
</svg>
