<svg width="48" height="50" viewBox="0 0 48 50" fill="none" xmlns="http://www.w3.org/2000/svg">
<g clip-path="url(#clip0_1477_115)">
<path d="M21.9162 42.2125C22.5933 45.0654 21.9416 47.3642 19.605 48.9069C17.666 50.1843 15.5583 50.1796 13.6215 48.8764C11.1925 47.2327 10.6471 44.8494 11.3889 42.1068C8.1048 40.165 6.88686 38.0564 7.48776 35.4101C8.13256 32.5665 9.96295 31.2446 13.9289 30.8571L12.5214 27.0438C9.89597 19.9197 7.25434 12.8026 4.66355 5.67617C4.38159 4.9013 4.05109 4.50213 3.20521 4.62893C2.70691 4.68764 2.20359 4.68764 1.70529 4.62893C1.24183 4.58995 0.809836 4.37495 0.495438 4.0268C0.18104 3.67865 0.00730671 3.22294 0.0088918 2.75046C0.00386841 2.27425 0.183239 1.8151 0.508359 1.47205C0.833479 1.12899 1.2783 0.929493 1.74687 0.916582C3.05266 0.862576 4.36539 0.864924 5.6758 0.916582C6.65341 0.954152 7.11798 1.64448 7.43923 2.52032C9.65022 8.55022 11.8735 14.577 14.1091 20.6006C15.2647 23.74 16.4457 26.8747 17.5758 30.0282C17.8185 30.7092 18.119 30.9839 18.8747 30.9816C25.9252 30.9471 32.975 30.9471 40.0239 30.9816C40.8305 30.9816 41.0501 30.6763 41.1679 29.9367C42.0392 24.4632 42.9521 18.9992 43.8442 13.5305C43.9112 13.1173 43.9344 12.697 43.9875 12.1687H17.4303C17.0844 12.195 16.7369 12.1871 16.3926 12.1451C15.4103 11.9432 14.8048 11.3304 14.8071 10.2855C14.8094 9.24058 15.408 8.62773 16.3995 8.43753C16.744 8.39869 17.0913 8.39163 17.4372 8.41641H45.2887C47.7385 8.41641 48.2932 9.06446 47.8772 11.537C46.7232 18.5813 45.5676 25.6256 44.4105 32.6698C44.1447 34.2759 43.6224 34.7056 42.0115 34.708H13.9242C13.6145 34.708 13.3072 34.6939 12.9998 34.708C11.8442 34.7737 11.063 35.5674 11.0908 36.6311C11.1185 37.6454 11.8812 38.4156 12.9767 38.4579C13.9381 38.4955 14.9019 38.4579 15.8656 38.4579C19.679 38.4579 23.4924 38.4579 27.3058 38.4579C28.7548 38.4579 29.5914 39.1623 29.5776 40.3551C29.5637 41.548 28.734 42.2031 27.2664 42.2054C25.5308 42.2172 23.7997 42.2125 21.9162 42.2125ZM16.5474 45.9694C16.914 45.9884 17.2779 45.896 17.5927 45.704C17.9074 45.5121 18.1588 45.2293 18.3148 44.8916C18.4708 44.554 18.5244 44.1768 18.4686 43.8081C18.4129 43.4395 18.2504 43.096 18.0018 42.8216C17.7533 42.5471 17.43 42.354 17.073 42.2669C16.716 42.1798 16.3416 42.2026 15.9974 42.3324C15.6533 42.4623 15.355 42.6933 15.1406 42.996C14.9261 43.2988 14.8052 43.6595 14.7932 44.0323C14.785 44.5222 14.9626 44.9965 15.2891 45.3571C15.6157 45.7177 16.0662 45.937 16.5474 45.9694Z" fill="#0083BF" stroke="white"/>
<path d="M44.3756 44.0723C44.3801 45.1843 44.0606 46.2729 43.4574 47.2008C42.8542 48.1287 41.9942 48.8546 40.9858 49.2871C39.9774 49.7195 38.8657 49.8391 37.7905 49.6309C36.7153 49.4227 35.7247 48.896 34.9436 48.117C34.1624 47.338 33.6256 46.3416 33.4006 45.2533C33.1757 44.165 33.2727 43.0334 33.6795 42.001C34.0862 40.9686 34.7845 40.0815 35.6864 39.4515C36.5884 38.8214 37.6536 38.4766 38.7481 38.4603C39.4807 38.4517 40.2078 38.5901 40.8877 38.8678C41.5675 39.1454 42.1867 39.5568 42.7096 40.0782C43.2325 40.5997 43.6489 41.221 43.9348 41.9064C44.2207 42.5918 44.3705 43.3279 44.3756 44.0723ZM40.6778 44.1451C40.6884 43.7722 40.5894 43.4047 40.3936 43.0892C40.1978 42.7737 39.9139 42.5245 39.5782 42.3735C39.2425 42.2225 38.8702 42.1765 38.5086 42.2412C38.1471 42.306 37.8128 42.4786 37.5481 42.7372C37.2835 42.9957 37.1007 43.3284 37.0228 43.6929C36.945 44.0574 36.9757 44.4372 37.1111 44.7839C37.2465 45.1306 37.4804 45.4285 37.783 45.6397C38.0857 45.8508 38.4434 45.9657 38.8105 45.9695C39.2925 45.967 39.755 45.7761 40.1022 45.4364C40.4495 45.0967 40.6547 44.6343 40.6755 44.1451H40.6778Z" fill="#0083BF" stroke="white"/>
</g>
<defs>
<clipPath id="clip0_1477_115">
<rect width="48" height="49" fill="white" transform="translate(0 0.860107)"/>
</clipPath>
</defs>
</svg>
