<svg width="46" height="50" viewBox="0 0 46 50" fill="none" xmlns="http://www.w3.org/2000/svg">
<g clip-path="url(#clip0_1477_111)">
<path d="M3.64879 22.6308C3.20908 20.024 2.69962 17.4938 2.38041 14.9387C1.99356 11.8954 1.74621 8.8252 2.47765 5.79016C2.8645 4.18678 3.38243 2.55029 5.25963 2.09514C7.02901 1.66481 8.28258 2.76959 9.36704 3.9323C11.6924 6.43357 13.1426 9.46449 14.4934 12.5388C14.6583 12.9174 14.8147 13.3002 14.9014 13.505C16.1698 12.5575 17.529 11.6802 18.6706 10.5796C19.0173 10.2424 19.0215 9.06105 18.6896 8.67831C18.4917 8.47359 18.3379 8.23201 18.2373 7.96794C18.1367 7.70386 18.0914 7.42269 18.1041 7.14113C18.1041 6.34875 18.1189 5.5543 18.1041 4.76192C18.0893 4.04609 18.3916 3.65921 19.161 3.66128C21.275 3.66128 23.389 3.66128 25.5029 3.66128C26.2661 3.66128 26.5768 4.03576 26.5599 4.75572C26.5451 5.68672 26.5789 6.61771 26.543 7.54871C26.5383 7.84759 26.4369 8.13733 26.2534 8.37626C25.3634 9.36311 25.5093 10.261 26.581 10.9686C27.5344 11.5892 28.3885 12.3692 29.3672 13.1409C31.3692 12.1851 33.3838 12.2161 35.2314 14.0243C35.9332 12.6588 36.8401 11.5416 38.4023 11.2334C38.9809 11.0951 39.582 11.0726 40.1696 11.1672C40.4994 11.2396 40.7319 11.7361 41.0152 12.0402C40.696 12.2823 40.381 12.7333 40.0597 12.7292C38.7384 12.7147 37.6645 13.0002 37.0473 14.3512C41.1188 13.5236 44.2749 17.0262 43.2919 23.1439C43.6069 23.0384 43.8817 22.937 44.1586 22.8522C45.5031 22.4177 46.002 22.7591 46.002 24.1225C46.002 27.9499 46.002 31.7773 46.002 35.6047C46.002 39.9135 46.002 44.223 46.002 48.5331C46.002 49.8489 45.8646 49.9814 44.5751 49.9814H3.45853C2.16055 49.9814 2.0316 49.8469 2.0316 48.5331C2.0316 40.499 2.0316 32.4649 2.0316 24.4307C2.0316 22.7818 2.03372 22.7777 3.64879 22.6308ZM35.8021 24.5259C35.4089 24.9707 35.2314 25.1817 35.0411 25.3824C33.5212 26.9734 31.384 26.9568 29.8619 25.3431C28.5555 23.959 27.9297 23.9652 26.5937 25.3783C25.0843 26.9713 22.9281 26.9589 21.4145 25.3493C20.106 23.959 19.476 23.9632 18.1442 25.3721C16.6348 26.9692 14.4807 26.963 12.965 25.3555C11.6501 23.9632 11.0498 23.9632 9.69048 25.3555C8.13883 26.9506 6.07985 26.9444 4.49861 25.3555C4.29989 25.1486 4.0758 24.9769 3.79464 24.7349V48.2787H35.8021V24.5259ZM44.2411 48.2994V24.7721C41.9157 26.8699 40.7467 27.4844 37.6011 24.8073V48.2994H44.2411ZM13.874 23.7335V17.7069C13.874 17.0014 14.0854 16.2132 13.8338 15.6049C12.8635 13.2547 11.8784 10.8899 10.6375 8.67004C9.74607 7.11645 8.64621 5.68659 7.36724 4.4185C6.06927 3.11304 4.94042 3.43578 4.43729 5.21088C4.01621 6.66271 3.79161 8.16235 3.76927 9.67138C3.76468 14.3883 4.45821 19.0809 5.82827 23.6032C6.26375 25.0679 7.27845 25.3183 8.42422 24.2363C8.83052 23.8111 9.28759 23.4353 9.7856 23.117C11.1998 22.3122 12.5295 22.7053 13.874 23.7335ZM20.6387 8.66382C20.6076 9.20682 20.6076 9.7511 20.6387 10.2941C20.7571 11.252 20.4041 11.7754 19.4549 12.1561C17.4509 12.9836 15.9837 14.4856 15.7956 16.598C15.5546 19.3144 15.7364 22.066 15.7364 25.0555C16.322 24.5714 16.8547 24.1804 17.3282 23.7253C18.7678 22.3432 20.7909 22.3267 22.2199 23.7128C22.5434 24.0294 22.8182 24.4576 23.2072 24.6231C23.6445 24.8008 24.1304 24.8278 24.5855 24.6997C24.7609 24.6459 24.7969 24.017 24.8117 23.6466C24.8117 22.6908 24.6764 21.7226 24.7757 20.7792C25.0357 18.2965 26.0948 16.1139 28.0397 14.076C26.9277 13.3374 25.9765 12.5926 24.9174 12.0402C24.2599 11.6968 23.9555 11.341 24.0062 10.621C24.0506 9.9817 24.0062 9.33621 24.0062 8.65555L20.6387 8.66382ZM26.3887 23.1791C28.4434 22.2232 29.9211 22.846 31.2339 24.2735C32.0795 25.1962 32.8912 25.1135 33.8467 24.1659C35.8487 22.1777 37.5567 22.1777 39.5396 24.1287C39.88 24.4638 40.3387 24.6831 40.7594 24.9562C41.903 22.8522 42.0827 20.1482 41.2921 18.1869C40.3577 15.8739 38.4446 15.2615 36.3074 16.6269C35.5421 17.1173 35.0559 17.0407 34.6352 16.2132C33.4514 13.9002 31.3713 13.4967 29.3926 15.2366C27.0419 17.3076 26.2851 19.9806 26.3929 23.1791H26.3887ZM24.8243 5.38673H19.8396V6.92183H24.8264L24.8243 5.38673Z" fill="#0083BF" stroke="#0083BF" stroke-width="0.5"/>
<path d="M7.77734 21.3378L8.74979 18.5489C9.10916 17.5145 9.41357 16.4531 9.86385 15.4456C9.99491 15.156 10.5488 15.0504 10.9208 14.8601C11.0857 15.2222 11.4683 15.6504 11.3817 15.938C10.8109 17.8069 10.1725 19.6537 9.46642 21.4784C9.35861 21.7577 8.78783 21.9957 8.42211 22.006C8.1938 22.0205 7.96126 21.5488 7.77734 21.3378Z" fill="#0083BF"/>
<path d="M9.55498 8.33913C9.39431 8.8729 9.30554 9.20392 9.1935 9.52873C8.65232 11.0866 8.13651 12.6589 7.52558 14.1858C7.39663 14.5002 6.82164 14.6389 6.45169 14.8561C6.29103 14.4671 5.91473 14.0161 6.00774 13.6996C6.53412 11.9224 7.13873 10.1639 7.80252 8.43016C7.89787 8.24613 8.0338 8.08513 8.20051 7.95883C8.36723 7.83252 8.56054 7.74406 8.76647 7.69984C9.00324 7.6626 9.32033 8.13431 9.55498 8.33913Z" fill="#0083BF"/>
</g>
<defs>
<clipPath id="clip0_1477_111">
<rect width="46" height="50" fill="white"/>
</clipPath>
</defs>
</svg>
