<svg width="55" height="60" viewBox="0 0 55 60" fill="none" xmlns="http://www.w3.org/2000/svg">
<g clip-path="url(#clip0_1477_95)">
<path d="M53.3125 58.0855C53.3125 54.4273 53.3125 50.8649 53.3125 47.3043C53.3125 46.6003 53.1889 45.7083 54.1962 45.7286C55.1471 45.7489 54.9889 46.6298 54.9907 47.2877C54.9907 51.0055 54.9907 54.7228 54.9907 58.4394C54.9907 59.7294 54.858 59.8529 53.5652 59.8529C50.1106 59.8529 46.6559 59.8529 43.2013 59.8529C42.1649 59.8529 41.9812 59.641 41.8449 58.585C41.2994 54.3941 40.7376 50.2069 40.1775 46.0179C40.1215 45.8685 40.0495 45.7258 39.963 45.5922C39.7811 46.768 39.6248 47.7577 39.4975 48.751C39.0611 52.1218 38.6411 55.4962 38.2084 58.8669C38.1266 59.5009 37.7902 59.8566 37.1174 59.8566C33.4494 59.8566 29.7821 59.8566 26.1153 59.8566C25.388 59.8566 25.057 59.5028 25.0079 58.8116C24.9879 58.537 24.997 58.2588 24.997 57.9842V39.1659H23.9551C20.7732 39.1659 17.5907 39.1659 14.4076 39.1659C13.1567 39.1659 12.9366 38.9355 12.9348 37.6528C12.9348 34.7962 12.9348 31.9397 12.9348 29.0831C12.9348 28.8085 12.8639 28.4602 12.9985 28.2741C13.2039 27.9921 13.5439 27.6733 13.8566 27.653C14.0948 27.6364 14.4531 28.0032 14.5931 28.2833C14.7331 28.5634 14.6821 28.9412 14.6821 29.2766C14.6821 31.9415 14.6821 34.6064 14.6821 37.3174H24.9916C24.9916 35.9536 24.9534 34.6377 25.0025 33.3256C25.048 32.1184 25.1843 30.9132 25.2862 29.7079C26.4771 29.6194 27.6662 29.4701 28.859 29.4554C31.9191 29.4204 34.981 29.4443 38.0429 29.4443H39.1211V27.4503C39.1211 24.2878 39.1029 21.1234 39.1411 17.9591C39.1411 17.5573 39.3375 16.9529 39.6211 16.8146C39.9048 16.6764 40.4957 16.8736 40.8303 17.104C42.0248 17.9278 43.1703 18.8271 44.2849 19.6657L50.4669 13.4439C49.5215 12.5372 48.5433 11.6323 47.6014 10.6905C45.5559 8.63934 43.4776 6.6158 41.5085 4.48904C40.0684 2.93544 38.3684 2.40283 36.2556 2.659C35.832 5.69801 34.4119 8.16203 31.7973 9.83173C29.9318 11.0204 27.8681 11.3853 25.7025 11.1679C21.5897 10.755 18.3059 7.34745 17.5458 2.659C16.0003 2.50235 14.4112 2.48576 13.2239 3.66156C9.93286 6.91804 6.72737 10.2648 3.52363 13.5397L9.55837 19.6214C10.6039 18.84 11.7402 17.9444 12.9402 17.1206C13.2784 16.8884 13.8494 16.6672 14.1439 16.8054C14.4385 16.9436 14.6549 17.5426 14.664 17.9352C14.7113 20.1467 14.6876 22.3582 14.6858 24.5697C14.6858 25.1945 14.5876 25.8064 13.7948 25.7898C13.0021 25.7732 12.9312 25.1724 12.933 24.5421C12.933 22.8595 12.933 21.1769 12.933 19.3026C11.9366 20.0398 11.0548 20.6627 10.2057 21.3299C9.52565 21.8717 8.96927 21.8219 8.38743 21.1769C7.85832 20.5853 7.24915 20.0711 6.73095 19.4685C6.29093 18.9635 5.85455 18.9875 5.54909 19.4851C5.14544 20.1412 4.7436 20.8525 4.58359 21.5934C4.42359 22.3343 4.51995 23.1839 4.58359 23.9782C4.62905 24.2601 4.77138 24.5166 4.98542 24.7024C6.11636 25.7253 7.29641 26.6891 8.4019 27.7378C8.71176 28.0508 8.89858 28.4674 8.9274 28.9099C8.9674 32.4723 8.94379 36.0365 8.95652 39.599C8.95652 40.3656 8.66379 40.7231 7.88013 40.7158C5.60733 40.6961 3.33388 40.6961 1.05986 40.7158C0.283471 40.7158 -0.0128808 40.3877 -0.00924432 39.61C0.0125746 36.0458 -0.00921236 32.4834 0.023516 28.9209C0.0594256 28.4836 0.238601 28.071 0.532588 27.7488C1.00914 27.1909 1.55988 26.7027 2.16901 26.2984C2.99994 25.7787 3.01087 25.1116 2.86541 24.2712C2.59994 22.7397 2.60536 21.1898 3.28357 19.7652C3.64722 18.9912 4.24544 18.3277 4.8091 17.5113C3.89998 16.6045 2.89088 15.5965 1.88721 14.5792C1.03264 13.7093 1.02716 13.455 1.85809 12.6091C5.02305 9.39127 8.19103 6.17594 11.362 2.96308C12.0152 2.27673 12.8024 1.73604 13.6734 1.37555C14.5444 1.01506 15.4799 0.842706 16.4204 0.869497C23.423 0.898984 30.4251 0.898984 37.4266 0.869497C38.3508 0.84342 39.2701 1.01359 40.1256 1.36906C40.9811 1.72454 41.7538 2.25746 42.394 2.9336C45.5486 6.16612 48.7324 9.36731 51.9016 12.5832C52.7416 13.4347 52.7489 13.7259 51.9361 14.5497C49.7748 16.7452 47.6099 18.9383 45.4413 21.129C44.6576 21.9214 44.3958 21.9343 43.5012 21.2617L40.9758 19.3671V29.4443H41.9358C45.8474 29.4443 49.7578 29.4443 53.6671 29.4443C54.8017 29.4443 54.9944 29.6286 54.9962 30.7786C54.9962 34.741 54.9962 38.7033 54.9962 42.6656C54.9962 43.2978 54.9271 43.9557 54.1761 43.9446C53.3907 43.9446 53.298 43.2885 53.3034 42.6103C53.3234 40.2495 53.3034 37.8905 53.3034 35.4781H26.788V58.0616H36.5428C36.9192 55.1976 37.2866 52.3761 37.6611 49.5545C38.1193 46.096 38.5811 42.6361 39.0466 39.1751C39.0829 38.9023 39.0212 38.5706 39.1539 38.366C39.3921 37.9974 39.7429 37.7081 40.0466 37.3837C40.3411 37.6915 40.8394 37.9624 40.8976 38.3052C41.2103 40.2071 41.4085 42.1293 41.6594 44.0423C42.114 47.5033 42.5739 50.9638 43.0394 54.4236C43.1994 55.6326 43.354 56.8415 43.5158 58.08L53.3125 58.0855ZM19.4078 2.65162C19.615 6.20666 22.8624 9.65481 27.148 9.47051C31.0408 9.3157 34.5301 5.91732 34.3319 2.65162H19.4078ZM3.38176 27.6548C1.68352 28.7606 1.66712 28.7883 1.66712 30.7289V38.9687H7.28556C7.28556 36.1526 7.16188 33.3846 7.3328 30.6367C7.43825 28.9246 6.4782 28.2132 5.31453 27.4189C5.15998 28.1561 5.81819 29.2048 4.68542 29.4167C3.31629 29.6729 3.88905 28.1967 3.38176 27.6548ZM47.0723 31.2873H33.0009V33.6168H47.0723V31.2873ZM48.9051 33.6039H53.2525V31.267H48.9051V33.6039ZM31.1536 31.2891H26.8171V33.6149H31.1536V31.2891Z" fill="#0083BF" stroke="#0083BF" stroke-width="0.5"/>
<path d="M26.8501 5.29238C26.3973 5.29238 25.941 5.30344 25.4919 5.29238C24.8955 5.27764 24.4828 4.98092 24.4918 4.35801C24.5009 3.78485 24.8919 3.48999 25.4537 3.48446C26.4192 3.4734 27.3956 3.40337 28.3466 3.52132C28.6975 3.56555 29.1956 4.02813 29.2665 4.3746C29.3938 4.99199 28.8793 5.26843 28.2992 5.29607C27.8174 5.29239 27.3337 5.29238 26.8501 5.29238Z" fill="#0083BF" stroke="#0083BF" stroke-width="0.5"/>
</g>
<defs>
<clipPath id="clip0_1477_95">
<rect width="55" height="59" fill="white" transform="translate(0 0.860107)"/>
</clipPath>
</defs>
</svg>
