<svg width="59" height="59" viewBox="0 0 59 59" fill="none" xmlns="http://www.w3.org/2000/svg">
<g clip-path="url(#clip0_1477_136)">
<path d="M32.5345 48.7321C30.1336 48.7321 27.7326 48.7117 25.3317 48.7451C24.6265 48.7319 23.924 48.8353 23.2522 49.0511C22.567 49.3033 22.181 49.1716 21.9594 48.528C21.7082 47.8028 22.144 47.3762 22.7498 47.2297C23.4387 47.0732 24.1434 46.9979 24.8497 47.0053C29.5568 46.988 34.265 46.988 38.9745 47.0053C40.6746 47.0336 42.3343 46.4839 43.6841 45.4454C49.2376 41.2611 53.539 36.0047 56.9538 29.9768C57.4949 29.0216 57.2308 28.3428 56.2151 27.9366C54.1503 27.1353 51.5978 27.8179 50.6855 29.7913C49.2671 32.8535 46.8219 34.5599 43.8853 35.784C43.3313 36.014 43.0543 36.231 43.1189 36.9766C43.1696 37.4713 43.1209 37.9711 42.9754 38.4464C42.83 38.9217 42.5909 39.3628 42.2723 39.7434C41.9537 40.1241 41.5622 40.4365 41.121 40.6622C40.6798 40.8879 40.1979 41.0222 39.704 41.0571C37.7463 41.211 35.7721 41.1517 33.8033 41.1647C31.7108 41.1795 29.6183 41.1647 27.524 41.1647C26.8609 41.1647 26.2016 41.0497 26.2127 40.2262C26.2238 39.4027 26.8794 39.2988 27.5443 39.2988C31.1752 39.2988 34.8074 39.2988 38.4408 39.2988C40.2581 39.2988 41.2406 38.5569 41.2111 37.2011C41.1889 35.9677 40.2286 35.3055 38.463 35.3037C36.5237 35.3037 34.5845 35.3315 32.6471 35.3037C30.7098 35.2758 29.0199 34.6155 27.4667 33.4192C26.728 32.8443 25.7454 32.3064 24.8423 32.2489C22.6363 32.1 20.4216 32.1435 18.2231 32.3787C17.211 32.4937 16.1787 33.1744 15.331 33.8273C14.1416 34.7546 13.1147 35.8675 12.0251 36.921C11.5283 37.3995 10.9742 37.6759 10.4146 37.138C9.85497 36.6001 10.1025 36.0251 10.614 35.5429C11.7776 34.4412 12.9097 33.3024 14.1083 32.2396C15.4824 31.0192 17.115 30.2884 18.9545 30.242C21.0729 30.1901 23.2189 30.1029 25.3077 30.3719C26.5876 30.5369 27.8638 31.2065 29.0015 31.8928C30.3367 32.7014 31.6942 33.1911 33.2493 33.1911C35.1257 33.1911 37.0039 33.2041 38.8803 33.1911C39.9323 33.1514 40.9661 33.4747 41.8095 34.1073C41.9259 34.1776 42.0566 34.2206 42.1919 34.2331C42.3271 34.2457 42.4635 34.2274 42.5907 34.1797C43.854 33.5491 45.0988 32.8814 46.3343 32.1969C47.5699 31.5125 48.0795 30.2439 48.7038 29.0828C50.3124 26.0874 54.0486 24.8039 57.107 26.2154C58.8615 27.024 59.532 28.8788 58.6104 30.5295C55.0164 36.9618 50.4344 42.5446 44.5151 46.9719C43.0709 48.0514 41.4788 48.6987 39.6578 48.7005C37.2889 48.7005 34.9194 48.7005 32.5493 48.7005L32.5345 48.7321Z" fill="#0083BF" stroke="#0083BF" stroke-width="0.3"/>
<path d="M12.9578 20.5176C12.9578 18.2363 13.5451 17.0845 15.0521 16.6523C15.8529 16.4338 16.6732 16.2952 17.5011 16.2387C18.3026 16.172 18.8937 15.9568 19.2206 15.1259C19.5733 14.2319 19.9057 13.4288 19.0525 12.5978C18.5298 12.0859 18.1291 11.446 17.6932 10.8469C16.8455 9.6766 16.912 8.27813 17.8779 7.20238C18.4744 6.53652 19.0913 5.88734 19.7247 5.266C20.506 4.51112 21.736 4.44435 22.6982 5.10278C23.5108 5.65921 24.2828 6.27498 25.0991 6.83697C26.1131 7.54178 28.054 6.75536 28.2923 5.53865C28.4881 4.54079 28.6137 3.52996 28.815 2.53581C28.9085 1.96703 29.1929 1.44745 29.6208 1.06321C30.0488 0.678982 30.5947 0.453177 31.1679 0.423243C31.9959 0.354016 32.8275 0.338528 33.6575 0.376874C35.2661 0.454774 36.3114 1.44892 36.5626 3.06441C36.6864 3.85454 36.7842 4.65023 36.9412 5.43479C37.1961 6.70901 39.1575 7.46017 40.2213 6.69972C40.9212 6.19709 41.6008 5.66663 42.3119 5.17883C43.5714 4.31266 45.0046 4.41652 46.1091 5.44776C46.6262 5.93186 47.1285 6.43635 47.6068 6.95939C48.6097 8.0537 48.715 9.35944 47.8747 10.591C47.3391 11.3811 46.7425 12.1304 46.194 12.9131C45.531 13.8609 46.2716 15.7788 47.4001 16.0125C48.3918 16.2165 49.3983 16.3426 50.3882 16.5485C50.9683 16.6511 51.4956 16.951 51.8817 17.3978C52.2677 17.8446 52.489 18.4111 52.5084 19.0023C52.5583 19.8036 52.562 20.6085 52.5343 21.4135C52.4789 22.9418 51.5333 24.0306 50.0373 24.2865C49.2838 24.4163 48.5174 24.4961 47.7527 24.5573C46.2568 24.676 45.326 26.5586 46.1404 27.8439C46.2716 28.0535 46.532 28.2779 46.5098 28.4671C46.4563 28.9104 46.375 29.4594 46.0869 29.7228C45.9151 29.8786 45.1967 29.7024 44.9474 29.452C43.8023 28.2983 43.6546 27.0408 44.1975 25.4105C44.9252 23.2089 46.4969 22.7656 48.4065 22.506C50.6394 22.2018 51.1602 21.4283 50.5895 19.2453C50.5027 18.9077 50.0022 18.5423 49.6273 18.444C48.6226 18.1807 47.5607 18.1343 46.5597 17.8598C44.2289 17.2217 43.0691 13.8591 44.4598 11.8893C44.9935 11.1344 45.555 10.4055 46.1036 9.66362C46.4932 9.13687 46.4729 8.67318 45.9705 8.20207C43.8263 6.21748 44.2769 6.17855 41.9166 7.87194C41.2739 8.33377 40.611 8.87166 39.8741 9.08124C37.8314 9.66735 35.1645 7.69759 34.9318 5.56833C34.8506 4.82643 34.701 4.10865 34.5809 3.37788C34.5728 3.25557 34.5415 3.13594 34.4886 3.02547C33.7775 1.88665 32.6527 2.46905 31.7053 2.40413C31.0257 2.35591 30.7173 2.81773 30.6452 3.52996C30.5437 4.53894 30.3238 5.53494 30.1355 6.53465C30.0916 6.77688 30.0093 7.01049 29.8917 7.22649C28.8741 9.03487 25.6605 9.70443 23.9928 8.46917C23.3261 7.97395 22.652 7.48801 21.9835 6.99465C21.4848 6.62369 21.0176 6.66821 20.5706 7.08367L20.506 7.14858C18.5113 9.14615 18.4947 8.80672 20.1144 10.9193C21.0729 12.1657 21.832 13.3416 21.3094 15.1185C20.6279 17.4332 19.1152 18.2715 16.9138 18.4366C14.7548 18.6035 14.125 19.5884 14.7696 21.7177C14.8675 22.0441 15.3088 22.3965 15.656 22.4874C16.633 22.7396 17.6451 22.8583 18.6387 23.0438C19.1274 23.1239 19.5858 23.3341 19.9662 23.6525C20.3465 23.9708 20.635 24.3858 20.8015 24.8541C21.1041 25.5581 21.3511 26.2849 21.5402 27.0278C21.6787 27.6547 21.5661 28.3262 20.7516 28.4393C19.9371 28.5524 19.7137 28.0183 19.6435 27.3005C19.4736 25.5607 18.9454 24.9987 17.2813 24.6853C16.7384 24.5851 16.1935 24.4998 15.6523 24.3996C13.715 24.0287 12.9615 23.1273 12.9541 21.1798L12.9578 20.5176Z" fill="#0083BF" stroke="#0083BF" stroke-width="0.3"/>
<path d="M32.5858 29.9212C27.2299 29.9212 22.9231 25.6552 22.9268 20.3469C22.9305 15.0386 27.2706 10.8228 32.6413 10.8265C38.012 10.8302 42.3373 15.1314 42.3189 20.4861C42.3004 25.6441 37.89 29.9286 32.5858 29.9212ZM32.6468 28.0664C36.8946 28.0664 40.3575 24.6147 40.3778 20.3915C40.3982 16.1682 36.8688 12.6645 32.5877 12.6775C28.3603 12.6924 24.8696 16.1552 24.8475 20.3581C24.8253 24.5609 28.3621 28.0757 32.6468 28.0664Z" fill="#0083BF" stroke="#0083BF" stroke-width="0.3"/>
<path d="M21.5178 51.9946C21.0634 52.8608 20.779 53.7436 20.225 54.3742C19.1058 55.641 17.824 56.7687 16.6254 57.9576C16.0473 58.527 15.5173 58.4714 14.9521 57.9131C10.1503 53.139 5.34109 48.3667 0.52446 43.5963C-0.197665 42.8803 -0.182905 42.5557 0.555842 41.825C1.71567 40.6762 2.88099 39.5337 4.0519 38.3974C5.48322 37.0174 7.32831 36.9544 8.73932 38.3325C12.6362 42.1421 16.5078 45.9753 20.3542 49.8319C20.8806 50.3643 21.0985 51.197 21.5178 51.9946ZM2.54492 42.4574L15.907 56.4293C17.0151 55.1773 17.9847 54.0942 18.9507 53.0147C19.6081 52.2728 19.6063 51.6403 18.8675 50.9114C15.0703 47.1734 11.2664 43.4435 7.45571 39.7217C6.73728 39.0187 6.07238 39.0169 5.3521 39.7013C4.34926 40.6546 3.37601 41.6395 2.54492 42.4574Z" fill="#0083BF" stroke="#0083BF" stroke-width="0.3"/>
</g>
<defs>
<clipPath id="clip0_1477_136">
<rect width="59" height="58" fill="white" transform="translate(0 0.360107)"/>
</clipPath>
</defs>
</svg>
