<svg width="71" height="71" viewBox="0 0 71 71" fill="none" xmlns="http://www.w3.org/2000/svg">
<g clip-path="url(#clip0_1464_74)">
<path d="M9.89115 43.7484H33.6635C33.919 43.7358 34.175 43.7409 34.4297 43.7637C35.1223 43.8589 35.5468 44.3562 35.5299 45.0131C35.5131 45.67 35.0518 46.1167 34.35 46.1796C34.1723 46.195 33.993 46.1796 33.8137 46.1796H7.69072C6.32543 46.1796 5.96383 45.822 5.96383 44.4728V7.56384C5.95232 7.38496 5.95232 7.20552 5.96383 7.02664C6.04198 6.42343 6.36683 6.04432 6.99201 5.98446C7.6172 5.9246 8.09985 6.17018 8.26381 6.81636C8.33338 7.13997 8.36324 7.47088 8.35269 7.80175C8.35269 15.3226 8.35269 22.8435 8.35269 30.3643V31.1809L8.52893 31.2776C9.57704 30.2154 10.6742 29.1932 11.6579 28.0774C12.3704 27.2716 13.0968 27.1288 14.0974 27.4496C15.9515 28.0436 17.8393 28.5317 19.7149 29.0612C19.9263 29.1211 20.1423 29.1625 20.4074 29.2239C20.8595 26.9723 21.2962 24.7866 21.736 22.6025C21.9781 21.4038 22.2156 20.205 22.4746 19.0094C22.7014 17.9611 23.0691 17.6756 24.1356 17.8137C26.0311 18.0593 27.9189 18.3494 29.8052 18.6241C30.2066 18.6824 30.6127 18.8221 31.0065 18.793C31.1412 18.7639 31.2687 18.7082 31.3815 18.6292C31.4944 18.5501 31.5904 18.4492 31.6639 18.3325C33.3035 15.7493 34.9369 13.1615 36.5275 10.5476C36.698 10.2379 36.9378 9.97199 37.2281 9.77067C37.5184 9.56935 37.8513 9.43812 38.2007 9.38727C43.7447 8.36965 49.2855 7.32594 54.8279 6.29298C55.4271 6.18246 56.0262 6.04433 56.6315 5.986C57.3976 5.92307 57.9156 6.34055 58.0106 7.00055C58.0964 7.56845 57.6765 8.1517 56.9717 8.29598C54.9291 8.71346 52.8803 9.10025 50.8316 9.48397C46.9181 10.2161 42.9984 10.9252 39.091 11.6865C38.7846 11.7464 38.4459 12.0733 38.2605 12.3649C36.5749 15.0095 34.9231 17.674 33.2575 20.3294C32.6231 21.3408 32.3381 21.436 31.175 21.2503C29.0298 20.9218 26.8938 20.6271 24.6505 20.3033C24.3869 21.5741 24.1264 22.8097 23.8843 24.0468C23.4246 26.2847 22.994 28.5256 22.5297 30.7619C22.3075 31.8363 21.7636 32.1432 20.6909 31.8363C18.4737 31.207 16.2564 30.5792 14.0468 29.9238C13.5871 29.7872 13.273 29.8348 12.9159 30.2062C11.5506 31.6229 10.1394 32.9951 8.75571 34.3949C8.58563 34.5668 8.3711 34.8047 8.36803 35.0089C8.34045 37.173 8.35116 39.3372 8.35116 41.7454C9.20926 40.7861 9.91413 40.0018 10.6175 39.2159C12.2494 37.3879 13.8874 35.5629 15.5086 33.7242C15.9852 33.1854 16.4878 33.0227 17.2034 33.2391C19.2904 33.8684 21.4019 34.4103 23.4859 35.0426C24.059 35.2161 24.2689 35.0933 24.5003 34.5576C25.7445 31.6843 27.0547 28.8402 28.2974 25.9623C28.6498 25.1473 29.1539 24.8096 30.0473 24.8219C32.9326 24.8603 35.8195 24.8219 38.7049 24.8511C39.2657 24.8511 39.4848 24.6592 39.6672 24.1604C40.6111 21.5818 41.5657 19.0063 42.5786 16.4584C42.7517 16.0256 43.2053 15.5206 43.6282 15.3994C47.8513 14.1975 52.0943 13.0664 56.3342 11.9244C57.1678 11.7003 57.7884 12.061 57.9738 12.8238C58.127 13.4286 57.6673 14.0333 56.9012 14.2451C53.1071 15.2781 49.3146 16.3203 45.513 17.3256C44.9092 17.4791 44.5936 17.7738 44.3775 18.3709C43.4489 20.9556 42.4637 23.5188 41.4937 26.0866C41.1244 27.0659 40.844 27.2547 39.7836 27.2562C36.8968 27.2562 34.0114 27.2731 31.126 27.2424C30.5621 27.2424 30.2771 27.3959 30.0457 27.9285C28.7509 30.9169 27.4132 33.8869 26.0862 36.863C25.6541 37.8299 25.2496 38.0218 24.2183 37.7332C21.975 37.104 19.7363 36.4532 17.4869 35.8438C17.254 35.7809 16.8571 35.8438 16.71 36.0142C14.5188 38.4377 12.3566 40.8889 10.1884 43.334C10.1286 43.446 10.0582 43.5427 9.89115 43.7484Z" fill="black"/>
<path d="M32.0301 0.0153423C40.9666 0.0153423 49.9031 0.0445086 58.8457 -2.62086e-06C61.8674 -0.0153513 63.959 2.36984 63.9253 5.01749C63.8349 12.1777 63.8748 19.3394 63.9177 26.5057C63.9177 27.4818 63.0259 28.151 62.2751 27.7504C61.9785 27.5757 61.7455 27.3105 61.61 26.9937C61.4798 26.6868 61.4936 26.2938 61.4936 25.9393C61.4936 19.0324 61.4522 12.1255 61.5165 5.21855C61.5334 3.42122 60.355 2.41741 58.6971 2.42048C40.8752 2.46448 23.0528 2.46448 5.22988 2.42048C3.52288 2.42048 2.40886 3.60847 2.41499 5.25232C2.463 19.1142 2.463 32.9762 2.41499 46.8381C2.41499 48.6477 3.56423 49.7267 5.28502 49.7206C15.0382 49.6914 24.7914 49.7068 34.5523 49.7068C34.7316 49.7068 34.9109 49.7068 35.0886 49.7068C35.9299 49.7236 36.4677 50.2086 36.4524 50.9193C36.434 51.5931 35.9038 52.0351 35.0886 52.0351H17.3137C13.204 52.0351 9.08977 51.9446 4.98316 52.0674C2.39814 52.1441 -0.0244521 50.0122 0.00925887 47.033C0.0659547 42.0462 0.024597 37.0563 0.024597 32.0711C0.024597 23.0952 0.024597 14.1182 0.024597 5.14027C0.024597 2.0383 2.04725 0.0153423 5.1502 0.0153423H32.0301Z" fill="black"/>
<path d="M45.5743 59.0065C44.8081 59.7939 44.042 60.5767 43.2635 61.3672C44.0772 62.5429 44.0588 62.7485 42.9954 63.8229C41.1351 65.6853 39.2744 67.5471 37.4132 69.4083C34.4711 72.343 29.6075 71.046 28.5854 67.0185C28.1166 65.1767 28.5487 63.4684 29.8971 62.087C31.8616 60.0763 33.8612 58.0963 35.8563 56.1225C36.6071 55.3781 37.0822 55.4073 37.9832 56.144L40.3674 53.7481C37.7211 49.3292 37.0561 44.4866 38.8428 39.4062C40.1698 35.632 42.6031 32.7219 46.0447 30.7005C49.2363 28.8024 52.9739 28.0383 56.6528 28.5319C60.3317 29.0254 63.7368 30.7478 66.3173 33.4202C72.2336 39.5029 72.3439 48.5832 67.7898 54.8102C63.4212 60.7762 54.097 64.1698 45.5743 59.0065ZM54.474 59.114C62.2321 59.114 68.6265 52.7519 68.6219 45.0239C68.6219 36.9888 62.0038 30.8846 54.595 30.8094C46.7327 30.7296 40.2188 37.2559 40.2724 45.0131C40.2968 48.7683 41.8058 52.3607 44.469 55.0036C47.1323 57.6466 50.7327 59.1246 54.4816 59.114H54.474ZM40.7934 62.572L36.7236 58.4816C35.1637 60.1009 33.5716 61.7509 31.9826 63.4039C31.7641 63.6206 31.5594 63.8507 31.3697 64.0931C30.9452 64.6433 30.7457 65.3347 30.8118 66.0268C30.8778 66.719 31.2044 67.36 31.7252 67.8197C32.2498 68.3188 32.9474 68.5943 33.6708 68.5883C34.3943 68.5823 35.0872 68.2952 35.6035 67.7875C37.3948 66.0715 39.1063 64.2788 40.7934 62.572ZM41.9611 55.9337L39.8955 57.9382C40.3981 58.4847 40.893 59.0234 41.3114 59.4731L43.478 57.467L41.9611 55.9337Z" fill="black"/>
<path d="M54.4111 56.784C48.242 56.8838 42.5892 51.7681 42.5892 44.8965C42.5892 38.4224 47.934 33.144 54.4724 33.1424C60.784 33.1424 66.2835 38.1216 66.2866 44.9609C66.2975 46.5227 65.9973 48.071 65.4034 49.5151C64.8096 50.9592 63.9341 52.2702 62.8282 53.3712C61.7223 54.4722 60.4083 55.3411 58.963 55.9272C57.5177 56.5132 55.9702 56.8045 54.4111 56.784ZM54.3927 54.3574C59.3451 54.5462 63.8395 50.3667 63.8778 45.1037C63.9161 39.7915 59.6378 35.4693 54.4157 35.5276C48.7277 35.5906 45.018 40.3364 44.9996 44.921C44.9812 50.1933 49.5015 54.5262 54.3927 54.3574Z" fill="black"/>
</g>
<defs>
<clipPath id="clip0_1464_74">
<rect width="71" height="71" fill="white"/>
</clipPath>
</defs>
</svg>
