<svg width="61" height="61" viewBox="0 0 61 61" fill="none" xmlns="http://www.w3.org/2000/svg">
<g clip-path="url(#clip0_1464_53)">
<path d="M48.423 5.75183C48.2477 4.45672 48.1028 3.3292 47.937 2.20359C47.8605 1.7309 47.9669 1.24682 48.2345 0.8496C48.502 0.452383 48.9108 0.171789 49.3779 0.0647502C49.6052 0.0193032 49.8393 0.019607 50.0665 0.0656452C50.2937 0.111683 50.5095 0.202529 50.7011 0.332873C50.8928 0.463217 51.0565 0.630446 51.1827 0.82477C51.309 1.01909 51.3951 1.23661 51.4362 1.46461C51.8593 4.31641 52.2405 7.17329 52.5798 10.0352C52.641 10.4855 52.5209 10.9417 52.2457 11.3035C51.9705 11.6653 51.5628 11.9031 51.1122 11.9646C48.261 12.3811 45.4022 12.7658 42.5357 13.1188C41.6342 13.2311 40.7175 12.4065 40.605 11.4923C40.4926 10.5781 41.1863 9.71527 42.1907 9.55719C43.5878 9.33816 44.9943 9.17627 46.5876 8.95344C44.5876 7.41806 42.3661 6.19474 39.999 5.32521C24.4374 -0.388542 7.77412 8.69442 4.20248 24.872C2.91981 30.6828 3.56212 36.3299 6.03978 41.7523C6.39047 42.5141 6.58487 43.354 5.94067 43.9673C5.54044 44.3482 4.78381 44.6663 4.28828 44.5558C3.7451 44.4339 3.13137 43.8816 2.87598 43.3559C1.35336 40.1834 0.425142 36.7589 0.137239 33.2521C-0.34114 27.9193 0.415496 22.7902 2.70638 17.9774C7.36057 8.19732 15.0318 2.20169 25.7677 0.432333C33.7839 -0.887543 41.1882 0.885624 47.9008 5.47948C48.0323 5.55757 48.1752 5.61851 48.423 5.75183Z" fill="black"/>
<path d="M14.4657 52.098C16.9917 54.0297 19.8593 55.4687 22.9184 56.3395C35.9985 60.1182 49.6923 53.7473 55.1489 41.2533C58.3489 33.9283 58.1983 26.5518 54.9583 19.2439C54.236 17.6136 55.0555 16.229 56.6565 16.387C57.4493 16.467 57.8648 16.987 58.1812 17.6593C59.6561 20.8528 60.5684 24.2767 60.878 27.7803C61.3735 33.3778 60.4968 38.7373 57.9772 43.7407C53.2125 53.1683 45.6213 58.9183 35.137 60.5981C27.2142 61.8685 19.907 60.1125 13.2498 55.6462C13.0725 55.5281 12.8819 55.4253 12.6055 55.2653C12.7618 56.4918 12.8876 57.6137 13.0535 58.7297C13.2155 59.802 12.6284 60.7429 11.6259 60.9505C10.6234 61.1581 9.70668 60.461 9.54658 59.3506C9.15397 56.6233 8.78235 53.8934 8.43166 51.1609C8.28491 50.0182 8.97102 49.1649 10.0917 49.0126C12.8527 48.6316 15.615 48.2609 18.3785 47.9003C19.2838 47.7822 20.2063 48.5059 20.3816 49.4354C20.5474 50.3115 19.8765 51.2809 18.9007 51.4466C17.5895 51.6675 16.2649 51.8161 14.9479 51.9989C14.824 52.0104 14.7154 52.0427 14.4657 52.098Z" fill="black"/>
<path d="M44.1309 23.4397H39.7664H35.8936C35.0741 23.4397 34.9693 23.3311 34.9712 22.5293C34.9712 19.9899 34.9712 17.4568 34.9712 14.93V14.3072H21.4393V15.0386C21.4393 17.7393 21.4393 20.4394 21.4393 23.1388V23.3673C21.4393 23.7482 21.2678 23.9939 20.8676 23.9825C20.4673 23.9711 20.3416 23.7235 20.3416 23.3711C20.3416 22.3541 20.3416 21.337 20.3416 20.3238V14.0387C20.3416 13.3397 20.4616 13.2083 21.1554 13.2083C25.8629 13.2083 30.5698 13.2121 35.2761 13.2197C35.5694 13.2332 35.8486 13.3492 36.0652 13.5473C39.0345 16.4804 41.99 19.4267 44.9314 22.3865C45.1111 22.5807 45.2158 22.8325 45.2268 23.0969C45.2445 28.511 45.249 33.9263 45.2401 39.343C45.2401 41.1638 45.2401 42.9845 45.2401 44.8034C45.2401 45.4776 45.1086 45.6014 44.4358 45.6014H33.639C33.5494 45.6014 33.4483 45.6014 33.3664 45.6014C33.031 45.5843 32.8118 45.43 32.808 45.0739C32.8013 45.001 32.8107 44.9276 32.8355 44.8587C32.8603 44.7899 32.8999 44.7273 32.9515 44.6753C33.0031 44.6234 33.0654 44.5834 33.1342 44.5582C33.2029 44.5329 33.2763 44.523 33.3493 44.5291C33.6961 44.5139 34.0468 44.5139 34.3956 44.5139H43.7345C43.8545 44.5139 43.9727 44.5006 44.1157 44.4911L44.1309 23.4397ZM36.0785 22.3198H43.1684L36.0785 15.1795V22.3198Z" fill="black" stroke="black"/>
<path d="M14.9422 35.3338C14.9422 32.4681 14.9422 29.601 14.9422 26.7327C14.9322 26.5119 14.9684 26.2914 15.0483 26.0852C15.1283 25.8791 15.2503 25.6919 15.4067 25.5355C15.563 25.3791 15.7502 25.2569 15.9564 25.1768C16.1626 25.0966 16.3832 25.0603 16.6042 25.07C21.0373 25.07 25.4698 25.07 29.9016 25.07C31.0699 25.07 31.7179 25.71 31.7179 26.8699C31.7255 32.5265 31.7255 38.1837 31.7179 43.8416C31.7179 44.9367 31.0489 45.5881 29.9512 45.5881H16.9701C16.8653 45.5881 16.7586 45.5881 16.6518 45.5881C15.5502 45.5519 14.9365 44.9386 14.9365 43.8378C14.9365 41.1549 14.9365 38.4707 14.9365 35.7852V35.33L14.9422 35.3338ZM16.0324 35.2633V43.6816C16.0324 44.3692 16.1697 44.5101 16.8577 44.5082H29.8825C30.4753 44.5082 30.6449 44.3463 30.6449 43.7464C30.6449 38.1507 30.6449 32.5544 30.6449 26.9575C30.6449 26.3156 30.481 26.1575 29.833 26.1575H16.7643C16.1925 26.1575 16.0439 26.308 16.0439 26.8908C16.035 29.6829 16.0337 32.4738 16.04 35.2633H16.0324Z" fill="black" stroke="black"/>
<path d="M28.2092 18.0478H33.0806C33.1873 18.0478 33.3284 18.0116 33.3932 18.0631C33.5838 18.2116 33.8506 18.3964 33.8563 18.5716C33.862 18.7468 33.6142 18.9811 33.4237 19.1049C33.2941 19.1887 33.0711 19.1353 32.89 19.1353H23.3243C23.2043 19.1353 23.0404 19.1696 22.9699 19.1068C22.8002 18.9487 22.5886 18.7601 22.5486 18.5545C22.4933 18.2707 22.7202 18.0859 23.0175 18.0535C23.1686 18.0459 23.32 18.0459 23.4711 18.0535H28.2092V18.0478Z" fill="black" stroke="black"/>
<path d="M28.1806 23.4416H23.2253C22.7545 23.4416 22.5201 23.2664 22.5373 22.914C22.5582 22.4817 22.8498 22.3655 23.2253 22.3655H33.1931C33.5743 22.3655 33.8563 22.4988 33.8906 22.914C33.9173 23.2435 33.6486 23.4397 33.1931 23.4416C31.5197 23.4442 29.8489 23.4442 28.1806 23.4416Z" fill="black" stroke="black"/>
<path d="M37.9825 35.3434H42.3413C42.8292 35.3434 43.1036 35.5338 43.0827 35.8747C43.0522 36.2938 42.7663 36.4195 42.3851 36.4195C39.4157 36.4195 36.4457 36.4195 33.4751 36.4195C33.0462 36.4195 32.768 36.1795 32.8023 35.8481C32.8404 35.4519 33.1091 35.3395 33.4751 35.3415C34.9769 35.3415 36.4769 35.3415 37.9768 35.3415L37.9825 35.3434Z" fill="black" stroke="black"/>
<path d="M37.9311 26.6946H42.3413C42.8197 26.6946 43.0922 26.8965 43.0903 27.2298C43.0884 27.5631 42.8101 27.786 42.3489 27.786H33.5742C33.5151 27.786 33.4541 27.786 33.3931 27.786C33.0463 27.7517 32.8061 27.5841 32.8214 27.2146C32.8366 26.8451 33.0787 26.6946 33.4351 26.6946H37.9311Z" fill="black" stroke="black"/>
<path d="M37.9291 32.0922H33.4274C33.0729 32.0922 32.827 31.9475 32.8175 31.5704C32.808 31.1933 33.0653 31.0161 33.4331 30.999H33.6237H38.0816H42.2193C42.3108 30.999 42.4099 30.999 42.4937 30.999C42.8482 31.0161 43.0845 31.2028 43.0864 31.5551C43.0883 31.9075 42.8444 32.0884 42.4861 32.0903H37.9367L37.9291 32.0922Z" fill="black" stroke="black"/>
<path d="M37.9368 40.7333C36.4673 40.7333 34.996 40.7333 33.5266 40.7333C33.0463 40.7333 32.7871 40.5295 32.8138 40.162C32.8462 39.7296 33.1454 39.6344 33.5189 39.6363H42.2498C42.3413 39.6363 42.4404 39.6363 42.5224 39.6363C42.8616 39.6591 43.0789 39.8401 43.077 40.1753C43.0751 40.5105 42.8464 40.7181 42.4843 40.72H39.6254H37.9425L37.9368 40.7333Z" fill="black" stroke="black"/>
<path d="M23.353 27.2394H28.8095C29.3813 27.2394 29.549 27.4012 29.5509 27.9593C29.5509 28.9154 29.5509 29.8677 29.5509 30.8162C29.5509 31.3551 29.3832 31.5323 28.8476 31.5323C25.1464 31.5323 21.4445 31.5323 17.742 31.5323C17.2903 31.5323 17.0959 31.3418 17.0902 30.9057C17.0806 29.9039 17.0902 28.904 17.0902 27.9041C17.0902 27.4089 17.2808 27.2336 17.7934 27.2336C19.6441 27.2336 21.4966 27.2336 23.3472 27.2336L23.353 27.2394ZM28.4455 28.365H18.207V30.4295H28.4455V28.365Z" fill="black"/>
<path d="M25.7467 39.9563C25.7467 39.0325 25.7467 38.1088 25.7467 37.1851C25.7467 36.5852 25.9087 36.4233 26.4957 36.4233C27.2981 36.4233 28.1024 36.4233 28.9048 36.4233C29.3412 36.4233 29.547 36.6271 29.5489 37.0651C29.5489 38.9697 29.5489 40.8774 29.5489 42.7884C29.5489 43.2512 29.347 43.4474 28.88 43.4512C28.0757 43.4512 27.2727 43.4512 26.4709 43.4512C25.9506 43.4512 25.7524 43.2607 25.7486 42.737C25.741 41.8018 25.7467 40.8781 25.7467 39.9563ZM28.4512 37.4803C28.03 37.4803 27.6526 37.4993 27.279 37.4803C26.9398 37.4574 26.8349 37.5736 26.8388 37.9145C26.8559 39.2611 26.8388 40.6076 26.8388 41.9542C26.8455 42.0821 26.8614 42.2094 26.8864 42.3351H28.4455L28.4512 37.4803Z" fill="black"/>
<path d="M19.0075 32.6312C19.4191 32.6312 19.8289 32.6312 20.2387 32.6312C20.6999 32.6427 20.8848 32.8217 20.8924 33.2598C20.9038 33.9283 20.8924 34.5929 20.8924 35.2634C20.9016 35.3437 20.8929 35.4252 20.867 35.5018C20.8411 35.5785 20.7986 35.6485 20.7426 35.7068C20.6865 35.7652 20.6183 35.8105 20.5427 35.8395C20.4671 35.8686 20.3861 35.8806 20.3054 35.8747C19.4401 35.8938 18.5748 35.8919 17.7096 35.8747C17.6292 35.8805 17.5486 35.8691 17.4729 35.8415C17.3972 35.8139 17.3283 35.7706 17.2705 35.7145C17.2127 35.6584 17.1675 35.5908 17.1377 35.516C17.108 35.4412 17.0943 35.3609 17.0978 35.2805C17.0844 34.5815 17.0825 33.8845 17.0978 33.1855C17.0932 33.1086 17.1054 33.0317 17.1336 32.96C17.1617 32.8883 17.2052 32.8236 17.2608 32.7703C17.3165 32.7171 17.383 32.6766 17.4559 32.6516C17.5288 32.6265 17.6062 32.6177 17.6829 32.6255C18.1365 32.6274 18.5672 32.6312 19.0075 32.6312ZM19.7698 34.7853V33.7588H18.2127V34.7853H19.7698Z" fill="black"/>
<path d="M27.6355 32.6236C28.0605 32.6236 28.4836 32.6236 28.9067 32.6236C29.3298 32.6236 29.5471 32.8274 29.5528 33.2635C29.5528 33.9282 29.5528 34.5968 29.5528 35.2596C29.5607 35.3431 29.5501 35.4274 29.5217 35.5065C29.4933 35.5855 29.4478 35.6573 29.3885 35.7168C29.3291 35.7762 29.2575 35.8219 29.1785 35.8505C29.0995 35.8791 29.0151 35.89 28.9314 35.8823C28.0827 35.8938 27.2346 35.8938 26.3871 35.8823C26.3027 35.8918 26.2173 35.8823 26.137 35.8546C26.0567 35.8269 25.9837 35.7817 25.9231 35.7222C25.8625 35.6627 25.8159 35.5905 25.7867 35.5108C25.7575 35.4311 25.7465 35.346 25.7543 35.2615C25.7448 34.5796 25.7429 33.8997 25.7543 33.2197C25.7639 32.816 26.004 32.6236 26.4042 32.6236H27.6298H27.6355ZM28.434 34.7815V33.7511H26.8712V34.7815H28.434Z" fill="black"/>
<path d="M18.9979 40.1791C19.4058 40.1791 19.8155 40.1791 20.2234 40.1791C20.6961 40.1791 20.8886 40.3695 20.8924 40.84C20.9019 41.4894 20.8924 42.1389 20.8924 42.7903C20.8924 43.1998 20.6827 43.4169 20.2844 43.4226C19.4229 43.434 18.5602 43.434 17.6962 43.4226C17.6159 43.4301 17.5349 43.4199 17.459 43.3928C17.383 43.3657 17.3139 43.3223 17.2565 43.2657C17.1991 43.2091 17.1548 43.1406 17.1268 43.065C17.0987 42.9895 17.0875 42.9087 17.0939 42.8284C17.0825 42.1484 17.0939 41.4666 17.0939 40.7866C17.0939 40.3886 17.3131 40.1753 17.7229 40.1753L18.9979 40.1791ZM19.7812 41.3047H18.1994V42.3141H19.7812V41.3047Z" fill="black"/>
<path d="M23.309 32.6274H24.5822C24.9862 32.6274 25.2073 32.8312 25.2092 33.2407C25.2092 33.9073 25.2092 34.5739 25.2092 35.2424C25.2092 35.6766 24.9786 35.8842 24.5612 35.8862C23.7264 35.8862 22.8916 35.8862 22.0569 35.8862C21.6585 35.8862 21.4336 35.6786 21.4317 35.2691C21.4317 34.6025 21.4222 33.9359 21.4317 33.2673C21.4317 32.8179 21.6223 32.6446 22.0778 32.6369C22.4876 32.6369 22.8973 32.6369 23.3071 32.6369L23.309 32.6274ZM24.1228 33.7549H22.5619V34.7643H24.1228V33.7549Z" fill="black"/>
<path d="M23.3739 40.1924C23.7684 40.1924 24.1629 40.1924 24.5575 40.1924C25.0206 40.1924 25.1979 40.3619 25.2074 40.8171C25.2207 41.4837 25.2074 42.1503 25.2074 42.8169C25.2074 43.2283 24.9844 43.434 24.5861 43.4378C23.7227 43.4378 22.8574 43.4474 21.994 43.4378C21.9173 43.4445 21.84 43.4343 21.7676 43.408C21.6952 43.3816 21.6294 43.3397 21.5749 43.2853C21.5204 43.2308 21.4785 43.1651 21.4522 43.0928C21.4258 43.0204 21.4156 42.9432 21.4223 42.8665C21.4223 42.1846 21.4223 41.5028 21.4223 40.8209C21.4223 40.4076 21.6472 40.2096 22.0455 40.2019C22.4839 40.2019 22.9241 40.2019 23.3644 40.2019L23.3739 40.1924ZM24.1077 42.3446V41.3218H22.5582V42.3541L24.1077 42.3446Z" fill="black"/>
<path d="M19.0226 36.4214C19.4458 36.4214 19.8708 36.4214 20.2939 36.4214C20.3739 36.412 20.455 36.4208 20.5312 36.4471C20.6073 36.4734 20.6766 36.5165 20.7337 36.5732C20.7909 36.63 20.8344 36.6989 20.8613 36.7748C20.8881 36.8508 20.8974 36.9317 20.8885 37.0118C20.8885 37.6765 20.9038 38.345 20.8885 39.0078C20.8885 39.4572 20.698 39.6439 20.2501 39.6496C19.4039 39.661 18.5557 39.6496 17.7076 39.6496C17.2978 39.6496 17.0958 39.4306 17.0901 39.0306C17.0901 38.364 17.0901 37.6974 17.0901 37.0346C17.0901 36.6385 17.2807 36.4137 17.7038 36.4156L19.0226 36.4214ZM19.785 37.5432H18.207V38.524H19.785V37.5432Z" fill="black"/>
<path d="M23.3167 39.6553H22.0893C21.6643 39.6553 21.4337 39.4649 21.4337 39.023C21.4337 38.3564 21.4337 37.6898 21.4337 37.0232C21.4337 36.6156 21.651 36.4194 22.0608 36.4194C22.8803 36.4194 23.6979 36.4194 24.5174 36.4194C25.0625 36.4194 25.2074 36.5794 25.2112 37.1394C25.2112 37.7603 25.2112 38.3812 25.2112 39.0021C25.2112 39.4934 25.0454 39.6458 24.546 39.6515C24.1362 39.6515 23.7284 39.6515 23.3186 39.6515L23.3167 39.6553ZM24.1039 38.5469V37.5127H22.5582V38.5393L24.1039 38.5469Z" fill="black"/>
</g>
<defs>
<clipPath id="clip0_1464_53">
<rect width="61" height="61" fill="white"/>
</clipPath>
</defs>
</svg>
