<svg width="64" height="64" viewBox="0 0 64 64" fill="none" xmlns="http://www.w3.org/2000/svg">
<path d="M32.0472 63.7518C30.9448 63.7518 29.8424 63.7518 28.74 63.7518C27.3584 63.7691 26.4776 63.1471 26.0948 61.8079C25.663 60.2873 25.2889 58.7408 24.7247 57.2721C24.4307 56.5714 23.9398 55.9711 23.3114 55.5442C21.17 54.1042 19.1983 54.205 16.8841 55.6911C13.1222 58.1015 13.1596 58.4212 9.66239 54.876C5.41685 50.5735 5.60684 51.3194 8.4938 46.2796C9.6768 44.2118 9.50697 41.4875 7.94691 39.7134C7.63605 39.3563 7.0575 39.1835 6.56818 39.0367C5.10311 38.5932 3.62365 38.2073 2.14707 37.7983C0.75396 37.4124 0.0948364 36.4505 0.0746881 35.048C0.0459048 33.2241 0.0459048 31.4002 0.0746881 29.5763C0.091958 28.1162 0.759719 27.1226 2.22191 26.7309C3.71208 26.3816 5.18378 25.9577 6.6315 25.4609C7.34337 25.1656 7.95081 24.6642 8.37578 24.021C9.81495 21.8034 9.87539 19.5917 8.05341 17.4778C7.6562 17.0142 7.43743 16.3979 7.13808 15.8507C6.08749 13.9356 6.18826 13.1667 7.69938 11.6662C8.95721 10.4164 10.215 9.1665 11.4901 7.92239C12.4774 6.97203 13.5568 6.84243 14.7542 7.57392C15.6954 8.14989 16.6826 8.63948 17.6325 9.19818C18.649 9.79862 19.8273 10.0672 21.0035 9.96654C22.1796 9.86589 23.2952 9.40103 24.1951 8.6366C24.4829 8.38029 24.6239 7.91087 24.7448 7.51344C25.2169 5.9583 25.6745 4.39453 26.1005 2.82211C26.4632 1.47144 27.3785 0.806191 28.7083 0.788912C30.962 0.742834 33.2158 0.788912 35.4695 0.788912C36.4337 0.788912 37.0871 1.23241 37.0612 2.22885C37.0353 3.2253 36.3272 3.49024 35.458 3.49024C33.541 3.49024 31.6212 3.52192 29.7013 3.49024C28.8896 3.47296 28.5068 3.77823 28.314 4.5702C27.9657 6.01014 27.5023 7.42417 27.0878 8.84971C27.0187 9.0801 26.9756 9.31913 26.8863 9.538C26.089 11.4646 20.2662 13.6303 18.4269 12.6627C16.9878 11.9081 15.6004 11.0327 14.1324 10.3357C13.8914 10.2611 13.6366 10.2423 13.3873 10.2807C13.138 10.3191 12.9007 10.4138 12.6933 10.5575C11.6905 11.3765 10.7742 12.2961 9.95886 13.302C9.79686 13.5527 9.69358 13.8367 9.65669 14.133C9.61981 14.4292 9.65029 14.7299 9.74587 15.0127C10.3446 16.3633 11.1476 17.6247 11.8672 18.9235C13.1797 21.2908 10.7159 27.0938 8.10523 27.8138C6.62865 28.2227 5.14342 28.6086 3.70714 29.1356C3.48154 29.2471 3.28454 29.409 3.13133 29.6087C2.97813 29.8084 2.8728 30.0407 2.82347 30.2876C2.70785 31.629 2.70785 32.978 2.82347 34.3194C2.87524 34.5677 2.98343 34.8008 3.13966 35.0005C3.29588 35.2003 3.49596 35.3614 3.72439 35.4714C5.06569 35.9696 6.47034 36.3065 7.85194 36.7011C8.03615 36.7529 8.23476 36.7558 8.42761 36.8134C10.7044 37.5391 13.0761 43.4544 11.9276 45.5683C11.2167 46.8728 10.5057 48.1774 9.73146 49.4446C9.25366 50.225 9.27093 50.8125 9.98188 51.4605C11.09 52.4454 12.0226 54.1417 13.2344 54.3548C14.403 54.5564 15.8825 53.3411 17.1346 52.598C18.7579 51.6362 20.2431 51.3136 22.1313 52.12C27.8448 54.5621 26.2819 53.5254 28.0693 59.1988C28.5183 60.6243 28.9731 61.2982 30.5447 61.16C32.1623 61.016 33.8029 61.1225 35.4378 61.134C36.3388 61.134 37.1418 61.422 37.0986 62.4818C37.0612 63.4725 36.3531 63.821 35.3918 63.7835C34.2548 63.7202 33.1496 63.7518 32.0472 63.7518Z" fill="white"/>
<path d="M17.1979 32.2946C17.1979 22.6499 26.1812 15.7842 35.4005 18.3992C35.5415 18.4282 35.6808 18.4647 35.8178 18.5086C36.6353 18.8398 37.3175 19.3121 36.9922 20.3287C36.6842 21.2963 35.861 21.1437 35.0724 21.0861C33.1381 20.9421 31.1406 20.4929 29.2754 20.7981C22.7243 21.8838 18.6054 28.3434 20.0791 34.8635C21.5644 41.4411 28.2737 45.473 34.7183 43.6299C35.6826 43.3419 36.6094 43.1921 36.9606 44.3642C37.3117 45.5363 36.3849 45.8963 35.4494 46.1757C26.4172 48.8713 17.2095 41.8731 17.1979 32.2946Z" fill="white"/>
<path d="M35.5444 24.0553C38.7768 24.8357 41.1054 23.6348 42.7115 20.8096C42.9085 20.48 43.1539 20.182 43.4397 19.9255C44.4413 19.0039 44.6083 18.1976 43.8571 16.8469C42.3488 14.1484 43.3332 10.5601 45.774 8.71986C48.2149 6.87961 51.7868 6.95161 54.0636 8.84082C56.4411 10.8107 57.2038 14.2435 55.8597 16.9045C54.3514 19.8765 51.2975 21.3424 48.1803 20.4064C47.052 20.0666 46.4533 20.3172 45.7798 21.2013C44.6917 22.6585 43.4541 24.0063 42.3459 25.4491C42.08 25.8452 41.7157 26.1652 41.2888 26.3778C40.8618 26.5904 40.387 26.6882 39.9109 26.6615C37.3204 26.6068 34.7299 26.6414 32.1394 26.6443C31.1982 26.6443 30.3347 26.4859 30.3663 25.2936C30.3951 24.2079 31.1723 24.0293 32.0933 24.0553C33.2447 24.0898 34.396 24.0553 35.5444 24.0553ZM53.8995 13.9958C53.8703 12.9305 53.4269 11.9187 52.6636 11.1754C51.9004 10.4322 50.8774 10.0162 49.8123 10.0158C47.6334 10.0475 45.7395 11.9367 45.7625 14.0476C45.7855 16.1586 47.6852 18.0334 49.867 18.0248C50.9296 18.0122 51.9454 17.5854 52.6984 16.8352C53.4515 16.0849 53.8824 15.0704 53.8995 14.0073V13.9958Z" fill="white"/>
<path d="M36.7735 37.9018C40.0404 36.842 42.6424 38.6247 44.5882 41.83C44.7609 42.118 45.0516 42.3282 45.2185 42.6162C46.059 44.0562 47.0779 44.4766 48.8452 44.013C51.6516 43.2815 54.4954 44.9173 55.8568 47.5898C57.1319 50.0953 56.5246 53.3668 54.4177 55.3655C52.3625 57.318 49.1503 57.6867 46.5454 56.2698C45.343 55.6039 44.3836 54.5724 43.8061 53.3246C43.2286 52.0768 43.0629 50.6775 43.3332 49.3292C43.4455 48.7677 43.4829 48.0966 43.8168 47.6935C44.876 46.4205 44.1536 45.6113 43.434 44.4968C41.4192 41.3721 38.8977 39.6557 35.0235 40.4217C33.9614 40.632 32.8244 40.4448 31.722 40.4477C30.8413 40.4477 30.2368 39.9754 30.4268 39.1488C30.5391 38.6593 31.2039 37.9969 31.6789 37.9479C33.1382 37.8039 34.6349 37.9018 36.7735 37.9018ZM53.9053 50.4668C53.8706 49.4071 53.4287 48.4017 52.6717 47.6598C51.9146 46.9179 50.9008 46.4967 49.8411 46.4839C47.6939 46.4839 45.7827 48.3558 45.7597 50.4639C45.7338 52.6152 47.7342 54.5793 49.9102 54.539C52.0862 54.4986 53.9255 52.5893 53.9053 50.4668Z" fill="white"/>
<path d="M41.3069 30.9815C44.2773 30.9815 47.2506 30.9555 50.2297 30.9959C51.1594 30.9959 51.6688 30.7424 52.0632 29.8237C53.2778 27.0735 55.7244 25.7919 58.7035 26.1346C61.2508 26.4226 63.2771 28.4385 63.8528 31.2464C64.4083 33.9535 62.8454 36.7844 60.134 37.9882C57.6155 39.1027 54.055 38.4 52.9123 35.9579C51.7696 33.5158 50.1145 33.487 47.9903 33.5215C43.054 33.6022 38.1177 33.5474 33.1813 33.5474C32.7496 33.5474 32.3178 33.5474 31.8861 33.5474C30.9938 33.5474 30.3548 33.2191 30.3807 32.2342C30.4066 31.2493 31.1032 30.993 31.9695 30.9959C35.0839 30.9959 38.1992 30.9959 41.3155 30.9959L41.3069 30.9815ZM57.8112 28.7092C56.8673 28.6937 55.9554 29.0512 55.2732 29.704C54.591 30.3569 54.1936 31.2526 54.1672 32.1968C54.1614 33.1398 54.523 34.0481 55.1754 34.7287C55.8278 35.4094 56.7196 35.809 57.6615 35.8427C58.6026 35.8339 59.5051 35.467 60.1856 34.8166C60.8661 34.1662 61.2737 33.281 61.3256 32.3408C61.3218 31.3986 60.9538 30.4944 60.2987 29.8175C59.6437 29.1406 58.7523 28.7434 57.8112 28.7092Z" fill="white"/>
</svg>
