<svg width="64" height="61" viewBox="0 0 64 61" fill="none" xmlns="http://www.w3.org/2000/svg">
<g clip-path="url(#clip0_1456_49)">
<path d="M29.6241 6.49264C28.1106 8.13634 26.6086 9.78392 25.0874 11.4198C24.1924 12.3819 23.14 13.2038 21.9837 11.9846C20.9427 10.8901 21.6265 9.87351 22.5292 8.96987C25.2181 6.27841 27.907 3.59084 30.5345 0.840951C31.5524 -0.226286 32.3476 -0.327551 33.4078 0.798112C36.0775 3.59864 38.8202 6.32904 41.5475 9.07114C42.4694 9.99816 43.0033 11.0186 41.9047 12.0781C40.8675 13.0791 39.8919 12.4676 39.0776 11.599C37.5026 9.91636 35.9468 8.21813 34.0416 6.14597C33.9299 6.69052 33.8453 7.24041 33.7881 7.79356C33.7881 13.3751 33.7881 18.9606 33.7881 24.5422C33.7881 26.6065 34.733 28.1295 36.2311 29.3798C38.92 31.6117 42.189 32.1648 45.4694 32.8347C47.9471 33.3372 50.4631 33.9798 52.741 35.0743C56.1982 36.7375 57.8845 39.8379 57.9422 43.7213C57.9614 44.8275 58.1765 45.4117 59.2789 45.8947C60.486 46.4325 61.5382 47.2731 62.3361 48.3374C63.1341 49.4016 63.6515 50.6544 63.8397 51.9776C64.028 53.3008 63.8808 54.6508 63.412 55.9004C62.9432 57.1499 62.1683 58.2578 61.1604 59.1196C60.1524 59.9814 58.9446 60.5687 57.6508 60.8261C56.357 61.0835 55.0199 61.0026 53.7655 60.5909C52.5111 60.1793 51.3807 59.4504 50.4811 58.4732C49.5814 57.4959 48.942 56.3024 48.6231 55.0052C48.1724 53.2281 48.362 51.3462 49.1577 49.6982C49.9534 48.0502 51.3031 46.7443 52.9638 46.0155C54.2123 45.4507 54.5004 44.7106 54.412 43.4954C54.2776 41.3336 53.4402 39.4757 51.5541 38.5175C49.6946 37.5328 47.7008 36.8345 45.6384 36.4454C41.5667 35.7754 37.6101 34.9302 34.0031 32.2387C33.9011 32.7741 33.8306 33.3152 33.7919 33.8591C33.7919 37.1036 33.8457 40.3521 33.7535 43.5967C33.715 44.8976 34.1607 45.4896 35.3207 46.0271C36.9433 46.7681 38.2603 48.0595 39.0449 49.6791C39.8295 51.2987 40.0326 53.145 39.6191 54.9C39.2353 56.589 38.3114 58.1019 36.9913 59.203C35.6712 60.3041 34.0291 60.9317 32.3207 60.9879C30.5177 61.0713 28.7425 60.5136 27.302 59.411C25.8615 58.3084 24.8461 56.7303 24.4311 54.9492C24.0161 53.1681 24.2276 51.296 25.0292 49.6563C25.8308 48.0166 27.172 46.7123 28.8212 45.9687C29.9736 45.4429 30.2694 44.8236 30.2502 43.6317C30.1888 39.9392 30.2272 36.2312 30.2272 32.2426C29.021 32.936 28.1106 33.7033 27.0735 34.011C23.7738 34.9769 20.405 35.7092 17.0861 36.6635C15.4309 37.113 13.8316 37.752 12.319 38.5682C10.6096 39.538 9.77607 41.2246 9.60322 43.2422C9.48414 44.5743 9.72606 45.4117 11.1589 46.07C12.1377 46.5242 13.0109 47.1828 13.7215 48.0027C14.432 48.8227 14.9638 49.7855 15.2822 50.8281C15.6005 51.8708 15.6982 52.9699 15.5689 54.0535C15.4395 55.137 15.086 56.1807 14.5315 57.1163C13.9794 58.051 13.2441 58.861 12.3712 59.4963C11.4983 60.1316 10.5062 60.5788 9.45617 60.8102C8.40616 61.0416 7.32053 61.0523 6.26627 60.8417C5.21201 60.6311 4.21148 60.2037 3.32649 59.5857C-1.5827 56.1815 -0.952697 48.5589 4.50964 46.0038C5.66203 45.4585 6.0461 44.8703 6.08067 43.5772C6.18055 39.0667 8.52381 35.939 12.5802 34.3966C15.1232 33.4306 17.9042 33.119 20.5547 32.4257C22.2353 32.0455 23.8795 31.515 25.4677 30.8404C28.6214 29.3759 30.4269 27.0506 30.2617 23.2218C30.0542 18.2984 30.2195 13.3595 30.2118 8.42066C30.2118 7.87535 30.1311 7.33006 30.085 6.78087L29.6241 6.49264ZM31.8367 57.4123C32.3928 57.4443 32.9497 57.3632 33.4745 57.1739C33.9993 56.9845 34.4814 56.6907 34.8926 56.3096C35.3038 55.9286 35.6357 55.4681 35.8689 54.9551C36.1021 54.4421 36.2317 53.887 36.2503 53.3225C36.2833 52.7478 36.2028 52.1723 36.0135 51.6296C35.8242 51.0868 35.53 50.5879 35.148 50.1621C34.766 49.7362 34.3039 49.392 33.789 49.1496C33.2741 48.9072 32.7167 48.7715 32.1493 48.7505C31.582 48.7295 31.0162 48.8236 30.4852 49.0273C29.9542 49.2309 29.4687 49.5401 29.057 49.9365C28.6454 50.333 28.316 50.8088 28.0882 51.3361C27.8604 51.8633 27.7387 52.4314 27.7303 53.007C27.7072 53.5716 27.7958 54.1351 27.9909 54.6643C28.1861 55.1935 28.4838 55.6778 28.8666 56.0884C29.2493 56.499 29.7094 56.8277 30.2195 57.0551C30.7296 57.2825 31.2795 57.4039 31.8367 57.4123ZM12.0501 53.1706C12.0661 52.3122 11.8297 51.4684 11.371 50.7468C10.9123 50.0251 10.2522 49.4582 9.47464 49.1184C8.69707 48.7786 7.83734 48.6812 7.00499 48.8387C6.17264 48.9962 5.40533 49.4013 4.80093 50.0026C4.19652 50.6039 3.78238 51.374 3.61121 52.2148C3.44004 53.0556 3.51964 53.9291 3.83985 54.7239C4.16006 55.5187 4.70637 56.1988 5.4092 56.6776C6.11202 57.1564 6.93948 57.4121 7.78619 57.4123C8.34141 57.4247 8.89355 57.3246 9.41012 57.1179C9.92668 56.9111 10.3973 56.6019 10.7944 56.2083C11.1916 55.8147 11.5073 55.3446 11.7229 54.8256C11.9385 54.3067 12.0497 53.7493 12.0501 53.1862V53.1706ZM60.4505 53.2135C60.4735 52.6364 60.3822 52.0605 60.182 51.5199C59.9819 50.9792 59.677 50.4846 59.2852 50.0654C58.8935 49.6462 58.4229 49.3108 57.9012 49.0791C57.3795 48.8473 56.8173 48.7239 56.2478 48.7161C55.6783 48.7083 55.113 48.8163 54.5853 49.0336C54.0576 49.251 53.5783 49.5734 53.1755 49.9817C52.7727 50.39 52.4547 50.876 52.2402 51.411C52.0257 51.946 51.9191 52.5191 51.9267 53.0966C51.916 53.661 52.0165 54.2218 52.2224 54.7462C52.4283 55.2706 52.7355 55.748 53.1259 56.1504C53.5163 56.5528 53.982 56.872 54.4958 57.0894C55.0095 57.3067 55.5609 57.4179 56.1175 57.4162C57.2401 57.4424 58.3272 57.0164 59.1408 56.2317C59.9543 55.4469 60.428 54.3672 60.4582 53.229L60.4505 53.2135Z" fill="black"/>
</g>
<defs>
<clipPath id="clip0_1456_49">
<rect width="64" height="61" fill="white"/>
</clipPath>
</defs>
</svg>
