<svg width="64" height="62" viewBox="0 0 64 62" fill="none" xmlns="http://www.w3.org/2000/svg">
<g clip-path="url(#clip0_1477_91)">
<path d="M31.8603 0C33.8334 0.651 35.6193 1.519 36.6813 3.50018C36.8937 3.8919 37.6175 4.00745 38.1094 4.24136C39.0596 4.69791 40.0154 5.15165 41.1305 5.68146C40.3089 6.06192 39.6912 6.32963 39.0875 6.63399C36.5723 7.89372 35.0938 7.44563 33.5874 4.97972C33.2781 4.44898 32.8236 4.01943 32.2783 3.74252C31.7331 3.46561 31.1202 3.3531 30.5132 3.41846C29.906 3.42905 29.3137 3.60966 28.8024 3.94011C28.2911 4.27055 27.881 4.73782 27.6178 5.28973C27.2881 5.91819 26.6676 6.65374 26.0416 6.82565C19.2866 8.66592 12.6016 14.9786 12.6267 25.389C12.6267 28.0635 12.6994 30.7435 12.6267 33.4124C12.4478 39.6546 9.86268 44.6851 4.93272 48.4727C4.67561 48.67 4.44086 48.8955 4.03841 49.2421H57.0858C55.7722 47.9993 54.4866 46.8072 53.2374 45.5785C52.8129 45.1061 52.4172 44.6083 52.0525 44.0876C53.0362 43.7551 53.925 43.3916 54.8472 43.1774C55.1602 43.1041 55.624 43.3183 55.9063 43.5465C57.245 44.6315 58.5278 45.7842 59.8581 46.8805C61.0431 47.8527 61.521 49.135 61.1102 50.4793C60.6798 51.8884 59.5368 52.7338 57.941 52.7338C52.726 52.7507 47.5109 52.7705 42.2903 52.7338C41.3373 52.7338 40.9935 52.979 40.7196 53.9738C39.5291 58.2546 36.821 61.0024 32.3633 61.7943C32.1856 61.8465 32.014 61.9183 31.8519 62.0085H29.3366C29.2653 61.949 29.1852 61.9015 29.0991 61.8675C24.3899 61.0221 21.5532 58.1617 20.4353 53.537C20.2145 52.6267 19.6751 52.7564 19.0938 52.7564C14.08 52.7564 9.0634 52.6944 4.0496 52.7817C2.0262 52.8155 0.64 52.1617 0 50.1721V48.763C0.69869 47.9824 1.29119 47.0721 2.11006 46.4436C5.37713 43.9862 8.00697 41.0299 8.78111 36.9126C9.26181 34.3593 9.23388 31.7017 9.35405 29.0865C9.47423 26.5501 9.21156 23.9799 9.60562 21.5027C10.9611 12.9777 15.7261 7.13 23.7666 4.06663C24.102 3.937 24.5799 3.82428 24.7112 3.56219C25.7453 1.49928 27.5927 0.636917 29.6245 0.0084628L31.8603 0Z" fill="black"/>
<path d="M64 26.2091C63.4411 28.9117 62.6864 31.5326 61.0794 33.8379C57.0857 39.5785 49.7914 42.1572 43.2405 40.1112C36.4184 37.9806 31.9245 31.9779 31.8043 24.8367C31.645 15.4718 38.9281 8.07409 48.2068 8.17837C55.9007 8.26291 62.7115 14.3417 63.754 22.0382C63.813 22.3079 63.8954 22.572 64 22.8273V26.2091ZM61.2053 24.5182C61.2075 22.7458 60.8634 20.9904 60.1928 19.3521C59.5223 17.7138 58.5382 16.2247 57.297 14.9699C54.7901 12.4357 51.3876 11.0095 47.8379 11.005C44.2882 11.0005 40.8822 12.4181 38.369 14.946C35.8559 17.4739 34.4414 20.9049 34.437 24.4844C34.3615 31.9864 40.4652 38.0398 47.9049 38.0483C49.6607 38.045 51.3987 37.6919 53.0188 37.0094C54.639 36.3269 56.1094 35.3284 57.3458 34.0711C58.5822 32.8139 59.5601 31.3228 60.2234 29.6835C60.8867 28.0441 61.2221 26.2887 61.2107 24.5182H61.2053Z" fill="black"/>
<path d="M46.0185 24.7634L52.8099 17.8983C53.4638 18.6366 54.2212 19.3919 54.8444 20.2486C55.04 20.5305 55.054 21.2294 54.8444 21.4435C52.1484 24.2279 49.4104 26.9728 46.6306 29.6783C46.4349 29.8671 45.7139 29.8333 45.4959 29.6276C43.9057 28.117 42.3714 26.5445 40.8426 24.9663C40.6805 24.8 40.5269 24.3604 40.6135 24.2589C41.3304 23.4018 42.0965 22.5878 42.908 21.8212C43.031 21.7084 43.629 21.9057 43.8302 22.1227C44.5317 22.8724 45.1494 23.6924 46.0185 24.7634Z" fill="black"/>
</g>
<defs>
<clipPath id="clip0_1477_91">
<rect width="64" height="62" fill="white"/>
</clipPath>
</defs>
</svg>
