<svg width="75" height="54" viewBox="0 0 75 54" fill="none" xmlns="http://www.w3.org/2000/svg">
<g clip-path="url(#clip0_1477_81)">
<path d="M65.9206 27.0704C65.9206 31.9401 65.9206 36.8116 65.9206 41.6851C65.9206 44.0969 65.1851 44.8069 62.7752 44.8127C60.8943 44.8127 59.0105 44.8328 57.1183 44.8127C55.0903 44.7954 54.2192 43.9187 54.2107 41.8202C54.1937 37.0425 54.2107 32.2649 54.2107 27.4901C54.2107 22.4279 54.2106 17.3657 54.2332 12.3006C54.2332 9.92898 55.045 9.17295 57.4125 9.17007C59.2029 9.17007 60.9905 9.17007 62.7866 9.17007C65.2191 9.17007 65.9573 9.9491 65.9601 12.4587C65.9601 17.3283 65.9601 22.1998 65.9601 27.0733L65.9206 27.0704Z" fill="black"/>
<path d="M27.6286 27.0647C27.6286 31.986 27.6286 36.9084 27.6286 41.8317C27.6286 43.9388 26.7801 44.8069 24.7435 44.8213C23.235 44.8213 21.7265 44.8213 20.218 44.8213C18.4473 44.804 17.5592 43.9589 17.5366 42.0616C17.4885 37.9998 17.5083 33.9379 17.5055 29.8761C17.5055 24.144 17.5055 18.4091 17.5055 12.6743C17.5055 9.94047 18.2154 9.18158 20.9166 9.17583C22.2347 9.17583 23.5527 9.17582 24.8765 9.1902C26.7602 9.21894 27.6117 10.0756 27.6202 12.0217C27.6371 17.0408 27.6202 22.0571 27.6202 27.0762L27.6286 27.0647Z" fill="black"/>
<path d="M50.0839 27.1682C50.0839 31.9918 50.0839 36.8164 50.0839 41.6419C50.0839 44.025 49.306 44.804 46.9386 44.8213C46.1381 44.8213 45.3377 44.8385 44.5372 44.8213C42.4696 44.8011 41.5956 43.9589 41.5843 41.8748C41.5616 37.0483 41.5843 32.2246 41.5843 27.401C41.5843 22.287 41.5843 17.1759 41.6154 12.0648C41.6154 10.0181 42.464 9.1902 44.4439 9.1902C45.3405 9.1902 46.2343 9.1902 47.1281 9.1902C49.1873 9.1902 50.0386 9.99797 50.0641 12.1367C50.1093 15.6696 50.0839 19.2054 50.0867 22.7412C50.0839 24.2044 50.081 25.6848 50.0839 27.1682Z" fill="black"/>
<path d="M13.8568 27.0733C13.8568 31.9506 13.8568 36.8288 13.8568 41.7081C13.8568 41.9467 13.8567 42.1881 13.8398 42.4238C13.7012 43.8295 12.7622 44.7753 11.478 44.8098C10.1939 44.8443 9.16719 43.9474 9.0993 42.49C9.00596 40.4777 9.07099 38.4655 9.07099 36.4532C9.07099 28.4157 9.07099 20.3802 9.07099 12.3465C9.06193 12.0117 9.07418 11.6766 9.10773 11.3433C9.15123 10.7394 9.42278 10.1761 9.8656 9.77102C10.3084 9.36598 10.8882 9.15065 11.4837 9.17008C12.0548 9.16441 12.6069 9.37846 13.0292 9.76927C13.4515 10.1601 13.7128 10.6988 13.7606 11.2772C13.8422 12.1821 13.8715 13.0911 13.8483 13.9995C13.8483 18.3517 13.8483 22.7048 13.8483 27.0589L13.8568 27.0733Z" fill="black"/>
<path d="M35.9273 27.0474C35.9273 31.9266 35.9273 36.8049 35.9273 41.6822C35.9478 42.1592 35.905 42.6368 35.8001 43.1022C35.6363 43.6586 35.2809 44.1365 34.7989 44.4484C34.3169 44.7604 33.7406 44.8856 33.1752 44.8012C32.0438 44.6603 31.1953 43.6743 31.1953 42.2313C31.1557 38.1665 31.1642 34.1018 31.1614 30.037C31.1614 24.2054 31.1614 18.3718 31.1614 12.5363C31.1614 12.2488 31.1614 11.9614 31.1614 11.6739C31.2575 10.1791 32.1994 9.20457 33.5543 9.18445C34.9091 9.16432 35.8651 10.1503 35.8906 11.6969C35.9415 15.1867 35.9188 18.6794 35.9245 22.1692C35.9264 23.7943 35.9273 25.4204 35.9273 27.0474Z" fill="black"/>
<path d="M7.75844 0.0229995C9.40744 0.0229995 11.0565 -0.0057468 12.7027 0.0229995C14.2301 0.0603698 15.1804 0.971639 15.2285 2.35146C15.2766 3.73129 14.2922 4.80928 12.7168 4.8524C10.5049 4.91372 8.2921 4.91372 6.07834 4.8524C5.09686 4.82653 4.74333 5.13985 4.76878 6.1546C4.82253 8.30483 4.81123 10.4666 4.78294 12.6053C4.76031 14.3904 3.77878 15.5 2.32777 15.4799C0.992728 15.4569 0.0367285 14.2984 0.0225861 12.6053C-4.17267e-05 9.40294 -4.17267e-05 6.2006 0.0225861 2.99826C0.0367285 0.92277 0.938981 0.0258833 2.95852 0.0143848C4.55944 0.0143848 6.16036 0.0143848 7.76693 0.0143848L7.75844 0.0229995Z" fill="black"/>
<path d="M7.5832 53.9914C5.98228 53.9914 4.38136 54.0086 2.77478 53.9914C1.00981 53.9655 0.0481359 53.0485 0.025508 51.2518C-0.0197477 47.9058 -0.0140907 44.5597 0.025508 41.2165C0.0453074 39.6125 1.15688 38.4885 2.54849 38.5373C3.89202 38.5833 4.75191 39.6268 4.76888 41.3085C4.79433 43.4587 4.82545 45.6204 4.76888 47.7563C4.73493 48.8142 5.05173 49.1936 6.1209 49.1562C8.2366 49.0815 10.3636 49.1189 12.4765 49.1419C14.216 49.162 15.1918 50.033 15.2314 51.5336C15.271 53.0341 14.2528 53.9454 12.5387 53.9741C10.8925 54 9.24353 53.9741 7.59453 53.9741L7.5832 53.9914Z" fill="black"/>
<path d="M67.2386 53.9914C65.6377 53.9914 64.0367 54.0143 62.4302 53.9914C60.7698 53.9597 59.7488 52.9766 59.7573 51.4933C59.7573 50.1106 60.7897 49.1591 62.4047 49.1332C64.5233 49.0958 66.6475 49.07 68.7603 49.1332C69.8323 49.1648 70.2764 48.8831 70.2255 47.6959C70.1378 45.5974 70.1887 43.4903 70.2085 41.389C70.2085 39.5894 71.1702 38.4885 72.6382 38.5143C73.9647 38.5143 74.9745 39.7131 74.9858 41.389C75.0028 44.6469 74.9914 47.8952 74.9518 51.134C74.9264 53.1146 74.0354 53.9453 72.0357 53.9827H67.2272L67.2386 53.9914Z" fill="black"/>
<path d="M74.983 7.70691C74.983 9.37707 74.983 11.0501 74.983 12.7231C74.966 14.3444 73.945 15.4684 72.5279 15.4627C71.1872 15.4627 70.2424 14.3703 70.2255 12.7576C70.2028 10.5126 70.1859 8.26459 70.2255 6.0195C70.2453 5.14274 69.9426 4.83803 69.0941 4.8524C66.9275 4.89265 64.7608 4.88402 62.5886 4.8524C60.7727 4.8294 59.7431 3.89515 59.7601 2.37159C59.7856 0.914151 60.8095 0.0115009 62.5433 0.00287698C65.749 -0.010538 68.9546 -0.0038284 72.1602 0.0230015C74.1118 0.0402493 74.9547 0.951505 74.966 2.96662C74.966 4.5448 74.966 6.12873 74.966 7.70115L74.983 7.70691Z" fill="black"/>
</g>
<defs>
<clipPath id="clip0_1477_81">
<rect width="75" height="54" fill="white"/>
</clipPath>
</defs>
</svg>
