<svg width="74" height="65" viewBox="0 0 74 65" fill="none" xmlns="http://www.w3.org/2000/svg">
<g clip-path="url(#clip0_1456_37)">
<path d="M18.0375 12.8531H18.8435C30.11 12.8531 41.3765 12.8562 52.6429 12.8625C52.9138 12.8761 53.1845 12.8311 53.4359 12.7307C53.6873 12.6303 53.9133 12.477 54.0981 12.2814C58.0122 8.4068 61.9386 4.54518 65.8771 0.696565C66.8292 -0.229664 67.3195 -0.240597 68.2779 0.696565C69.276 1.6634 70.2598 2.64742 71.2469 3.6252C72.2767 4.64514 72.2799 5.1309 71.2326 6.15866C69.1168 8.24124 67.0011 10.3144 64.8853 12.3783C64.7742 12.4861 64.6695 12.6001 64.4616 12.8141C65.9088 12.9297 65.9263 13.8777 65.9247 14.8961C65.9088 21.0397 65.9088 27.1834 65.9247 33.327V34.0205L66.0834 33.8799C66.6054 34.2345 67.1814 34.5344 67.6416 34.9576C68.7016 35.9354 69.7045 36.9679 70.7311 37.9894C71.4611 38.7203 71.4563 39.3483 70.7311 40.0824C69.8441 40.9742 68.9666 41.8802 68.0335 42.7377C67.6511 43.0907 67.6733 43.3624 67.8479 43.8045C68.0383 44.2871 68.2938 44.4089 68.7841 44.3964C70.025 44.3652 71.2691 44.3824 72.5115 44.3964C73.5398 44.3964 73.9762 44.7994 73.9889 45.7897C74.0101 47.4047 74.0101 49.0187 73.9889 50.6317C73.9794 51.6188 73.524 52.0374 72.5179 52.0515C71.2215 52.0609 69.925 52.0765 68.6302 52.039C68.1414 52.0249 67.9463 52.228 67.7733 52.6356C67.6003 53.0433 67.5972 53.337 67.9463 53.6665C68.8635 54.5287 69.7521 55.4221 70.6439 56.3109C71.3897 57.0575 71.4135 57.6557 70.682 58.4023C69.5638 59.5477 68.4287 60.6744 67.2766 61.7823C66.5498 62.4837 65.877 62.4555 65.1423 61.7417C64.2394 60.8639 63.3128 60.0064 62.4638 59.0864C62.0433 58.6272 61.7005 58.8475 61.2721 58.9646C60.8151 59.0896 60.7532 59.3676 60.7596 59.7706C60.7786 60.9951 60.7722 62.2181 60.7596 63.4411C60.7516 64.5345 60.2724 65.014 59.1727 65.0171C57.6129 65.0171 56.053 65.0171 54.4932 65.0171C53.4586 65.0171 53.0127 64.561 53.0079 63.5317C53 62.2822 52.9809 61.0326 53.0079 59.7831C53.0222 59.3145 52.8492 59.1036 52.4192 58.9365C51.9892 58.7694 51.675 58.7303 51.3084 59.1161C50.4436 60.0299 49.528 60.8967 48.6203 61.7714C47.9031 62.4602 47.2684 62.4852 46.5575 61.7995C45.3811 60.6749 44.2248 59.5295 43.0887 58.3633C42.4349 57.6979 42.4539 57.0356 43.0887 56.3827C43.9392 55.5252 44.8183 54.6974 45.6577 53.8321C45.8719 53.6119 45.9862 53.2963 46.1449 53.0246C45.8561 52.959 45.5673 52.8387 45.2785 52.8387C34.2765 52.8293 23.2745 52.8246 12.2725 52.8246C10.4778 52.8246 8.66885 52.8637 6.8932 52.6684C3.16257 52.2436 0.0111065 48.7495 0.00158558 45.0493C-0.0301509 34.1689 -0.0301509 23.2874 0.00158558 12.4048C0.0111065 8.97951 3.10701 6.0009 6.59009 5.9884C9.86847 5.97122 13.1484 5.9884 16.4284 5.9884C17.5598 5.9884 18.0009 6.41169 18.0152 7.55034C18.0501 9.26535 18.0375 11.0069 18.0375 12.8531ZM18.0375 15.3975V16.3644C18.0375 19.8266 18.0375 23.2884 18.0375 26.7497C18.047 32.6059 18.0607 38.4616 18.0787 44.3168C18.0787 44.9415 17.92 45.4601 17.3297 45.7569C16.3491 46.2567 15.4255 45.5679 15.4255 44.2527C15.4255 42.2441 13.8387 39.7622 11.1649 39.1436C10.1541 38.9109 9.06554 38.9 8.01982 38.9453C7.17977 38.9823 6.35823 39.2004 5.6132 39.5842C4.86817 39.968 4.21784 40.5081 3.70812 41.1664C3.19839 41.8247 2.84168 42.5851 2.66324 43.394C2.48479 44.2028 2.48896 45.0404 2.6754 45.8475C3.27363 48.5246 5.56499 50.3099 8.48475 50.313C18.6912 50.3224 28.8998 50.3224 39.1105 50.313C39.3374 50.313 39.5643 50.2818 39.8341 50.2631C39.8341 48.7417 39.8341 47.286 39.8341 45.8319C39.8341 44.7963 40.2689 44.3839 41.3336 44.3777C42.6031 44.3699 43.8725 44.3589 45.142 44.3777C45.5641 44.3777 45.8259 44.3027 45.9592 43.8591C46.0846 43.4405 46.3289 43.1078 45.8608 42.6892C44.923 41.8505 44.0471 40.9414 43.1632 40.0496C42.4031 39.2858 42.4063 38.6438 43.1632 37.8972C44.2211 36.8434 45.287 35.7943 46.3607 34.7499C47.3223 33.8127 47.8777 33.8049 48.8298 34.7499C49.8152 35.7261 50.7927 36.7101 51.6861 37.6051C52.8778 37.5177 53.1031 36.8976 53.0238 35.951C52.9381 34.942 52.9984 33.9205 53.0031 32.9068C53.0031 31.8588 53.4332 31.4199 54.4694 31.412C56.0837 31.4006 57.697 31.4006 59.3092 31.412C60.3422 31.412 60.7706 31.8603 60.7754 32.9068C60.7754 34.1829 60.7754 35.4575 60.7754 36.7336C60.7754 37.2146 61.7878 37.8925 62.1242 37.5958C62.6812 37.1037 63.3826 36.7258 63.3778 35.7527C63.3381 29.1925 63.3588 22.6324 63.3556 16.0723C63.3556 15.8489 63.3191 15.6256 63.3001 15.4209C62.3638 15.2038 61.6751 15.385 61.0531 16.0863C60.1502 17.1031 59.1489 18.0372 58.1714 18.9868C57.9492 19.2064 57.6812 19.3759 57.386 19.4835C55.7452 20.0458 54.0901 20.5769 52.4462 21.122C51.8273 21.3313 51.2418 21.3532 50.7562 20.8705C50.2706 20.3879 50.3674 19.8475 50.5674 19.2711C51.0069 18.0013 51.4163 16.7205 51.8559 15.3897L18.0375 15.3975ZM15.443 8.45314C12.5454 8.45314 9.71774 8.45314 6.89002 8.45314C4.39394 8.45314 2.54845 10.2806 2.54686 12.7531C2.54686 21.1345 2.54686 29.5169 2.54686 37.9003C2.54686 38.1174 2.57702 38.3346 2.59765 38.6048C5.80304 35.6808 12.1186 35.6371 15.443 38.6048V8.45314ZM47.5857 59.1833C48.6045 58.2227 49.5915 57.3199 50.5436 56.3812C51.0958 55.8361 51.6654 55.8017 52.3398 56.111C52.9746 56.4062 53.6347 56.6842 54.3027 56.9153C55.2818 57.2543 55.5357 57.5651 55.5405 58.6335C55.5405 59.9002 55.5405 61.1669 55.5405 62.454H58.2492C58.2492 61.1623 58.2492 59.919 58.2492 58.6741C58.2492 57.5089 58.4682 57.2402 59.5694 56.8732C60.1439 56.6836 60.7043 56.455 61.2467 56.1891C62.3575 55.6439 62.6336 55.6924 63.5286 56.5655C64.4235 57.4386 65.3518 58.2836 66.2008 59.0739L68.1415 57.2949C67.1529 56.3484 66.196 55.4206 65.2264 54.5084C64.6695 53.9836 64.6092 53.415 64.9392 52.7465C65.2884 52.0786 65.586 51.3858 65.8295 50.6739C66.0897 49.8351 66.6134 49.5165 67.4687 49.5336C68.7825 49.5602 70.0996 49.5336 71.4579 49.5336V46.8721C70.0298 46.8721 68.6635 46.8721 67.2925 46.8721C66.4991 46.8721 66.0135 46.5285 65.7675 45.7787C65.5683 45.1624 65.3266 44.5602 65.044 43.9763C64.4632 42.7923 64.4917 42.5315 65.4613 41.5928L68.0002 39.1343L66.0722 37.149C65.1201 38.1049 64.168 39.0655 63.208 40.0355C62.6939 40.5572 62.1258 40.5978 61.48 40.2979C60.8913 40.0091 60.2868 39.7525 59.6694 39.5294C58.3777 39.0952 58.2285 38.9234 58.2301 37.5864C58.2301 36.3743 58.2301 35.1607 58.2301 33.9455H55.5325C55.5325 35.3341 55.5325 36.6805 55.5325 38.0268C55.5325 38.7375 55.2152 39.1936 54.5122 39.4201C53.9102 39.6078 53.3222 39.8364 52.7524 40.1042C51.3703 40.7665 51.2259 40.7587 50.1421 39.6841C49.2963 38.8437 48.4521 38.0019 47.7333 37.2849L45.6403 39.1452C46.6479 40.112 47.6286 41.0554 48.6156 41.9926C49.1487 42.5002 49.1773 43.0594 48.8758 43.6951C48.5743 44.3308 48.2585 45.0134 48.011 45.6944C47.6587 46.6644 47.4016 46.8768 46.3464 46.8784C45.0357 46.8784 43.7255 46.8784 42.4158 46.8784V49.5602C43.7916 49.5602 45.1134 49.5602 46.4305 49.5602C47.2731 49.5602 47.8079 49.921 48.0681 50.741C48.2799 51.3806 48.5393 52.0039 48.8441 52.606C49.2979 53.5338 49.2709 53.8868 48.5267 54.6146C47.5889 55.5284 46.6336 56.4233 45.7053 57.3074C46.4051 58.0056 47.0129 58.6116 47.5857 59.1833ZM64.368 5.88688L55.4389 14.5525L57.0479 16.205L66.0722 7.52691L64.368 5.88688ZM66.2801 3.87979L67.9637 5.65259L68.9412 4.90755L66.9767 3.04571L66.2801 3.87979Z" fill="black"/>
<path d="M34.4468 25.5923H46.6653C46.9556 25.5829 47.2462 25.5938 47.5349 25.6251C47.8012 25.6476 48.0508 25.7622 48.2394 25.9486C48.4279 26.1351 48.5432 26.3813 48.5648 26.6435C48.6584 27.2589 48.4061 27.7369 47.8126 27.9493C47.4601 28.0544 47.0919 28.0988 46.7241 28.0805C38.4726 28.0878 30.2258 28.0878 21.9838 28.0805C21.8791 28.0805 21.7728 28.0805 21.6665 28.0805C20.7906 28.0336 20.2209 27.5541 20.2018 26.8497C20.1812 26.1 20.7382 25.6001 21.6887 25.6001C25.943 25.5876 30.1989 25.6001 34.4547 25.6001L34.4468 25.5923Z" fill="black"/>
<path d="M31.8016 19.229C35.1329 19.229 38.4652 19.229 41.7986 19.229C42.8586 19.229 43.4568 19.6976 43.4314 20.4957C43.4076 21.2626 42.8157 21.7219 41.816 21.7219C35.1302 21.7219 28.4444 21.7219 21.7586 21.7219C21.1588 21.7219 20.578 21.5891 20.3907 21.0143C20.2638 20.6285 20.2876 20.035 20.5177 19.7382C20.7478 19.4414 21.3111 19.2477 21.7395 19.2431C25.0845 19.2181 28.4455 19.229 31.8016 19.229Z" fill="black"/>
<path d="M27.9408 34.4313C26.0112 34.4313 24.0816 34.4313 22.152 34.4313C21.8612 34.4355 21.5704 34.4241 21.2809 34.397C20.6271 34.3267 20.2875 33.8971 20.2241 33.3114C20.1792 33.0367 20.2403 32.7555 20.3953 32.5228C20.5503 32.2902 20.7881 32.123 21.0619 32.0541C21.3666 31.9711 21.6821 31.9332 21.9981 31.9416C25.9366 31.9354 29.8757 31.9354 33.8152 31.9416H33.9739C35.1164 31.9557 35.7194 32.3914 35.7194 33.2036C35.7194 34.0159 35.1243 34.4329 33.9739 34.4345C31.9618 34.4345 29.9508 34.4334 27.9408 34.4313Z" fill="black"/>
<path d="M24.05 44.6979C24.2142 44.6973 24.377 44.729 24.5286 44.7912C24.6802 44.8534 24.8177 44.9448 24.9329 45.0601C25.0481 45.1753 25.1387 45.3121 25.1993 45.4624C25.26 45.6127 25.2895 45.7733 25.2861 45.935C25.2921 46.0994 25.2643 46.2633 25.2045 46.4169C25.1447 46.5705 25.0541 46.7106 24.9381 46.829C24.8221 46.9474 24.683 47.0415 24.5291 47.1058C24.3753 47.1701 24.2099 47.2033 24.0428 47.2033C23.8757 47.2033 23.7103 47.1701 23.5565 47.1058C23.4027 47.0415 23.2636 46.9474 23.1476 46.829C23.0315 46.7106 22.9409 46.5705 22.8811 46.4169C22.8213 46.2633 22.7936 46.0994 22.7996 45.935C22.7968 45.7723 22.8272 45.6108 22.889 45.4598C22.9508 45.3089 23.0426 45.1718 23.1592 45.0564C23.2758 44.9411 23.4147 44.8499 23.5677 44.7884C23.7207 44.7268 23.8847 44.696 24.05 44.6979Z" fill="black"/>
<path d="M27.8805 47.1767C27.5498 47.1717 27.2336 47.0419 26.9973 46.814C26.7611 46.5861 26.6228 46.2776 26.611 45.9522C26.6066 45.7903 26.6348 45.6292 26.6939 45.478C26.753 45.3269 26.8419 45.1888 26.9555 45.0716C27.069 44.9545 27.205 44.8606 27.3556 44.7954C27.5062 44.7302 27.6684 44.6949 27.8329 44.6917C27.9976 44.6865 28.1616 44.7139 28.3153 44.7722C28.469 44.8306 28.6092 44.9188 28.7277 45.0316C28.8461 45.1444 28.9402 45.2794 29.0046 45.4287C29.069 45.578 29.1022 45.7385 29.1024 45.9006C29.1097 46.2286 28.9856 46.5463 28.757 46.7851C28.5284 47.0238 28.2136 47.1645 27.8805 47.1767Z" fill="black"/>
<path d="M31.6952 47.1767C31.3637 47.175 31.0457 47.0476 30.8072 46.821C30.5687 46.5944 30.4282 46.286 30.4147 45.96C30.4088 45.798 30.4355 45.6365 30.4935 45.4848C30.5515 45.333 30.6395 45.1942 30.7524 45.0762C30.8653 44.9582 31.0009 44.8635 31.1513 44.7975C31.3017 44.7315 31.464 44.6955 31.6286 44.6917C31.7925 44.6869 31.9557 44.7143 32.1087 44.7724C32.2617 44.8305 32.4014 44.918 32.5196 45.0298C32.6378 45.1417 32.7321 45.2756 32.7971 45.4238C32.8621 45.572 32.8964 45.7314 32.8981 45.8928C32.9076 46.2191 32.7871 46.536 32.5624 46.776C32.3376 47.0159 32.0263 47.1597 31.6952 47.1767Z" fill="black"/>
<path d="M35.4767 47.1845C35.1443 47.1753 34.8283 47.0403 34.5945 46.8076C34.3607 46.5748 34.2271 46.2623 34.2215 45.935C34.2192 45.7731 34.2496 45.6123 34.3109 45.4621C34.3722 45.3118 34.4632 45.175 34.5786 45.0596C34.694 44.9443 34.8316 44.8526 34.9833 44.79C35.135 44.7274 35.2979 44.695 35.4624 44.6948C35.6267 44.6923 35.7899 44.7223 35.9423 44.783C36.0947 44.8437 36.2331 44.9339 36.3495 45.0482C36.4658 45.1626 36.5576 45.2987 36.6194 45.4486C36.6813 45.5985 36.712 45.7592 36.7096 45.9209C36.7135 46.2486 36.5864 46.5647 36.3558 46.8011C36.1252 47.0374 35.8095 47.1751 35.4767 47.1845Z" fill="black"/>
<path d="M56.9099 41.874C57.756 41.8687 58.5946 42.0293 59.377 42.3462C60.1594 42.6632 60.8699 43.1302 61.4672 43.7201C62.0644 44.31 62.5364 45.011 62.8557 45.7822C63.175 46.5535 63.3352 47.3795 63.327 48.2123C63.3573 49.0635 63.2127 49.912 62.902 50.707C62.5913 51.502 62.1208 52.227 61.5187 52.8388C60.9165 53.4505 60.1952 53.9364 59.3978 54.2672C58.6005 54.5981 57.7434 54.7672 56.8781 54.7643C56.0128 54.7615 55.1569 54.5868 54.3618 54.2507C53.5667 53.9146 52.8486 53.424 52.2507 52.8083C51.6527 52.1927 51.1872 51.4645 50.8818 50.6676C50.5765 49.8706 50.4377 49.0212 50.4737 48.1701C50.4626 44.6448 53.2983 41.8755 56.9099 41.874ZM52.9999 48.1904C52.9966 48.9471 53.2208 49.6878 53.6444 50.3193C54.068 50.9508 54.6719 51.4447 55.3802 51.7388C56.0885 52.033 56.8694 52.1142 57.6245 51.9722C58.3796 51.8303 59.0751 51.4715 59.6234 50.9412C60.1717 50.4108 60.5482 49.7326 60.7056 48.9919C60.863 48.2512 60.7941 47.4813 60.5076 46.7791C60.2212 46.0769 59.73 45.4739 59.096 45.046C58.462 44.6181 57.7135 44.3845 56.9448 44.3746C54.7328 44.3653 52.9983 46.0443 52.9999 48.1904Z" fill="black"/>
</g>
<defs>
<clipPath id="clip0_1456_37">
<rect width="74" height="65" fill="white"/>
</clipPath>
</defs>
</svg>
