<svg width="60" height="70" viewBox="0 0 60 70" fill="none" xmlns="http://www.w3.org/2000/svg">
<path d="M18.3349 46.5902C17.4917 47.4697 16.5153 48.5152 15.5087 49.5348C14.2762 50.7829 13.3578 50.7829 12.1275 49.5456C11.6974 49.1144 11.3145 48.638 10.8155 48.0754L7.78066 50.9683C7.41634 51.3647 7.01995 51.7303 6.59553 52.0612C5.15016 53.0485 4.61246 54.3591 4.83185 56.1009C4.91573 56.7627 5.01252 57.1787 5.66207 57.5064C7.06873 58.2393 7.71183 59.7353 7.47309 61.3262C7.258 62.7683 6.10299 63.9604 4.59094 64.3096C3.88574 64.4614 3.15149 64.4007 2.48059 64.1353C1.80968 63.8699 1.2321 63.4115 0.820504 62.8179C0.51134 62.3975 0.296885 61.9149 0.191947 61.4035C0.0870094 60.892 0.0940809 60.3637 0.212689 59.8552C0.331298 59.3468 0.558618 58.8701 0.878936 58.4583C1.19925 58.0464 1.60494 57.7091 2.068 57.4697C2.69174 57.1356 2.93909 56.7648 2.82079 56.1354C2.39062 53.7642 3.33485 52.0397 5.17382 50.5889C6.60199 49.4572 7.84949 48.1013 9.27765 46.7497C8.96578 46.422 8.68402 46.1181 8.39366 45.8249C7.12896 44.5315 7.1182 43.6952 8.36139 42.4363C9.22173 41.574 10.11 40.7311 10.9274 39.8258C11.0349 39.6914 11.1102 39.534 11.1475 39.3658C11.1848 39.1977 11.1831 39.0231 11.1424 38.8557C10.3961 37.0407 9.58307 35.2537 8.73348 33.3222C7.44297 33.3222 5.9761 33.3222 4.50922 33.3222C2.96921 33.3114 2.26157 32.6345 2.24437 31.1148C2.22286 29.2092 2.22286 27.3044 2.24437 25.4002C2.26157 23.8589 2.93479 23.223 4.50491 23.2165C5.93738 23.2165 7.36984 23.2165 8.70983 23.2165C9.57017 21.2765 10.4305 19.3924 11.2349 17.4955C11.3167 17.2993 11.136 16.8962 10.9575 16.7043C10.0713 15.7645 9.13784 14.872 8.23664 13.9451C7.18917 12.8673 7.18917 11.9425 8.23664 10.8669C9.5673 9.51024 10.9102 8.16368 12.2652 6.82718C13.3793 5.72565 14.2633 5.74936 15.4033 6.87676C16.4443 7.91362 17.4638 8.97205 18.3521 9.87742C20.3717 9.1057 22.2408 8.41804 24.0777 7.6571C24.3336 7.55147 24.5788 7.08586 24.5939 6.7776C24.6519 5.48422 24.5939 4.19083 24.6261 2.89744C24.6605 1.43807 25.3079 0.804313 26.7512 0.79569C28.6898 0.781319 30.6256 0.781319 32.5585 0.79569C33.9393 0.808624 34.5932 1.44238 34.6297 2.84355C34.6641 4.13694 34.6018 5.43032 34.6684 6.72371C34.6857 7.05568 34.9545 7.54717 35.2341 7.66573C37.0365 8.42451 38.8755 9.10138 40.9382 9.89466C41.7813 9.0324 42.7858 7.95458 43.8182 6.91987C45.0356 5.69978 45.8701 5.71487 47.1068 6.94574C48.4317 8.26068 49.7567 9.57131 51.0622 10.9057C52.071 11.9339 52.071 12.8738 51.0622 13.9085C50.1653 14.8376 49.2254 15.7257 48.3457 16.672C48.15 16.8876 47.9629 17.3187 48.0532 17.5343C48.834 19.4075 49.6792 21.2527 50.5525 23.2122C51.9075 23.2122 53.411 23.2122 54.9144 23.2122C56.2781 23.2252 56.9878 23.8891 57.0093 25.2342C57.0395 27.2462 57.0395 29.2581 57.0093 31.27C56.99 32.5957 56.2522 33.2963 54.9123 33.3157C53.4067 33.3351 51.9011 33.3157 50.5482 33.3157C49.6706 35.2752 48.8275 37.1183 48.0403 38.9894C47.95 39.2049 48.1564 39.6361 48.3543 39.8516C49.1845 40.7462 50.075 41.5891 50.9246 42.46C52.1183 43.6736 52.1119 44.5402 50.888 45.7667C50.6106 46.0448 50.2879 46.2755 49.8664 46.629L52.6883 49.3084C53.5981 50.1707 54.4692 51.0847 55.422 51.8952C56.1705 52.5419 56.5448 53.2511 56.4286 54.2363C56.3835 54.6264 56.4587 55.0295 56.4135 55.4197C56.2953 56.4566 56.5254 57.1658 57.5772 57.737C58.9645 58.4915 59.4161 60.2634 58.9107 61.7961C58.6773 62.5566 58.2034 63.2203 57.5604 63.6869C56.9175 64.1536 56.1405 64.3979 55.3467 64.3829C54.5568 64.3616 53.7939 64.0906 53.1669 63.6086C52.5399 63.1265 52.0811 62.4582 51.8559 61.6991C51.4064 60.1729 52.0151 58.3557 53.4626 57.6034C54.31 57.1722 54.338 56.6226 54.4283 55.8336C54.609 54.2772 54.0455 53.2123 52.8711 52.2337C51.387 50.9985 50.0427 49.5952 48.4274 48.0625C47.9241 48.6359 47.466 49.2201 46.9433 49.7396C45.9604 50.7139 44.9388 50.7075 43.9322 49.7266C42.8567 48.6725 41.8136 47.5861 40.878 46.6398C38.8562 47.4136 36.9569 48.1185 35.0857 48.8903C34.8706 48.9829 34.6555 49.4249 34.6555 49.7116C34.6082 50.8605 34.6405 52.0116 34.634 53.1606C34.634 55.161 34.0555 55.7366 32.0896 55.7474H30.6593C30.6593 57.9181 30.6356 60.022 30.6894 62.1237C30.6894 62.3609 31.0937 62.6454 31.3691 62.8071C33.051 63.8008 33.735 65.6525 33.0553 67.4245C32.7294 68.2571 32.1132 68.9429 31.321 69.3547C30.5289 69.7666 29.6146 69.8764 28.7477 69.664C27.8809 69.4515 27.1204 68.9312 26.6073 68.1994C26.0941 67.4677 25.8633 66.5742 25.9575 65.6849C26.0779 64.4217 26.7082 63.4107 27.8481 62.8696C28.4934 62.5613 28.616 62.1647 28.6031 61.5309C28.5729 59.6642 28.6031 57.7974 28.6031 55.7474H27.3276C25.1402 55.7474 24.624 55.2214 24.6197 53.0011C24.6197 51.9577 24.5939 50.9166 24.6197 49.8754C24.639 49.2546 24.4691 48.9679 23.8131 48.7437C22.0365 48.1293 20.3008 47.3727 18.3349 46.5902ZM54.9811 25.2019C53.4024 25.2019 51.9376 25.217 50.4643 25.2019C49.1243 25.1825 48.7802 24.829 48.3134 23.5593C47.6682 21.824 46.9649 20.0995 46.1798 18.4202C45.5797 17.1398 45.5668 16.5707 46.5971 15.5619C47.6273 14.553 48.7307 13.5614 49.7244 12.6323L45.3367 8.15505C44.3473 9.17252 43.36 10.2115 42.347 11.229C41.3339 12.2465 40.7145 12.268 39.3831 11.6364C37.8104 10.8802 36.1969 10.2124 34.5501 9.63599C33.094 9.14019 32.6466 8.69181 32.6423 7.10095C32.6423 5.68253 32.6423 4.26053 32.6423 2.83493H26.6028C26.6028 4.36543 26.6028 5.82912 26.6028 7.29495C26.6028 8.6099 26.121 9.14019 24.9272 9.57994C23.1915 10.2266 21.473 10.9121 19.791 11.6838C18.5435 12.2551 17.8983 12.2443 16.9153 11.2527C15.8958 10.2137 14.9129 9.14019 14.0525 8.23482L9.55941 12.6215C10.594 13.6067 11.6737 14.6004 12.7147 15.6395C13.6503 16.5664 13.6589 17.1786 13.1277 18.3319C12.3512 20.0133 11.6221 21.7227 10.9768 23.4601C10.4391 24.9109 10.1466 25.2127 8.58078 25.2234C7.15907 25.2342 5.73735 25.2234 4.30058 25.2234V31.2592C5.78897 31.2592 7.21498 31.2398 8.641 31.2592C10.024 31.283 10.4649 31.7227 10.9532 33.0377C11.5999 34.7765 12.3168 36.4896 13.104 38.1767C13.6654 39.3946 13.6654 40.0025 12.6954 40.9553C11.6522 41.9793 10.5682 42.9644 9.55941 43.9129L13.9773 48.3902C14.9387 47.3813 15.9388 46.3056 16.9712 45.2623C18.0036 44.219 18.55 44.247 19.8405 44.8678C21.4059 45.6418 23.0146 46.3249 24.6584 46.9135C26.2285 47.4568 26.6092 47.8124 26.6135 49.5003C26.6135 50.8871 26.6135 52.271 26.6135 53.6521H32.6488C32.6488 52.1194 32.6488 50.6557 32.6488 49.192C32.6488 47.8987 33.1585 47.3813 34.3695 46.9502C36.0496 46.3654 37.6973 45.6912 39.3057 44.9303C40.736 44.2448 41.2522 44.2168 42.3513 45.327C43.36 46.3466 44.3387 47.3921 45.1969 48.2867L49.5523 43.8827C48.7458 43.1024 47.8316 42.2379 46.9455 41.3541C45.4765 39.8948 45.4872 39.5369 46.3927 37.7176C47.0732 36.3416 47.6533 34.918 48.1285 33.458C48.7286 31.6322 49.1394 31.2592 51.1268 31.2571H54.9746L54.9811 25.2019ZM5.51151 60.6902C5.51028 60.2559 5.34226 59.8387 5.0423 59.5252C4.74233 59.2118 4.33346 59.0261 3.90052 59.0067C3.45002 59.0026 3.01586 59.1757 2.69131 59.4888C2.36677 59.802 2.17772 60.2303 2.16479 60.6816C2.18207 61.1144 2.35637 61.526 2.65496 61.8392C2.95356 62.1523 3.35591 62.3455 3.78652 62.3824C4.66407 62.4212 5.50076 61.5978 5.50291 60.6902H5.51151ZM57.1061 60.7204C57.1074 60.285 56.9442 59.8651 56.6494 59.5452C56.3546 59.2254 55.9499 59.0291 55.5167 58.9959C55.2934 58.9873 55.0706 59.0231 54.8612 59.1013C54.6518 59.1794 54.46 59.2984 54.2968 59.4514C54.1336 59.6043 54.0022 59.7882 53.9104 59.9923C53.8185 60.1965 53.7679 60.4168 53.7616 60.6407C53.7504 60.8648 53.7842 61.0888 53.861 61.2996C53.9378 61.5104 54.056 61.7036 54.2086 61.8677C54.3612 62.0319 54.5452 62.1637 54.7496 62.2553C54.9539 62.3469 55.1746 62.3965 55.3984 62.4011C55.6222 62.4057 55.8447 62.3653 56.0527 62.2822C56.2607 62.1991 56.4498 62.075 56.6091 61.9172C56.7683 61.7595 56.8944 61.5714 56.9797 61.3639C57.0651 61.1565 57.1081 60.934 57.1061 60.7096V60.7204ZM31.3174 66.0406C31.2955 65.6029 31.1041 65.191 30.784 64.8925C30.4639 64.594 30.0403 64.4323 29.6031 64.4418C29.166 64.4514 28.7498 64.6314 28.443 64.9436C28.1361 65.2558 27.9629 65.6756 27.96 66.1138C27.9585 66.3389 28.002 66.5621 28.0881 66.77C28.1741 66.9779 28.3009 67.1665 28.4609 67.3244C28.621 67.4824 28.811 67.6066 29.0197 67.6897C29.2285 67.7728 29.4517 67.8131 29.6763 67.8081C29.9009 67.8032 30.1222 67.7533 30.3271 67.6611C30.532 67.569 30.7165 67.4367 30.8695 67.2719C31.0225 67.1071 31.141 66.9132 31.2179 66.7017C31.2949 66.4902 31.3287 66.2654 31.3174 66.0406Z" fill="white"/>
<path d="M29.6699 13.6455C32.902 13.6632 36.0364 14.7573 38.5801 16.7557C41.1238 18.7541 42.9324 21.5433 43.7215 24.6846C43.9086 25.4239 44.3667 26.4651 43.244 26.8036C41.9535 27.1873 41.9707 25.9844 41.7577 25.2084C40.1467 19.3601 35.1998 15.5748 29.2828 15.6891C23.1443 15.8076 17.6832 20.8906 17.1756 26.9609C16.6336 33.4688 20.774 39.2028 26.9384 40.4833C27.6675 40.6342 28.4741 40.8648 28.2482 41.8047C28.0332 42.6669 27.3255 42.695 26.5103 42.4859C18.8899 40.5178 14.4656 34.2319 15.2098 26.3897C15.7884 20.3302 21.2042 14.7039 27.2244 13.9128C28.0353 13.805 28.8548 13.7339 29.6699 13.6455Z" fill="white"/>
<path d="M28.1449 29.664C28.1449 30.6492 28.1449 31.3131 28.1449 31.977C28.1449 32.641 27.9298 33.1282 27.1878 33.1325C26.4457 33.1368 26.1833 32.7013 26.1833 32.0223C26.1833 29.511 26.1833 27.0018 26.1833 24.4905C26.1833 23.7274 26.577 23.3674 27.2953 23.3437C28.046 23.32 28.8009 23.307 29.5494 23.3437C30.9926 23.4234 32.0767 24.2965 32.3735 25.5618C32.6832 26.8789 32.1584 28.099 30.9453 28.8708C30.7969 28.9656 30.6399 29.0475 30.399 29.1876C30.9453 29.9098 31.4745 30.6233 32.0122 31.3239C32.4423 31.8714 32.6101 32.4448 31.9928 32.9212C31.3755 33.3976 30.8636 33.1368 30.4291 32.5806C29.743 31.6903 29.0397 30.8065 28.1449 29.664ZM28.2051 27.3834C28.8936 27.2295 29.5707 27.0278 30.2313 26.7798C30.3646 26.7216 30.3926 25.9348 30.2786 25.8809C29.6035 25.5955 28.911 25.3535 28.2051 25.1566V27.3834Z" fill="white"/>
<path d="M31.8444 42.6884C31.5992 42.4298 31.096 42.1323 31.025 41.7529C30.9648 41.4425 31.3476 40.9251 31.6702 40.7009C32.0273 40.4552 32.5499 40.453 32.9908 40.3172C37.7485 38.8578 40.6801 35.6589 41.8696 30.8518C42.0588 30.0908 42.2997 29.5067 43.1837 29.6899C44.0677 29.8731 43.9322 30.5737 43.829 31.2333C43.102 36.2366 38.4841 41.0846 33.2124 42.3694C32.8403 42.4621 32.4574 42.5462 31.8444 42.6884Z" fill="white"/>
<path d="M22.342 25.3658V27.2584C22.8045 27.2584 23.2497 27.2584 23.6971 27.2584C24.4326 27.2433 25.136 27.3339 25.1123 28.2867C25.0887 29.2395 24.366 29.2804 23.6433 29.2632C23.254 29.2632 22.8625 29.2632 22.3829 29.2632V31.1752C23.0454 31.1752 23.7186 31.0502 24.3036 31.2205C24.7037 31.3347 24.9811 31.8672 25.3145 32.2099C24.9876 32.5225 24.6886 33.0593 24.3294 33.1067C23.3422 33.2339 22.3291 33.1627 21.3182 33.152C20.5482 33.1412 20.2277 32.6346 20.2213 31.9577C20.1969 29.4802 20.1969 27.0033 20.2213 24.5272C20.2213 23.8374 20.5869 23.3589 21.3419 23.3481C22.3098 23.333 23.2905 23.2489 24.2369 23.389C24.6305 23.4451 25.1854 23.9603 25.2543 24.3397C25.3704 24.9864 24.8456 25.3528 24.1788 25.3658C23.611 25.3744 23.041 25.3658 22.342 25.3658Z" fill="white"/>
<path d="M35.445 29.2523C35.445 30.2224 35.445 31.0394 35.445 31.8585C35.445 32.5483 35.2471 33.1023 34.4664 33.1303C33.6856 33.1584 33.4361 32.6238 33.4382 31.9253C33.4382 29.4851 33.4382 27.045 33.4382 24.5961C33.4382 23.7447 33.8297 23.3222 34.6664 23.3286C35.5274 23.3023 36.3892 23.326 37.2474 23.3998C37.9635 23.5023 38.6161 23.8679 39.0784 24.4256C39.5406 24.9833 39.7796 25.6933 39.7488 26.4177C39.703 27.1394 39.4012 27.821 38.8979 28.3392C38.3946 28.8575 37.723 29.1783 37.0043 29.2437C36.5355 29.2804 36.0666 29.2523 35.445 29.2523ZM35.4966 27.5278C36.3311 27.2088 36.9764 27.0191 37.5464 26.6957C37.6625 26.6289 37.5937 25.8335 37.4453 25.7667C36.8473 25.5188 36.1849 25.4282 35.4966 25.2687V27.5278Z" fill="white"/>
</svg>
