<svg width="65" height="65" viewBox="0 0 65 65" fill="none" xmlns="http://www.w3.org/2000/svg">
<path d="M56.4835 19.0187C59.3291 20.0163 61.596 21.856 62.9829 24.6914C66.1757 31.2081 62.1847 39.0777 55.0427 40.3268C54.3162 40.4357 53.5822 40.4864 52.8477 40.4785C52.2091 40.4785 51.6005 40.3068 51.5606 39.5327C51.5186 38.7186 52.1033 38.5031 52.7938 38.3993C53.9911 38.2157 55.2582 38.1718 56.3857 37.7548C58.0905 37.109 59.5531 35.9505 60.572 34.4389C61.5909 32.9273 62.116 31.137 62.0749 29.3146C62.0274 27.4772 61.4199 25.6982 60.3337 24.2156C59.2474 22.7329 57.7342 21.6173 55.9966 21.018C54.3563 20.4533 54.4121 20.4493 54.2924 18.7433C53.7516 11.0533 48.1362 4.57646 40.5532 3.06998C33.096 1.59543 26.2593 4.68221 22.2404 11.197C21.7315 12.019 21.2047 12.2106 20.2668 11.8973C16.2399 10.5505 12.2568 12.8591 11.4067 16.9954C11.2411 17.7935 10.8081 18.1926 10.0558 18.3782C6.14656 19.3978 3.67012 21.8879 2.61648 25.7609C1.15577 31.1104 4.55614 36.8789 10.0099 38.086C11.6682 38.4512 13.4381 38.3315 15.1603 38.3913C16.5571 38.4392 16.8565 38.6926 16.8585 40.0894C16.8585 44.2796 16.8585 48.4697 16.8585 52.6599C16.8585 54.1046 16.623 54.326 15.1743 54.33C14.9749 54.341 14.775 54.341 14.5756 54.33C13.4302 54.2003 12.632 54.364 12.0353 55.6529C11.2371 57.3869 9.03206 58.0773 7.24608 57.5385C5.16076 56.912 3.98937 55.2818 4.03327 53.069C4.06882 52.1337 4.40624 51.235 4.99508 50.5074C5.58391 49.7797 6.39254 49.2623 7.29996 49.0324C8.22511 48.7976 9.20137 48.8681 10.0832 49.2335C10.965 49.5988 11.705 50.2394 12.193 51.0597C13.0091 52.4444 13.0091 52.4444 14.8191 52.2309V40.5543L11.6003 40.4026C6.19046 40.1492 1.42314 35.947 0.449331 30.4399C-0.704079 23.9212 3.31489 18.4979 8.27575 16.7899C9.07395 16.5125 9.47308 16.0935 9.74846 15.2954C11.1453 11.177 15.6133 8.69682 19.8458 9.68451C20.5083 9.84015 20.7757 9.6466 21.1249 9.15774C25.8184 2.62902 32.236 -0.326065 40.1362 0.942966C48.1183 2.22397 53.3166 7.09656 55.6813 14.8584C56.0784 16.1793 56.2101 17.576 56.4835 19.0187ZM6.03478 53.2565C6.02862 53.5673 6.08377 53.8763 6.19702 54.1657C6.31026 54.4552 6.47941 54.7195 6.69482 54.9436C6.91024 55.1677 7.16767 55.3472 7.45245 55.4718C7.73723 55.5964 8.04377 55.6637 8.35457 55.6699C8.66537 55.6761 8.97436 55.6209 9.26386 55.5077C9.55335 55.3945 9.81768 55.2253 10.0418 55.0099C10.2659 54.7945 10.4454 54.5371 10.5701 54.2524C10.6947 53.9676 10.762 53.6611 10.7681 53.3503C10.7713 52.7156 10.5224 52.1056 10.0759 51.6544C9.62955 51.2032 9.02225 50.9476 8.38751 50.944C8.08116 50.9413 7.77731 50.9991 7.49327 51.1139C7.20924 51.2287 6.95061 51.3983 6.73214 51.613C6.51367 51.8278 6.33961 52.0834 6.21996 52.3654C6.10031 52.6474 6.03739 52.9502 6.03478 53.2565Z" fill="white"/>
<path d="M47.4796 40.4924H45.484C44.3865 40.4924 43.289 40.4924 42.1934 40.4924C41.4671 40.4924 40.6868 40.4226 40.7168 39.4449C40.7467 38.5111 41.497 38.4113 42.2374 38.4093C44.1331 38.4093 46.0289 38.4093 47.9226 38.4093C49.1419 38.4093 49.519 38.8084 49.519 40.0355C49.527 43.7255 49.527 47.4156 49.519 51.1056V52.3287C49.8906 52.3095 50.2629 52.3095 50.6345 52.3287C51.307 52.4006 51.6742 52.1931 51.9535 51.5027C52.656 49.7747 54.2284 48.8788 56.1621 48.9327C57.0141 48.9627 57.8383 49.2438 58.5311 49.7409C59.2238 50.2379 59.7541 50.9286 60.0553 51.7261C60.451 52.7787 60.4323 53.9423 60.0029 54.9816C59.5736 56.0209 58.7658 56.8585 57.7425 57.325C55.5814 58.2948 52.9533 57.3989 52.0174 55.2319C51.6801 54.4617 51.283 54.2622 50.5427 54.3281C50.0159 54.3759 49.4811 54.342 48.9463 54.338C47.7709 54.3261 47.4776 54.0527 47.4716 52.8575C47.4577 49.9004 47.4716 46.9413 47.4716 43.9823L47.4796 40.4924ZM55.9426 50.944C55.3242 50.9499 54.7321 51.1947 54.2902 51.6273C53.8484 52.0598 53.5909 52.6465 53.5719 53.2645C53.5603 53.5838 53.6135 53.902 53.728 54.2002C53.8426 54.4984 54.0162 54.7703 54.2385 54.9997C54.4608 55.2291 54.7272 55.4112 55.0217 55.5351C55.3161 55.659 55.6325 55.7221 55.952 55.7206C56.2714 55.7191 56.5873 55.6531 56.8806 55.5265C57.1739 55.3999 57.4386 55.2153 57.6588 54.9839C57.8789 54.7524 58.05 54.4789 58.1618 54.1797C58.2736 53.8804 58.3237 53.5617 58.3092 53.2426C58.3048 52.9363 58.2401 52.6338 58.1188 52.3525C57.9974 52.0712 57.8219 51.8166 57.6021 51.6031C57.3823 51.3896 57.1226 51.2216 56.8379 51.1085C56.5531 50.9954 56.2489 50.9395 55.9426 50.944Z" fill="white"/>
<path d="M25.6207 40.4905C24.0123 40.4905 22.4279 40.4905 20.8315 40.4905C20.4683 40.4905 20.0452 40.5463 19.7579 40.3847C19.4366 40.2071 19.0495 39.818 19.0375 39.5067C19.0256 39.1955 19.3827 38.8004 19.6701 38.541C19.8317 38.3934 20.173 38.4113 20.4324 38.4093C22.3621 38.4093 24.2897 38.3934 26.2194 38.4093C27.4167 38.4093 27.7579 38.7625 27.7599 39.9657C27.7599 44.8882 27.7719 49.8086 27.7599 54.7311C27.7599 55.4135 27.8338 55.8226 28.602 56.1458C30.5756 56.9779 31.4856 59.043 30.9966 61.1701C30.5576 63.0896 28.6978 64.5322 26.6903 64.5083C24.6529 64.4843 22.7851 62.9479 22.4099 60.9925C22.212 60.0072 22.3563 58.9839 22.8189 58.0917C23.2816 57.1996 24.0348 56.492 24.9542 56.086C25.3972 55.8864 25.7524 55.7667 25.7524 55.1422C25.7245 50.4531 25.7364 45.7641 25.7305 41.0771C25.709 40.879 25.6724 40.6829 25.6207 40.4905ZM26.7203 57.7221C26.2517 57.7233 25.7939 57.8631 25.4047 58.1239C25.0154 58.3846 24.7119 58.7547 24.5326 59.1875C24.3532 59.6203 24.3059 60.0965 24.3966 60.5562C24.4873 61.0158 24.7119 61.4384 25.0422 61.7706C25.3726 62.1029 25.7939 62.33 26.2531 62.4234C26.7122 62.5167 27.1887 62.4722 27.6226 62.2954C28.0565 62.1185 28.4284 61.8173 28.6914 61.4296C28.9545 61.0419 29.097 60.585 29.1009 60.1165C29.1033 59.8026 29.0434 59.4913 28.9248 59.2007C28.8062 58.91 28.6311 58.6457 28.4098 58.4231C28.1884 58.2005 27.9251 58.0239 27.6352 57.9036C27.3452 57.7833 27.0342 57.7216 26.7203 57.7221Z" fill="white"/>
<path d="M36.5781 40.4904C34.8659 40.4904 33.2775 40.4904 31.6871 40.4904C31.3578 40.4904 30.9687 40.5562 30.7113 40.4086C30.3541 40.2091 29.8692 39.8319 29.8552 39.5147C29.8412 39.1974 30.2782 38.7764 30.6075 38.517C30.8071 38.3634 31.1802 38.4073 31.4755 38.4053C33.3034 38.3973 35.1306 38.3973 36.9572 38.4053C38.2742 38.4053 38.6095 38.7405 38.6115 40.0415C38.6115 44.9579 38.6235 49.8764 38.6115 54.7929C38.6115 55.4594 38.7532 55.8305 39.4417 56.1218C40.3644 56.5236 41.1184 57.234 41.5743 58.1312C42.0302 59.0283 42.1595 60.0562 41.94 61.0383C41.7098 62.0146 41.1601 62.886 40.3781 63.5142C39.5962 64.1425 38.6267 64.4916 37.6237 64.5062C35.6561 64.5062 33.8203 63.0935 33.3693 61.2279C32.8584 59.1108 33.7465 57.0377 35.6981 56.1677C36.4484 55.8345 36.61 55.4414 36.604 54.6971C36.5721 50.3453 36.5881 45.9935 36.5881 41.6417L36.5781 40.4904ZM39.9705 60.0726C39.9637 59.6087 39.8204 59.157 39.5585 58.7741C39.2965 58.3912 38.9275 58.0939 38.4976 57.9195C38.0676 57.745 37.5958 57.7011 37.1411 57.7933C36.6863 57.8855 36.2688 58.1096 35.9407 58.4376C35.6126 58.7657 35.3885 59.1832 35.2963 59.6379C35.2042 60.0926 35.2481 60.5643 35.4225 60.9943C35.597 61.4242 35.8943 61.7931 36.2772 62.055C36.6602 62.317 37.1119 62.4602 37.5758 62.467C37.8899 62.468 38.2011 62.4069 38.4914 62.2871C38.7817 62.1673 39.0453 61.9912 39.2672 61.769C39.4891 61.5467 39.6648 61.2827 39.7841 60.9923C39.9034 60.7018 39.964 60.3906 39.9625 60.0766L39.9705 60.0726Z" fill="white"/>
<path d="M37.2945 6.07102C41.525 6.32443 44.8296 7.85285 47.4716 10.8C47.9705 11.3567 48.2698 11.9293 47.6452 12.5219C47.0206 13.1145 46.4898 12.7394 46.0249 12.2246C43.738 9.68257 40.9064 8.28983 37.4741 8.14417C36.7657 8.11424 36.0772 7.94463 36.1411 7.03676C36.2049 6.12888 36.8754 6.05107 37.2945 6.07102Z" fill="white"/>
<path d="M50.9299 19.2402C50.9299 19.4716 51.0257 19.7869 50.912 19.9206C50.6206 20.2578 50.2534 20.7028 49.8822 20.7367C49.5969 20.7646 49.0661 20.2797 48.9803 19.9385C48.631 18.5678 48.4175 17.163 48.1441 15.7723C48.0244 15.1737 48.0344 14.623 48.7428 14.3915C49.4512 14.1601 49.9182 14.5332 50.0958 15.1757C50.4649 16.5106 50.7663 17.8614 51.0935 19.2063L50.9299 19.2402Z" fill="white"/>
</svg>
