<svg width="67" height="66" viewBox="0 0 67 66" fill="none" xmlns="http://www.w3.org/2000/svg">
<path d="M63.05 33.8374C62.7606 35.66 62.3978 38.1054 61.9616 40.5488C61.8609 41.1066 61.8588 41.4799 62.2636 41.9497C65.9841 46.2576 67.0181 51.1778 65.0341 56.5007C63.092 61.7083 59.1617 64.7745 53.6898 65.6009C49.424 66.2447 45.5859 65.0346 42.333 62.1697C41.8024 61.702 41.3704 61.5741 40.672 61.7503C27.6331 64.9151 14.8145 59.653 7.95425 48.1703C3.79743 41.222 2.81379 33.7158 4.74959 25.853C4.84811 25.5455 4.86111 25.2169 4.78722 24.9025C4.71334 24.5881 4.55534 24.2997 4.33013 24.0683C-2.81743 15.5071 1.81339 2.69268 12.7801 0.788341C17.1383 0.0354142 21.1085 1.16795 24.4788 4.09786C25.0304 4.58024 25.4813 4.65155 26.1566 4.47537C42.8448 0.136081 60.1474 11.6481 62.5656 28.7012C62.7816 30.1798 62.8529 31.6835 63.05 33.8374ZM25.0178 21.9458C28.5832 17.3779 28.2371 9.86122 22.7653 5.37721C17.6794 1.2057 10.0515 1.98589 5.7374 7.10748C1.45054 12.1934 2.70894 19.3703 5.25714 21.8514L10.7793 17.6799C8.02556 14.534 7.90601 10.8448 10.5465 8.21694C11.7052 7.07738 13.2502 6.41558 14.8745 6.36313C16.4988 6.31067 18.0834 6.87139 19.3132 7.93381C20.5567 8.98554 21.3395 10.4819 21.4943 12.1032C21.7439 14.3809 20.8652 16.2496 19.3971 17.6715L25.0178 21.9458ZM47.4378 54.3447C44.6946 51.0247 44.5834 47.4845 47.2596 44.8692C48.4232 43.7361 49.9706 43.0824 51.5941 43.0381C53.2176 42.9938 54.7984 43.5622 56.022 44.6301C58.9121 47.1468 58.8995 50.5822 56.1038 54.3846L61.6218 58.5917C65.1369 54.8544 64.6083 47.2139 60.4033 42.9879C58.1515 40.7133 55.095 39.4162 51.8946 39.3769C48.6941 39.3377 45.6068 40.5595 43.2999 42.7782C38.7509 47.1196 38.3377 54.1895 41.8611 58.5938L47.4378 54.3447ZM46.5108 19.9198C47.0205 24.0766 47.507 28.0699 47.9915 32.0233H60.8668C60.718 28.0756 59.7164 24.207 57.9306 20.6832C57.6244 20.0708 57.2552 19.8317 56.5589 19.8443C53.4864 19.8821 50.4139 19.859 47.3309 19.8653C47.0393 19.8695 46.731 19.9198 46.5108 19.9198ZM6.00796 34.2338C5.96871 34.3528 5.94338 34.476 5.93246 34.6008C6.08534 38.5183 7.13734 42.3482 9.0071 45.7941C9.17907 46.115 9.76002 46.3813 10.1564 46.3897C12.7382 46.4442 15.3199 46.417 17.9017 46.417H20.2087C19.7137 42.2937 19.2356 38.3005 18.7406 34.2527L6.00796 34.2338ZM34.4808 32.038H45.7432C45.6919 28.1103 45.1916 24.2015 44.252 20.3875C44.1954 20.1547 43.7067 19.8946 43.4131 19.8821C41.9849 19.8296 40.5545 19.859 39.1242 19.859H34.4829L34.4808 32.038ZM32.2996 46.4002V34.2799H21.0455C21.0556 38.1581 21.5316 42.0211 22.4633 45.7857C22.5262 46.0499 23.0359 46.3645 23.3526 46.3792C24.676 46.4463 26.0056 46.4086 27.3374 46.4086L32.2996 46.4002ZM32.3164 32.0526V19.8674C31.1251 19.8674 29.9821 19.8359 28.8454 19.8946C28.6209 19.9051 28.3252 20.2218 28.2162 20.4672C26.92 23.3952 24.6965 25.8155 21.8886 27.3547C21.6139 27.5078 21.272 27.8203 21.2448 28.0888C21.1168 29.3891 21.0854 30.6978 21.0162 32.0526H32.3164ZM45.781 34.238H34.4199V35.4398C34.4199 38.06 34.4199 40.6802 34.4199 43.3004C34.4199 46.5575 34.4199 46.5764 37.7022 46.3792C37.905 46.3485 38.0985 46.2733 38.2689 46.1591C38.4393 46.0449 38.5824 45.8945 38.6879 45.7186C39.9879 42.9051 42.136 40.5693 44.8309 39.0387C45.1056 38.8814 45.4601 38.5836 45.4915 38.3193C45.6383 37.0127 45.6887 35.6914 45.781 34.2464V34.238ZM43.5641 60.4038C48.1174 65.1059 56.4205 64.3886 59.8957 60.3493C56.3765 54.5251 47.1232 54.5251 43.5641 60.4122V60.4038ZM23.34 23.6593C21.1483 20.5951 18.1932 19.0725 14.4139 19.32C11.1966 19.5297 8.71557 21.0607 6.90771 23.7117C11.5176 28.2859 19.5229 27.8098 23.34 23.6593ZM56.15 17.8519C52.53 11.8453 44.7449 7.12216 39.8645 6.57686C40.2064 6.98374 40.5168 7.34657 40.8167 7.71779C43.0062 10.4233 44.3821 13.5399 45.4013 16.8305C45.632 17.5813 45.9592 17.898 46.7835 17.8792C48.671 17.8162 50.5586 17.8603 52.4462 17.8603L56.15 17.8519ZM10.6283 48.4534C14.3237 54.5524 22.4255 59.3174 26.8487 59.6236C24.0845 56.6392 22.4444 53.0863 21.2532 49.2944C21.0434 48.6485 20.7477 48.422 20.0745 48.4388C18.3967 48.4849 16.7188 48.4534 15.041 48.4534H10.6283ZM22.9226 48.508C24.0866 50.9639 25.0367 53.2059 26.1923 55.3346C27.2158 57.2222 28.6231 58.8413 30.5609 59.8837C31.0811 60.1647 31.6704 60.3178 32.2912 60.5527V48.508H22.9226ZM34.5185 5.7715C34.4783 5.93002 34.4496 6.09122 34.4325 6.25388C34.4325 9.85073 34.4325 13.4455 34.4095 17.0423C34.4095 17.7093 34.6821 17.8645 35.284 17.8603C37.8008 17.8372 40.3175 17.8603 42.8343 17.8414C43.0767 17.8135 43.3157 17.7608 43.5473 17.6841C42.4777 14.2362 41.0893 11.0588 38.711 8.4057C37.5764 7.14942 36.2761 6.12804 34.5185 5.7715ZM15.1207 17.2248C15.9957 17.216 16.8483 16.9478 17.5708 16.4541C18.2932 15.9604 18.8529 15.2634 19.1789 14.4514C19.505 13.6394 19.5828 12.749 19.4024 11.8927C19.2221 11.0365 18.7917 10.2531 18.1658 9.64157C17.54 9.0301 16.7467 8.6181 15.8865 8.45773C15.0263 8.29737 14.1379 8.39586 13.3337 8.74074C12.5295 9.08562 11.8458 9.66137 11.369 10.3951C10.8923 11.1288 10.644 11.9875 10.6556 12.8624C10.6829 14.0286 11.1654 15.1378 11.9997 15.9529C12.8341 16.7681 13.9542 17.2246 15.1207 17.2248ZM51.754 53.9274C52.9207 53.9163 54.0375 53.4526 54.8689 52.6341C55.7004 51.8156 56.1815 50.7062 56.2108 49.5398C56.2422 47.172 54.2163 45.0936 51.84 45.0579C51.2505 45.0407 50.6635 45.1413 50.1133 45.3537C49.5631 45.5661 49.0607 45.886 48.6357 46.2949C48.2106 46.7038 47.8714 47.1933 47.6378 47.7348C47.4041 48.2764 47.2809 48.8591 47.2752 49.4488C47.2694 50.0386 47.3814 50.6235 47.6044 51.1695C47.8275 51.7155 48.1572 52.2115 48.5743 52.6285C48.9913 53.0455 49.4873 53.3752 50.0333 53.5982C50.5793 53.8212 51.1643 53.9331 51.754 53.9274ZM6.57632 26.2599C6.29948 28.3572 6.05621 30.1818 5.81083 32.0421H18.9818V28.5732C14.6278 29.6135 10.5759 28.9906 6.57632 26.2599ZM47.765 37.795C52.1357 36.7044 56.194 37.3252 60.1642 39.972C60.4452 37.9334 60.6969 36.1151 60.9632 34.1835C56.5904 34.1835 52.4713 34.1835 48.3522 34.2065C48.2211 34.2397 48.1006 34.3058 48.0022 34.3987C47.9038 34.4916 47.8308 34.6081 47.7902 34.7372C47.7314 35.704 47.765 36.6772 47.765 37.795ZM32.308 17.7785V5.78828C30.7455 6.01269 29.6465 6.90194 28.5601 7.83733C28.0652 8.25679 27.9309 8.65108 28.2267 9.27607C29.0656 11.0755 29.3781 13.003 29.355 14.9765C29.355 15.8972 29.2313 16.82 29.162 17.7785H32.308ZM34.4808 60.4982C36.1355 60.1542 37.3016 59.2796 38.3104 58.2058C38.5642 57.9353 38.6439 57.3543 38.5768 56.9475C38.2643 55.1375 37.7819 53.3527 37.5281 51.5365C37.3981 50.5675 37.6288 49.5503 37.7001 48.5164H34.4703L34.4808 60.4982Z" fill="white"/>
</svg>
