<svg width="46" height="65" viewBox="0 0 46 65" fill="none" xmlns="http://www.w3.org/2000/svg">
<path d="M22.9757 55.5762C20.8271 55.5762 18.6784 55.5525 16.5264 55.5762C14.9751 55.6034 14.2181 54.972 14.2758 53.3529C14.3403 51.6557 14.2487 49.9585 14.2996 48.2613C14.3947 45.0876 13.0742 42.8065 10.3893 41.072C-0.78844 33.8487 -3.15767 19.0085 5.44032 8.86603C11.5977 1.60543 19.6967 -0.855502 28.8412 1.54433C37.8907 3.9204 43.7019 9.96582 45.2361 19.2698C46.7331 28.3532 43.3285 35.7496 35.6877 40.9193C32.7923 42.8778 31.4413 45.3014 31.5431 48.6992C31.5941 50.3353 31.5431 51.9782 31.5431 53.6177C31.5669 54.9754 30.9016 55.5728 29.5778 55.5661C27.3884 55.5661 25.1821 55.5728 22.9757 55.5762ZM16.6825 53.1153H25.8643C29.1942 53.1153 29.1841 53.1153 29.201 49.8465C29.201 48.5464 29.1195 47.226 29.33 45.9565C29.8188 43.017 31.4447 40.865 33.9566 39.1678C40.8438 34.5955 44.1397 28.1428 42.9042 19.9046C41.2952 9.22924 31.7434 2.25376 20.7015 3.27207C12.426 4.046 5.27737 10.1627 3.29504 18.1633C1.31272 26.1638 4.57129 34.4563 11.7368 39.032C15.1754 41.218 16.7843 44.2118 16.6893 48.224C16.652 49.8126 16.6825 51.3774 16.6825 53.1153Z" fill="white"/>
<path d="M22.9214 57.6604C25.2975 57.6604 27.6736 57.5824 30.0496 57.7147C30.6199 57.7487 31.1528 58.4853 31.7027 58.896C31.1697 59.2728 30.6436 59.9686 30.1039 59.9788C25.302 60.0648 20.4989 60.0648 15.6948 59.9788C15.1754 59.9788 14.6764 59.2524 14.1537 58.8654C14.6493 58.4649 15.1278 57.7453 15.6438 57.7181C18.0572 57.5925 20.491 57.6604 22.9214 57.6604Z" fill="white"/>
<path d="M22.8875 64.4899C20.5114 64.4899 18.1354 64.4899 15.7593 64.4899C14.87 64.4899 14.0146 64.293 14.208 63.2645C14.2929 62.8097 15.1755 62.1953 15.7084 62.1851C20.4606 62.1014 25.2127 62.1014 29.9649 62.1851C30.5521 62.1851 31.1257 62.8979 31.7095 63.2815C31.1461 63.682 30.5996 64.3915 30.0123 64.4254C27.6397 64.5612 25.2636 64.4899 22.8875 64.4899Z" fill="white"/>
<path d="M32.8839 32.7965C31.4854 32.3552 30.5622 32.0973 29.6626 31.7782C28.366 31.2996 27.6702 31.6797 27.3205 33.0511C26.3396 36.88 26.3022 36.8732 22.3545 36.8562C19.5134 36.8562 19.5134 36.8562 18.9126 34.1169C18.2881 31.269 18.1591 31.1944 15.4538 32.0803C12.7484 32.9662 12.7382 32.9628 11.3363 30.4985C11.282 30.4001 11.2345 30.2982 11.1768 30.1998C9.11302 26.5746 8.81774 27.1449 12.056 24.297C13.1082 23.3771 13.1829 22.5997 12.1103 21.6527C8.73964 18.7335 9.15372 19.3242 11.2243 15.6107C12.7043 12.9563 12.7281 12.9699 15.6948 13.9135C18.0335 14.6603 18.3017 14.5007 18.8482 11.9991C19.4863 9.10365 19.4863 9.10366 22.4835 9.10027H22.9927C26.9675 9.10027 26.4991 8.95091 27.2493 12.4947C27.6532 14.3921 28.0707 14.5992 29.9648 14.0086C33.3897 12.9393 33.0638 12.5761 35.0224 16.0452C35.2464 16.4389 35.4467 16.8497 35.7013 17.2196C36.6178 18.5197 36.4786 19.6161 35.148 20.5529C34.6898 20.8924 34.3062 21.3099 33.8751 21.6697C32.8568 22.5149 32.9111 23.3058 33.848 24.2189C36.6585 26.9649 36.6653 26.9955 34.6796 30.4069C34.1309 31.2397 33.5312 32.0378 32.8839 32.7965ZM32.144 16.0078C30.3008 16.0078 28.8718 17.6507 26.8759 16.3642C26.3061 16.0291 25.829 15.5572 25.4876 14.9911C25.1462 14.4251 24.9514 13.7829 24.9207 13.1226C24.7849 11.8531 24.2656 11.4696 22.9757 11.4254C21.5874 11.3779 21.2785 12.0534 21.0477 13.1464C20.3145 16.5408 18.7565 17.4607 15.4402 16.3167C14.2589 15.906 13.5291 16.018 13.0878 17.2434C12.9052 17.6771 12.6955 18.0988 12.4599 18.5061C13.4205 20.0506 15.3418 20.5428 15.3655 22.8917C15.3893 25.3119 13.373 25.838 12.5074 27.3383C13.6581 30.1014 13.6717 30.1421 16.3261 29.212C17.3206 28.8726 18.0471 29.083 19.0009 29.47C20.6472 30.1489 20.8779 31.4048 21.0714 32.8101C21.2174 33.8997 21.6281 34.3375 22.8909 34.4428C24.6967 34.5955 24.7714 33.5263 25.0225 32.3416C25.62 29.5515 27.4971 28.4008 30.1141 29.4259C31.6212 30.0165 32.5547 29.8739 33.1046 28.2887C33.2287 27.9915 33.3716 27.7024 33.5323 27.4232C32.7244 25.8074 30.5894 25.4171 30.5588 22.9765C30.5283 20.4783 32.7889 20.0709 33.5526 18.3771C33.0706 17.5625 32.5886 16.7512 32.144 16.0078Z" fill="white"/>
<path d="M23.9701 41.313H21.869V39.0999H23.9803L23.9701 41.313Z" fill="white"/>
<path d="M21.8047 43.8723H23.9805V46.0277H21.8047V43.8723Z" fill="white"/>
<path d="M23.9328 50.8818H21.869V48.6754H23.9497L23.9328 50.8818Z" fill="white"/>
<path d="M29.1467 22.99C29.1253 24.1998 28.7474 25.3764 28.0602 26.3723C27.3731 27.3683 26.4073 28.1393 25.2839 28.5887C24.1605 29.0382 22.9294 29.1461 21.7449 28.899C20.5604 28.6519 19.4752 28.0607 18.6252 27.1995C17.7752 26.3383 17.1984 25.2455 16.9668 24.0579C16.7352 22.8703 16.8592 21.6407 17.3234 20.5233C17.7875 19.4059 18.5711 18.4503 19.576 17.7762C20.5808 17.1022 21.7623 16.7397 22.9723 16.7342C23.7917 16.7281 24.604 16.8864 25.3612 17.1996C26.1184 17.5129 26.8051 17.9748 27.3808 18.558C27.9564 19.1412 28.4093 19.8339 28.7126 20.5952C29.0159 21.3564 29.1635 22.1708 29.1467 22.99ZM19.2554 22.912C19.2562 23.9124 19.6503 24.8725 20.3527 25.585C21.055 26.2975 22.0093 26.7053 23.0097 26.7205C24.9954 26.7205 26.8147 24.8841 26.7808 22.8882C26.7467 21.9182 26.3445 20.9976 25.656 20.3135C24.9675 19.6294 24.0443 19.2332 23.0741 19.2053C22.579 19.194 22.0865 19.2814 21.6255 19.4623C21.1644 19.6432 20.7439 19.914 20.3885 20.2589C20.0331 20.6039 19.75 21.0161 19.5554 21.4716C19.3609 21.9271 19.2589 22.4167 19.2554 22.912Z" fill="white"/>
</svg>
