<svg width="202" height="675" viewBox="0 0 202 675" fill="none" xmlns="http://www.w3.org/2000/svg">
<path d="M0.786896 152.034L-3.22983 170.275C-8.09216 192.675 -12.582 215.144 -16.6994 237.685C-20.1725 256.671 -23.4241 275.693 -26.4543 294.75C-29.4743 313.455 -32.2528 332.185 -34.7897 350.94C-36.7376 365.164 -38.4742 379.419 -40.1956 393.674C-41.8667 407.567 -43.4624 421.465 -44.9825 435.367C-46.1754 446.406 -47.172 457.475 -48.1989 468.589C-49.3264 480.841 -50.4237 493.092 -51.4908 505.344C-52.0545 511.716 -52.5579 518.094 -53.0008 524.477C-54.0276 539.169 -55.0998 553.847 -56.0209 568.54C-57.244 588.896 -58.3916 609.312 -59.2222 629.653C-59.6752 640.857 -60.3094 652.077 -60.5963 663.297C-60.5963 666.317 -60.8832 669.337 -61.0342 672.357C-61.1852 675.091 -61.1852 675.106 -63.9788 675.091L-96.943 674.864C-107.09 674.864 -117.223 674.864 -127.37 674.592C-150.187 674.049 -173.004 674.23 -195.821 673.928C-201.181 673.928 -201.272 673.837 -200.94 668.643C-200.154 656.124 -199.248 643.606 -198.403 631.087C-197.829 622.54 -197.316 613.978 -196.727 605.416C-195.836 592.414 -194.899 579.428 -194.009 566.426C-193.193 554.738 -192.498 543.065 -191.577 531.393C-190.52 517.062 -189.358 502.701 -188.24 488.446C-187.44 478.344 -186.73 468.227 -185.824 458.124C-184.752 445.394 -183.604 432.649 -182.457 419.919C-181.656 410.859 -180.856 401.889 -179.995 392.874C-178.989 381.951 -177.886 371.028 -176.688 360.106C-175.682 350.28 -174.625 340.445 -173.517 330.599C-172.249 319.213 -170.995 307.827 -169.606 296.441C-168.096 284.225 -166.496 272.039 -164.865 259.837C-163.128 246.805 -161.437 233.758 -159.504 220.757C-157.073 204.539 -154.43 188.351 -151.848 172.148C-148.133 148.802 -143.845 125.547 -139.285 102.352C-132.902 69.8053 -125.689 37.4345 -117.646 5.2399C-116.136 -0.664463 -117.51 0.105727 -111.137 0.105727H113.859C118.721 0.105727 118.766 0.105727 119.793 4.63593C127.495 38.1443 134.667 71.7584 141.1 105.524C145.932 130.893 150.417 156.312 154.554 181.782C158.632 207.03 162.392 232.324 165.834 257.663C168.613 278.336 171.361 299.024 173.702 319.772C176.042 340.52 178.474 361.48 180.648 382.349C182.369 398.794 183.668 415.268 185.314 431.713C186.96 449.018 188.334 466.339 189.708 483.659C191.309 503.26 192.759 522.891 194.057 542.552C195.22 560.507 196.488 578.431 197.606 596.371C198.663 613.117 199.599 629.864 200.626 646.611C201.094 654.69 201.577 662.753 201.985 670.772C202.136 673.596 201.985 673.611 199.327 673.686C198.723 673.686 198.119 673.686 197.515 673.686H67.7422C62.608 673.686 63.4687 673.852 63.212 669.488C62.457 652.002 61.853 634.515 60.9772 617.029C60.0258 598.349 58.8631 579.685 57.7306 561.02C56.9605 548.124 56.2205 535.228 55.239 522.362C54.0159 506.114 52.6266 489.881 51.2374 473.663C50.2408 462.111 49.229 450.574 48.0512 439.052C46.5412 424.661 44.9556 410.27 43.2946 395.894C41.8651 383.552 40.355 371.22 38.7644 358.898C37.0732 345.971 35.3518 333.06 33.3736 320.18C30.6857 302.542 27.8569 284.924 24.8871 267.327C20.5382 241.757 15.6356 216.297 10.1794 190.948C7.68779 179.26 5.03011 167.617 2.43283 155.975C2.14592 154.676 1.79861 153.423 1.46642 152.139L0.786896 152.034Z" fill="#0583BF" fill-opacity="0.08"/>
</svg>
