<svg width="285" height="481" viewBox="0 0 285 481" fill="none" xmlns="http://www.w3.org/2000/svg">
<path d="M142.712 108.283L139.872 121.281C136.434 137.243 133.259 153.254 130.348 169.316C127.892 182.845 125.593 196.399 123.45 209.979C121.315 223.307 119.35 236.654 117.557 250.018C116.179 260.154 114.952 270.312 113.734 280.47C112.553 290.369 111.425 300.272 110.35 310.179C109.506 318.045 108.802 325.932 108.076 333.851C107.278 342.582 106.502 351.312 105.748 360.042C105.349 364.583 104.993 369.127 104.68 373.675C103.954 384.145 103.196 394.604 102.545 405.074C101.68 419.579 100.869 434.127 100.281 448.621C99.961 456.605 99.5126 464.6 99.3097 472.595C99.3097 474.747 99.1069 476.899 99.0001 479.051C98.8933 480.999 98.8933 481.009 96.9181 480.999L73.6103 480.837C66.4354 480.837 59.2711 480.837 52.0962 480.644C35.9633 480.256 19.8304 480.385 3.69749 480.17C-0.0928376 480.17 -0.156883 480.106 0.0780107 476.404C0.633213 467.484 1.27382 458.564 1.87173 449.643C2.27746 443.553 2.64046 437.452 3.05686 431.351C3.6868 422.086 4.34879 412.832 4.97873 403.568C5.55529 395.239 6.04642 386.921 6.69771 378.604C7.4451 368.392 8.26725 358.159 9.05735 348.001C9.62322 340.803 10.125 333.593 10.7656 326.395C11.5237 317.324 12.3352 308.242 13.1466 299.171C13.7125 292.715 14.2784 286.323 14.887 279.899C15.5988 272.116 16.3782 264.333 17.2252 256.549C17.937 249.548 18.6844 242.539 19.4674 235.524C20.3643 227.41 21.2504 219.297 22.2327 211.184C23.3004 202.479 24.4322 193.795 25.5853 185.101C26.8131 175.815 28.0089 166.518 29.3756 157.253C31.0946 145.697 32.9631 134.162 34.7888 122.616C37.4154 105.98 40.4476 89.4094 43.6721 72.8815C48.1849 49.6895 53.2849 26.623 58.9722 3.68196C60.0398 -0.52532 59.0682 0.0234954 63.5739 0.0234954H222.661C226.099 0.0234954 226.131 0.0234955 226.857 3.25159C232.302 27.1287 237.374 51.0812 241.922 75.1413C245.339 93.2186 248.51 111.332 251.435 129.481C254.318 147.472 256.977 165.496 259.411 183.551C261.375 198.282 263.319 213.024 264.974 227.809C266.629 242.593 268.348 257.529 269.885 272.399C271.102 284.117 272.02 295.857 273.184 307.575C274.348 319.906 275.32 332.248 276.291 344.59C277.423 358.557 278.448 372.546 279.366 386.555C280.188 399.349 281.085 412.122 281.875 424.905C282.623 436.839 283.285 448.772 284.011 460.705C284.342 466.462 284.683 472.208 284.972 477.921C285.078 479.933 284.972 479.944 283.092 479.998C282.665 479.998 282.238 479.998 281.811 479.998H190.053C186.423 479.998 187.032 480.116 186.85 477.007C186.316 464.546 185.889 452.086 185.27 439.625C184.597 426.315 183.775 413.015 182.974 399.715C182.43 390.526 181.907 381.337 181.213 372.169C180.348 360.591 179.366 349.023 178.383 337.467C177.679 329.235 176.963 321.014 176.131 312.804C175.063 302.55 173.942 292.295 172.767 282.051C171.757 273.257 170.689 264.469 169.564 255.689C168.368 246.478 167.151 237.278 165.753 228.099C163.852 215.531 161.852 202.977 159.752 190.438C156.677 172.217 153.211 154.075 149.353 136.012C147.591 127.684 145.712 119.388 143.875 111.091C143.673 110.166 143.427 109.273 143.192 108.358L142.712 108.283Z" fill="white" fill-opacity="0.27"/>
</svg>
