<svg width="44" height="48" viewBox="0 0 44 48" fill="none" xmlns="http://www.w3.org/2000/svg">
<path d="M1.64879 20.6307C1.20908 18.0239 0.699619 15.4937 0.380411 12.9386C-0.00644394 9.89529 -0.253786 6.82508 0.477645 3.79004C0.8645 2.18666 1.38243 0.550171 3.25963 0.0950178C5.02901 -0.335308 6.28258 0.769472 7.36704 1.93218C9.6924 4.43345 11.1426 7.46436 12.4934 10.5387C12.6583 10.9173 12.8147 11.3001 12.9014 11.5049C14.1698 10.5573 15.529 9.68012 16.6706 8.57948C17.0173 8.24226 17.0215 7.06093 16.6896 6.67818C16.4917 6.47347 16.3379 6.23189 16.2373 5.96782C16.1367 5.70374 16.0914 5.42257 16.1041 5.14101C16.1041 4.34863 16.1189 3.55418 16.1041 2.7618C16.0893 2.04597 16.3916 1.65909 17.161 1.66116C19.275 1.66116 21.389 1.66116 23.5029 1.66116C24.2661 1.66116 24.5768 2.03563 24.5599 2.7556C24.5451 3.6866 24.5789 4.61759 24.543 5.54859C24.5383 5.84747 24.4369 6.13721 24.2534 6.37614C23.3634 7.36299 23.5093 8.26088 24.581 8.96843C25.5344 9.5891 26.3885 10.3691 27.3672 11.1408C29.3692 10.1849 31.3838 10.216 33.2314 12.0242C33.9332 10.6587 34.8401 9.54152 36.4023 9.23325C36.9809 9.09501 37.582 9.07249 38.1696 9.16705C38.4994 9.23946 38.7319 9.73598 39.0152 10.0401C38.696 10.2822 38.381 10.7332 38.0597 10.729C36.7384 10.7146 35.6645 11.0001 35.0473 12.3511C39.1188 11.5235 42.2749 15.0261 41.2919 21.1438C41.6069 21.0383 41.8817 20.9369 42.1586 20.8521C43.5031 20.4176 44.002 20.759 44.002 22.1224C44.002 25.9498 44.002 29.7772 44.002 33.6046C44.002 37.9134 44.002 42.2229 44.002 46.533C44.002 47.8488 43.8646 47.9812 42.5751 47.9812H1.45853C0.160554 47.9812 0.0316022 47.8468 0.0316022 46.533C0.0316022 38.4989 0.0316022 30.4647 0.0316022 22.4306C0.0316022 20.7817 0.0337214 20.7776 1.64879 20.6307ZM33.8021 22.5258C33.4089 22.9706 33.2314 23.1816 33.0411 23.3823C31.5212 24.9733 29.384 24.9567 27.8619 23.343C26.5555 21.9589 25.9297 21.9651 24.5937 23.3782C23.0843 24.9712 20.9281 24.9588 19.4145 23.3492C18.106 21.9589 17.476 21.963 16.1442 23.3719C14.6348 24.9691 12.4807 24.9629 10.965 23.3554C9.65012 21.9631 9.04976 21.9631 7.69048 23.3554C6.13883 24.9505 4.07985 24.9443 2.49861 23.3554C2.29989 23.1485 2.0758 22.9768 1.79464 22.7347V46.2786H33.8021V22.5258ZM42.2411 46.2992V22.772C39.9157 24.8698 38.7467 25.4843 35.6011 22.8071V46.2992H42.2411ZM11.874 21.7334V15.7068C11.874 15.0013 12.0854 14.213 11.8338 13.6048C10.8635 11.2545 9.87843 8.88982 8.63753 6.66991C7.74607 5.11633 6.64621 3.68647 5.36724 2.41837C4.06927 1.11291 2.94042 1.43566 2.43729 3.21076C2.01621 4.66259 1.79161 6.16223 1.76927 7.67126C1.76468 12.3881 2.45821 17.0808 3.82827 21.6031C4.26375 23.0678 5.27845 23.3182 6.42422 22.2361C6.83052 21.811 7.28759 21.4352 7.7856 21.1169C9.19984 20.3121 10.5295 20.7052 11.874 21.7334ZM18.6387 6.6637C18.6076 7.2067 18.6076 7.75098 18.6387 8.29398C18.7571 9.25187 18.4041 9.77529 17.4549 10.156C15.4509 10.9835 13.9837 12.4855 13.7956 14.5978C13.5546 17.3143 13.7364 20.0659 13.7364 23.0554C14.322 22.5713 14.8547 22.1803 15.3282 21.7251C16.7678 20.3431 18.7909 20.3266 20.2199 21.7127C20.5434 22.0293 20.8182 22.4575 21.2072 22.623C21.6445 22.8007 22.1304 22.8277 22.5854 22.6996C22.7609 22.6458 22.7969 22.0168 22.8117 21.6465C22.8117 20.6907 22.6764 19.7225 22.7757 18.7791C23.0357 16.2964 24.0948 14.1137 26.0397 12.0759C24.9277 11.3373 23.9765 10.5925 22.9174 10.0401C22.2599 9.69667 21.9555 9.34083 22.0062 8.62086C22.0506 7.98158 22.0062 7.33609 22.0062 6.65543L18.6387 6.6637ZM24.3887 21.1789C26.4434 20.2231 27.9211 20.8458 29.2339 22.2734C30.0795 23.1961 30.8912 23.1133 31.8467 22.1658C33.8487 20.1776 35.5567 20.1776 37.5396 22.1286C37.88 22.4637 38.3387 22.683 38.7594 22.9561C39.903 20.8521 40.0827 18.148 39.2921 16.1867C38.3577 13.8737 36.4446 13.2614 34.3074 14.6268C33.5421 15.1171 33.0559 15.0406 32.6352 14.213C31.4514 11.9 29.3713 11.4966 27.3926 13.2365C25.0419 15.3075 24.2851 17.9805 24.3929 21.1789H24.3887ZM22.8243 3.38661H17.8396V4.92171H22.8264L22.8243 3.38661Z" fill="white"/>
</svg>
