<svg width="48" height="47" viewBox="0 0 48 47" fill="none" xmlns="http://www.w3.org/2000/svg">
<g clip-path="url(#clip0_804_288)">
<path d="M0 2.23249V0.0152757C2.16654 0.0152757 4.28802 -0.0419184 6.402 0.0686564C6.76246 0.0858145 7.26938 0.756889 7.40268 1.21253C8.16491 3.85489 8.8702 6.51377 9.51853 9.18917C9.73068 10.0604 10.1005 10.3025 10.9791 10.3006C22.5879 10.2663 34.1953 10.2587 45.8016 10.2778C46.1151 10.2778 46.4286 10.2663 46.7403 10.2778C47.7297 10.3292 48.1821 10.8993 47.9305 11.8506C46.3047 18.0275 44.6864 24.2083 43.0136 30.3719C42.4128 32.5853 40.7475 33.6872 38.2374 33.691C32.0419 33.7012 25.8465 33.7012 19.651 33.691H16.1496C16.388 34.5756 16.6302 35.4831 16.8893 36.4439H18.0495C24.9321 36.4439 31.8166 36.4325 38.7011 36.4439C39.981 36.4543 41.2129 36.9402 42.1641 37.8099C43.1154 38.6796 43.72 39.8728 43.864 41.1643C43.9984 42.4242 43.6775 43.6907 42.9608 44.7281C42.2442 45.7655 41.1807 46.5031 39.9684 46.8037C37.9934 47.2822 36.2136 46.7827 34.8618 45.2156C33.465 43.5989 33.1834 41.7268 33.9494 39.7097C34.0601 39.4199 34.2085 39.1378 34.4093 38.7145H21.4232C22.0146 40.0262 22.4783 41.2749 22.1742 42.6971C21.6767 44.9639 19.9044 46.716 17.7923 46.918C15.316 47.1544 13.2508 45.9648 12.3478 43.7628C11.4448 41.5609 12.008 39.1225 13.8779 37.685C14.5763 37.1493 14.5913 36.6918 14.3904 35.9692C12.2414 28.065 10.1068 20.157 7.98655 12.2452C7.168 9.19489 6.37823 6.13374 5.61725 3.0618C5.45955 2.43076 5.20985 2.17911 4.54337 2.20389C3.03017 2.26871 1.52822 2.23249 0 2.23249ZM10.5136 12.6322C10.4873 12.7619 10.4685 12.7981 10.476 12.8229C12.0042 18.5003 13.5231 24.1816 15.0757 29.8514C15.3798 30.9648 16.1608 31.4986 17.3173 31.5005C24.4177 31.5005 31.5181 31.5005 38.6185 31.5005C39.8107 31.5005 40.5523 30.9286 40.8714 29.7561C41.2976 28.2309 41.6862 26.7057 42.088 25.171C43.1788 21.0149 44.2677 16.857 45.3754 12.6303L10.5136 12.6322ZM20.0377 41.8278C20.047 41.2356 19.8838 40.6539 19.5686 40.1557C19.2533 39.6574 18.8001 39.2649 18.2659 39.0274C17.7316 38.7899 17.1402 38.718 16.5658 38.8207C15.9915 38.9235 15.4598 39.1963 15.0377 39.605C14.6156 40.0136 14.3218 40.5398 14.1932 41.1174C14.0647 41.6951 14.1071 42.2984 14.3152 42.8517C14.5232 43.4049 14.8877 43.8834 15.3627 44.227C15.8377 44.5706 16.4021 44.7639 16.985 44.7828C17.7756 44.8017 18.5413 44.5011 19.1138 43.947C19.6862 43.3929 20.0185 42.6306 20.0377 41.8278ZM41.6506 41.7058C41.6565 41.3078 41.584 40.9126 41.4373 40.5435C41.2907 40.1744 41.0728 39.8388 40.7966 39.5564C40.5203 39.274 40.1912 39.0506 39.8287 38.8993C39.4662 38.748 39.0775 38.6718 38.6855 38.6752C38.2936 38.6786 37.9062 38.7616 37.5463 38.9193C37.1864 39.0769 36.8612 39.3061 36.5898 39.5932C36.3184 39.8804 36.1062 40.2198 35.9658 40.5914C35.8254 40.963 35.7597 41.3594 35.7723 41.7573C35.7664 42.1552 35.839 42.5504 35.9856 42.9195C36.1323 43.2886 36.3501 43.6243 36.6264 43.9066C36.9027 44.189 37.2317 44.4124 37.5943 44.5637C37.9568 44.7151 38.3455 44.7913 38.7374 44.7878C39.1294 44.7844 39.5167 44.7014 39.8766 44.5438C40.2365 44.3861 40.5618 44.1569 40.8332 43.8698C41.1046 43.5826 41.3167 43.2432 41.4571 42.8716C41.5975 42.5 41.6632 42.1036 41.6506 41.7058Z" fill="white"/>
</g>
<defs>
<clipPath id="clip0_804_288">
<rect width="48" height="47" fill="white"/>
</clipPath>
</defs>
</svg>
