<svg width="57" height="47" viewBox="0 0 57 47" fill="none" xmlns="http://www.w3.org/2000/svg">
<g clip-path="url(#clip0_170_461)">
<path d="M16.8796 2.56974C13.1472 4.53579 9.48831 6.63573 5.83203 8.73413C5.03551 9.19127 4.23911 9.64834 3.44211 10.1039C3.30814 10.1773 3.18069 10.3292 3.09565 10.4784C3.05215 10.5547 3.01679 10.6354 2.99659 10.7118C2.97712 10.7854 2.96823 10.8682 2.9935 10.9405L2.99354 10.9406C3.81212 13.2752 4.66412 15.5979 5.5292 17.9561C5.71142 18.4529 5.89421 18.9512 6.0774 19.4515L6.11058 19.5421L6.20233 19.5122L14.1261 16.9256L14.1283 44.6395L14.1283 44.7395L16.9266 2.65801M16.8796 2.56974C16.8797 2.56967 16.8798 2.5696 16.88 2.56953L16.9266 2.65801M16.8796 2.56974C16.8794 2.56981 16.8793 2.56989 16.8792 2.56997L16.9266 2.65801M16.8796 2.56974C17.3569 2.31279 17.9369 2.25823 18.5278 2.26433C18.8122 2.26727 19.1029 2.28441 19.3889 2.30127L19.4252 2.30341C19.7238 2.321 20.0168 2.33761 20.2972 2.33761C20.377 2.33761 20.4445 2.38471 20.4937 2.43085C20.5459 2.47977 20.5954 2.54466 20.6404 2.61293C20.7307 2.75008 20.8128 2.91712 20.8692 3.04227L20.8693 3.04237C21.6079 4.68507 22.6189 5.95853 23.8896 6.82153C25.1599 7.68426 26.6954 8.14069 28.49 8.14069C30.2844 8.14069 31.8166 7.68213 33.0879 6.81931C34.3596 5.95616 35.3758 4.68461 36.1311 3.05023L36.1364 3.03874L36.1371 3.03916C36.2563 2.84854 36.4149 2.68511 36.6023 2.55954C36.7897 2.43398 37.0017 2.3491 37.2245 2.31043L37.2278 2.30985L37.2278 2.30991C38.8406 2.08566 40.2749 2.49294 41.7008 3.34347M16.9266 2.65801C17.5988 2.29589 18.5003 2.34905 19.3838 2.40115C19.6941 2.41944 20.0021 2.43761 20.2972 2.43761C20.4597 2.43761 20.6668 2.83653 20.7781 3.08337C22.2675 6.39597 24.8656 8.24069 28.49 8.24069C32.1144 8.24069 34.6991 6.38714 36.2219 3.09219C36.3336 2.91357 36.4822 2.76037 36.6579 2.64262C36.8337 2.52487 37.0326 2.44524 37.2416 2.40896C38.8267 2.18856 40.2382 2.58748 41.6497 3.4294M41.7008 3.34347L41.6497 3.4294M41.7008 3.34347C45.4847 5.59588 49.3369 7.7247 53.1889 9.85349L53.2748 9.90092C53.2748 9.90093 53.2748 9.90094 53.2748 9.90094L50.8153 19.4061C51.0885 18.6603 51.3575 17.9186 51.6252 17.1804C52.3282 15.2418 53.0223 13.3277 53.7607 11.4299C54.0457 10.696 53.921 10.372 53.2264 9.98847L53.1398 9.94057C49.2882 7.81205 45.4349 5.68261 41.6497 3.4294M41.7008 3.34347C41.7008 3.34349 41.7009 3.3435 41.7009 3.34352L41.6497 3.4294M11.9751 20.0364V19.8987L11.8442 19.9413L4.79591 22.2346C3.88326 19.7574 2.98073 17.3046 2.07953 14.8555C1.4271 13.0823 0.775354 11.3111 0.120966 9.53389C0.181531 9.49256 0.238235 9.45243 0.292016 9.41436C0.3149 9.39816 0.337255 9.38233 0.359154 9.36695C0.45159 9.30202 0.536808 9.24429 0.625869 9.19391L0.625926 9.19388C5.76862 6.28024 10.915 3.37175 16.0652 0.468397L16.0653 0.46856L16.0704 0.465238C16.3628 0.27599 16.6965 0.158301 17.044 0.121933C18.3722 0.0956982 19.7 0.0988776 21.0745 0.102169C21.5105 0.103213 21.9512 0.104268 22.3981 0.104399C22.5837 2.21597 23.4394 4.02229 25.3163 5.04891L25.317 5.04927C26.3963 5.62896 27.6015 5.94082 28.8292 5.9582H28.8306C30.3025 5.9582 31.4934 5.47772 32.4527 4.4909C33.3966 3.5199 34.11 2.0651 34.655 0.11543H34.6653H34.6761H34.6869H34.6977H34.7084H34.7192H34.73H34.7408H34.7516H34.7625H34.7733H34.7841H34.7949H34.8057H34.8165H34.8273H34.8381H34.8489H34.8597H34.8705H34.8813H34.8921H34.903H34.9138H34.9246H34.9354H34.9462H34.957H34.9678H34.9787H34.9895H35.0003H35.0111H35.0219H35.0328H35.0436H35.0544H35.0652H35.0761H35.0869H35.0977H35.1085H35.1194H35.1302H35.141H35.1519H35.1627H35.1735H35.1844H35.1952H35.206H35.2169H35.2277H35.2385H35.2494H35.2602H35.2711H35.2819H35.2927H35.3036H35.3144H35.3253H35.3361H35.347H35.3578H35.3687H35.3795H35.3903H35.4012H35.412H35.4229H35.4337H35.4446H35.4554H35.4663H35.4772H35.488H35.4989H35.5097H35.5206H35.5314H35.5423H35.5532H35.564H35.5749H35.5857H35.5966H35.6075H35.6183H35.6292H35.64H35.6509H35.6618H35.6726H35.6835H35.6944H35.7052H35.7161H35.727H35.7379H35.7487H35.7596H35.7705H35.7813H35.7922H35.8031H35.814H35.8248H35.8357H35.8466H35.8575H35.8684H35.8792H35.8901H35.901H35.9119H35.9228H35.9336H35.9445H35.9554H35.9663H35.9772H35.9881H35.999H36.0098H36.0207H36.0316H36.0425H36.0534H36.0643H36.0752H36.0861H36.097H36.1079H36.1187H36.1296H36.1405H36.1514H36.1623H36.1732H36.1841H36.195H36.2059H36.2168H36.2277H36.2386H36.2495H36.2604H36.2713H36.2822H36.2931H36.304H36.3149H36.3258H36.3368H36.3477H36.3586H36.3695H36.3804H36.3913H36.4022H36.4131H36.424H36.4349H36.4458H36.4567H36.4677H36.4786H36.4895H36.5004H36.5113H36.5222H36.5332H36.5441H36.555H36.5659H36.5768H36.5877H36.5987H36.6096H36.6205H36.6314H36.6423H36.6533H36.6642H36.6751H36.686H36.697H36.7079H36.7188H36.7297H36.7407H36.7516H36.7625H36.7734H36.7844H36.7953H36.8062H36.8172H36.8281H36.839H36.85H36.8609H36.8718H36.8828H36.8937H36.9046H36.9156H36.9265H36.9374H36.9484H36.9593H36.9702H36.9812H36.9921H37.0031H37.014H37.0249H37.0359H37.0468H37.0578H37.0687H37.0796H37.0906H37.1015H37.1125H37.1234H37.1344H37.1453H37.1562H37.1672H37.1781H37.1891H37.2H37.211H37.2219H37.2329H37.2438H37.2548H37.2657H37.2767H37.2876H37.2986H37.3095H37.3205H37.3314H37.3424H37.3533H37.3643H37.3753H37.3862H37.3972H37.4081H37.4191H37.43H37.441H37.4519H37.4629H37.4739H37.4848H37.4958H37.5067H37.5177H37.5287H37.5396H37.5506H37.5615H37.5725H37.5835H37.5944H37.6054H37.6164H37.6273H37.6383H37.6493H37.6602H37.6712H37.6821H37.6931H37.7041H37.715H37.726H37.737H37.748H37.7589H37.7699H37.7809H37.7918H37.8028H37.8138H37.8247H37.8357H37.8467H37.8577H37.8686H37.8796H37.8906H37.9015H37.9125H37.9235H37.9345H37.9454H37.9564H37.9674H37.9784H37.9893H38.0003H38.0113H38.0223H38.0333H38.0442H38.0552H38.0662H38.0772H38.0881H38.0991H38.1101H38.1211H38.1321H38.143H38.154H38.165H38.176H38.187H38.1979H38.2089H38.2199H38.2309H38.2419H38.2529H38.2639H38.2748H38.2858H38.2968H38.3078H38.3188H38.3298H38.3407H38.3517H38.3627H38.3737H38.3847H38.3957H38.4067H38.4177H38.4286H38.4396H38.4506H38.4616H38.4726H38.4836H38.4946H38.5056H38.5166H38.5275H38.5385H38.5495H38.5605H38.5715H38.5825H38.5935H38.6045H38.6155H38.6265H38.6375H38.6485H38.6595H38.6704H38.6814H38.6924H38.7034H38.7144H38.7254H38.7364H38.7474H38.7584H38.7694H38.7804H38.7914H38.8024H38.8134H38.8244H38.8354H38.8464H38.8574H38.8684H38.8794H38.8904H38.9014H38.9124H38.9234H38.9344H38.9454H38.9564H38.9674H38.9784H38.9894H39.0004H39.0114H39.0224H39.0334H39.0444H39.0554H39.0664H39.0774H39.0884H39.0994H39.1104H39.1214H39.1324H39.1434H39.1544H39.1654H39.1764H39.1874H39.1984H39.2094H39.2204H39.2314H39.2424H39.2534H39.2644H39.2754H39.2864H39.2974H39.3084H39.3194H39.3304H39.3414H39.3524H39.3634H39.3745H39.3855H39.3965H39.4075H39.4185H39.4295H39.4405H39.4515H39.4625H39.4735H39.4845H39.4955H39.5065H39.5175H39.5285H39.5395H39.5506H39.5616H39.5726H39.5836H39.5946H39.6056H39.6166H39.6276H39.6386H39.6496H39.6606H39.6716H39.6826H39.6936H39.7047H39.7157H39.7267H39.7377H39.7487H39.7597H39.7707H39.7817H39.7927H39.8037H39.8147H39.8258H39.8368H39.8478H39.8588H39.8698H39.8808H39.8918H39.9028H39.9138H39.9248H39.9358H39.9469H39.9579H39.9689H39.9799H39.9909H40.0019H40.0129H40.0239H40.0349H40.0459H40.0569H40.068H40.079H40.09H40.101H40.112H40.123H40.134H40.145H40.156H40.167H40.1718C40.3376 0.136588 40.4961 0.195743 40.6346 0.288159L40.6345 0.288388L40.6409 0.292036C44.7305 2.60242 48.8175 4.91532 52.9513 7.25466C54.2547 7.99228 55.5628 8.73253 56.877 9.47616C55.339 13.6914 53.8005 17.8841 52.1996 22.2195L45.209 19.9743L45.0784 19.9323V20.0695V46.9066H11.9751V20.0364ZM42.7606 16.8819V16.7768L42.8606 16.8094V16.9146L42.7606 16.8819Z" fill="white" stroke="#585D70" stroke-width="0.2"/>
</g>
<defs>
<clipPath id="clip0_170_461">
<rect width="57" height="47" fill="white"/>
</clipPath>
</defs>
</svg>
