<svg width="82" height="32" viewBox="0 0 82 32" fill="none" xmlns="http://www.w3.org/2000/svg">
<g clip-path="url(#clip0_801_279)">
<path d="M2.41577 26.4519C2.82297 26.4519 3.2823 26.4519 3.80353 26.4519H3.86216C4.91438 26.4519 5.73531 26.6927 6.34449 27.8642C7.76482 30.591 10.0419 31.9805 13.1236 32H13.1823C16.1956 32 18.4531 30.6105 19.8963 27.8739C20.5152 26.6927 21.3134 26.4519 22.3167 26.4519H22.3525C24.8609 26.4519 27.5648 26.4714 31.0765 26.4714H47.2377C49.8438 26.4714 53.2806 26.4714 56.7044 26.5202C57.4667 26.5202 58.571 27.0311 58.9848 27.7633C60.6462 30.6105 62.9232 31.9935 65.9431 31.9935H65.9659C69.0346 31.9935 71.2791 30.6008 72.8265 27.7307C73.118 27.1976 73.5754 26.7738 74.1295 26.5235C74.9212 26.1981 75.7356 25.8922 76.5239 25.6026C77.1331 25.3781 77.7651 25.147 78.371 24.903C81.0944 23.8096 81.9739 22.5113 82 19.5566C82 17.5326 82 15.4729 82 13.4781C82 12.6354 82 11.7893 82 10.9433C82 9.72626 82 8.92252 81.7882 8.66545C81.5765 8.40838 80.811 8.31402 79.6056 8.14806C79.4134 8.11878 79.2245 8.096 79.0323 8.07323C78.5208 8.00814 77.9931 7.93981 77.4653 7.82592C76.7421 7.66972 75.9929 7.55258 75.2665 7.44195C73.3607 7.14908 71.3931 6.84645 69.4972 5.77914C62.6007 1.87432 55.1929 0 46.85 0C44.0968 0.00895075 41.3473 0.206829 38.6212 0.592233C32.9203 1.38947 27.3335 3.42323 20.5055 7.19464C19.1485 7.90325 17.663 8.33258 16.137 8.4572C11.1169 8.92252 6.7289 10.2892 2.72851 12.6288C0.816272 13.7482 -0.0763374 15.3069 0.00510369 17.3895C0.0441954 18.447 0.0344217 19.5143 0.0246488 20.5459C0.0246488 21.2227 0.0246488 21.9256 0.0246488 22.6122C0.0246488 23.2988 0.0246488 23.8747 0.0246488 24.3824C0.0246488 25.287 -0.00140444 26.1395 0.154962 26.299C0.311329 26.4584 1.22348 26.4584 1.56553 26.4584L2.41577 26.4519ZM13.166 30.5878H13.1041C11.4609 30.5486 9.89648 29.8767 8.73759 28.7124C7.57871 27.5481 6.91503 25.9816 6.88525 24.3401C6.88901 23.5272 7.05425 22.7231 7.37137 21.9745C7.68848 21.2259 8.15118 20.5475 8.73264 19.9788C9.31411 19.4101 10.0028 18.9623 10.7588 18.6614C11.5147 18.3605 12.323 18.2124 13.1367 18.2258H13.2246C14.0316 18.2219 14.831 18.3803 15.5754 18.6916C16.3197 19.0028 16.9937 19.4605 17.5573 20.0374C18.1209 20.6143 18.5624 21.2986 18.8557 22.0495C19.149 22.8005 19.2879 23.6027 19.2643 24.4084C19.2553 26.0277 18.614 27.5796 17.4769 28.7337C16.3397 29.8878 14.7965 30.553 13.1758 30.5878H13.166ZM70.2562 28.785C69.6946 29.3557 69.0248 29.8091 68.286 30.1186C67.5471 30.4281 66.754 30.5876 65.9528 30.5878H65.9105C64.2916 30.5425 62.7507 29.8832 61.6011 28.7438C60.4514 27.6045 59.7791 26.0706 59.721 24.4539C59.7078 23.6476 59.8567 22.8468 60.1589 22.0989C60.461 21.3511 60.9103 20.6714 61.4801 20.1001C62.0611 19.5048 62.7557 19.0319 63.5228 18.7094C64.29 18.3869 65.114 18.2213 65.9463 18.2225C66.7507 18.2139 67.5487 18.3647 68.2943 18.6661C69.04 18.9675 69.7184 19.4136 70.2903 19.9785C70.8622 20.5435 71.3164 21.2161 71.6265 21.9575C71.9365 22.6988 72.0964 23.4943 72.0968 24.2977C72.1052 25.1297 71.9477 25.9549 71.6333 26.7254C71.319 27.4958 70.8542 28.196 70.266 28.785H70.2562ZM46.0063 7.70226V1.51963H46.6578H47.0748C52.7624 1.47727 58.4043 2.53589 63.6888 4.63697L64.425 4.92984L63.995 5.58065C62.7343 7.53306 61.2456 8.38885 59.1607 8.38885H58.8121C57.3624 8.32703 55.7923 8.2945 53.867 8.2945C52.691 8.2945 51.4857 8.2945 50.3227 8.31728C49.1597 8.34005 47.8957 8.35307 46.6578 8.35307H46.0063V7.70226ZM45.8695 13.2146V9.83039H52.8148C53.2969 9.83039 53.7921 9.83039 54.2709 9.80111C54.7498 9.77182 55.2678 9.76857 55.7662 9.76857C56.3823 9.76345 56.9981 9.79714 57.61 9.86944C58.1084 9.92995 58.6098 9.96146 59.1118 9.96381C61.7179 9.96381 63.6073 9.00387 65.0798 6.94082C65.4512 6.41693 66.3372 6.22169 66.8063 6.22169C67.0692 6.21135 67.3288 6.28299 67.5491 6.42668C70.3735 8.47021 73.6181 8.85744 77.0549 9.26744C77.5989 9.33252 78.143 9.3976 78.6837 9.46919C79.2245 9.54078 79.8956 9.69372 80.2474 10.2371C80.5992 10.7806 80.4657 11.4639 80.306 11.9878L80.1659 12.4499H76.4066V13.95H80.4298V14.6008C80.4298 15.2125 80.4298 15.8275 80.4526 16.4198C80.5093 17.9151 80.4756 19.4125 80.3517 20.9038C80.2409 21.9321 79.0877 22.8562 78.4264 23.2369C77.591 23.6867 76.7192 24.0654 75.8203 24.3693C75.4326 24.5125 75.0319 24.6589 74.628 24.8216L73.8331 25.147L73.7386 24.2945C73.3966 21.2357 72.2597 19.2117 70.2627 18.1119C68.8011 17.2855 67.1593 16.8287 65.4805 16.781H65.3893C61.643 16.8298 58.9424 19.6901 58.1606 24.4312L58.0726 24.9778H46.0682L46.0063 24.3954C46.0063 24.2522 45.9705 24.1155 45.9542 23.9854C45.9124 23.7073 45.8885 23.4269 45.8825 23.1458C45.876 19.8528 45.876 16.576 45.876 13.2081L45.8695 13.2146ZM24.6948 7.03194C30.3924 3.70633 36.5657 1.9394 43.5663 1.63027L44.2472 1.60098V8.22291H22.6164L24.6948 7.03194ZM1.34075 22.1892C1.24875 20.4407 1.29668 18.6877 1.48409 16.9469C1.65348 15.6779 2.8588 14.3437 3.95663 13.6929C7.721 11.3767 12.0302 10.0927 16.4497 9.97031C19.7627 9.90198 23.3494 9.86944 27.7407 9.86944C30.3468 9.86944 33.0344 9.86944 35.6209 9.89222C38.2075 9.915 40.9374 9.91174 43.6152 9.91174H44.2667V24.9486H21.3329L21.1733 24.5255C21.0039 24.0667 20.8475 23.6046 20.6977 23.1556C20.4218 22.2043 20.061 21.2797 19.6194 20.3929C18.4108 18.19 15.7461 16.6476 13.1334 16.6476C12.8062 16.6469 12.4794 16.6719 12.1561 16.7224C8.92781 17.2235 6.22396 19.6868 5.57895 22.713C5.27924 24.135 5.07726 25.0722 3.67321 25.0722C3.08841 25.0459 2.50611 24.9796 1.93038 24.8737L1.37658 24.7891V24.2294C1.39287 23.5493 1.37658 22.8497 1.35703 22.1696L1.34075 22.1892Z" fill="white" stroke="white" stroke-width="0.3"/>
</g>
<defs>
<clipPath id="clip0_801_279">
<rect width="82" height="32" fill="white"/>
</clipPath>
</defs>
</svg>
