<svg width="50" height="50" viewBox="0 0 50 50" fill="none" xmlns="http://www.w3.org/2000/svg">
<g clip-path="url(#clip0_801_281)">
<path d="M28.3389 32.6657C24.9091 33.9414 21.9188 33.3397 19.2136 31.0071C16.2291 33.3514 13.2583 35.6743 10.3226 38.04C10.1273 38.1944 10.0902 38.7199 10.1781 39.0168C11.1234 42.1641 9.22494 45.2331 5.967 45.7704C3.23251 46.2236 0.609358 44.313 0.0761341 41.4725C-0.410213 38.8684 1.50783 36.0826 4.12707 35.557C4.79534 35.4064 5.48758 35.3962 6.16 35.527C6.83242 35.6578 7.47037 35.9268 8.03347 36.317C8.51982 36.6491 8.79327 36.5729 9.20539 36.2427C11.88 34.1186 14.5669 32.0113 17.2663 29.921C17.7448 29.5498 17.9049 29.2587 17.5924 28.6453C17.0307 27.5946 16.7217 26.4275 16.6898 25.2365C16.658 24.0455 16.9041 22.8635 17.4088 21.7843C17.6374 21.2724 17.5612 21.0028 17.1217 20.6532C15.065 19.0082 13.0337 17.3321 11.016 15.6325C10.5394 15.232 10.2152 15.2163 9.68392 15.5973C7.64282 17.0547 4.83803 17.0117 2.73248 15.5699C1.71805 14.8762 0.932891 13.8962 0.476908 12.7548C0.0209246 11.6134 -0.0852626 10.3622 0.171839 9.16023C0.726548 6.62057 2.711 4.68653 5.14859 4.27627C7.66041 3.86211 9.73471 4.66699 11.2543 6.66941C12.729 8.60932 12.9262 10.7719 11.9164 13.0146C11.8644 13.1319 11.8155 13.251 11.7699 13.3722C11.7666 13.4378 11.7725 13.5035 11.7875 13.5675L18.8601 19.3755C21.5731 16.746 24.6982 15.99 28.3429 17.3301L33.0032 9.1446C30.8176 6.43302 30.716 3.82304 32.6848 1.65261C33.5195 0.759827 34.642 0.189643 35.8551 0.0421561C37.0683 -0.10533 38.2946 0.179306 39.3188 0.846095C40.3431 1.51288 41.0997 2.51921 41.456 3.68843C41.8123 4.85765 41.7455 6.11503 41.2672 7.23985C40.2242 9.69355 37.7612 10.8423 34.8412 10.1448L30.2238 18.2444C31.0168 19.3403 31.8899 20.282 32.4446 21.3857C32.9993 22.4895 33.1985 23.7047 33.5833 24.9628L41.8239 25.9259C42.4567 24.4236 43.4274 23.3217 45.0955 23.015C46.1105 22.826 47.1596 23.0223 48.0377 23.5656C48.9158 24.109 49.5597 24.9603 49.8436 25.9532C50.1276 26.9461 50.0311 28.0093 49.5731 28.9348C49.1152 29.8604 48.3285 30.5819 47.367 30.9583C45.3631 31.7397 43.07 30.8997 42.1852 28.9285C41.8317 28.1471 41.4039 27.9185 40.5914 27.8834C39.3609 27.8287 38.1382 27.6118 36.9116 27.4653L33.4134 27.0511L30.2882 31.8472C32.0324 34.9065 33.8997 38.2159 35.8236 41.4901C35.9525 41.7108 36.5307 41.7831 36.8764 41.7401C38.5464 41.5331 39.9039 42.0664 40.8824 43.4144C41.861 44.7623 41.9469 46.2549 41.2105 47.7415C40.9647 48.2294 40.6242 48.6633 40.2089 49.0182C39.7936 49.373 39.3118 49.6415 38.7916 49.8081C38.2714 49.9746 37.7233 50.0359 37.1792 49.9884C36.635 49.9408 36.1058 49.7853 35.6224 49.531C33.5931 48.4839 32.7473 45.9306 33.8782 43.9438C34.2454 43.2952 34.1908 42.8771 33.845 42.2813C31.9914 39.1126 30.1906 35.9165 28.3389 32.6657ZM24.9775 31.2533C26.2126 31.2606 27.4221 30.9017 28.4534 30.222C29.4847 29.5423 30.2916 28.5722 30.7721 27.4342C31.2526 26.2962 31.3853 25.0413 31.1533 23.828C30.9214 22.6146 30.3352 21.4972 29.4689 20.6168C28.6025 19.7364 27.4948 19.1324 26.2855 18.8811C25.0763 18.6299 23.8197 18.7426 22.6744 19.2051C21.5291 19.6675 20.5465 20.459 19.8506 21.4796C19.1547 22.5001 18.7767 23.7041 18.7644 24.9393C18.758 26.5986 19.4075 28.1932 20.5712 29.3758C21.7349 30.5584 23.3186 31.2332 24.9775 31.2533ZM10.3929 10.3949C10.3813 9.57952 10.1287 8.78582 9.66678 8.11385C9.20488 7.44188 8.55442 6.92172 7.79741 6.61894C7.04039 6.31616 6.21069 6.24432 5.41291 6.41246C4.61513 6.58059 3.88498 6.98119 3.31449 7.56376C2.74399 8.14632 2.35868 8.88477 2.20715 9.68602C2.05563 10.4873 2.14466 11.3155 2.46301 12.0662C2.78136 12.8169 3.31479 13.4566 3.99606 13.9045C4.67732 14.3525 5.47593 14.5887 6.29121 14.5834C6.83576 14.578 7.37395 14.4654 7.87499 14.252C8.37604 14.0386 8.83013 13.7286 9.21138 13.3397C9.59263 12.9507 9.89355 12.4905 10.0969 11.9852C10.3004 11.4799 10.4023 10.9396 10.3968 10.3949H10.3929ZM33.388 5.15147C33.3715 5.97097 33.6776 6.76415 34.2402 7.36013C34.8028 7.95611 35.577 8.30719 36.3959 8.33777C38.0874 8.38465 39.5992 6.91165 39.6031 5.21204C39.599 4.40922 39.2843 3.63917 38.725 3.06335C38.1656 2.48753 37.4052 2.15068 36.603 2.12342C34.7904 2.07654 33.4212 3.3659 33.3919 5.15147H33.388ZM2.13677 40.6207C2.13355 41.4386 2.45213 42.2249 3.02372 42.8097C3.59531 43.3946 4.374 43.7311 5.19156 43.7465C5.60195 43.7476 6.00858 43.6679 6.38818 43.5119C6.76778 43.3559 7.11292 43.1266 7.40393 42.8372C7.69494 42.5477 7.92612 42.2038 8.08424 41.825C8.24235 41.4462 8.32432 41.04 8.32548 40.6295C8.32663 40.219 8.24694 39.8124 8.09096 39.4327C7.93497 39.053 7.70575 38.7078 7.41638 38.4167C7.127 38.1257 6.78313 37.8944 6.40442 37.7363C6.0257 37.5781 5.61955 37.4961 5.20915 37.495C4.38872 37.5053 3.60563 37.8397 3.03078 38.4253C2.45593 39.0109 2.13595 39.8001 2.14066 40.6207H2.13677ZM47.8944 27.0941C47.8986 26.8188 47.8476 26.5454 47.7443 26.2901C47.641 26.0349 47.4875 25.803 47.293 25.6081C47.0985 25.4132 46.8669 25.2593 46.6119 25.1555C46.3569 25.0517 46.0837 25.0001 45.8084 25.0038C45.2691 25.0259 44.7583 25.252 44.3794 25.6365C44.0005 26.0209 43.7817 26.5349 43.7673 27.0746C43.7674 27.3501 43.8229 27.6227 43.9303 27.8764C44.0378 28.13 44.1952 28.3595 44.393 28.5512C44.5908 28.7429 44.8252 28.8929 45.082 28.9922C45.3389 29.0916 45.6132 29.1384 45.8885 29.1298C46.156 29.1349 46.4218 29.0856 46.6696 28.9848C46.9175 28.884 47.1423 28.7338 47.3303 28.5434C47.5183 28.353 47.6656 28.1263 47.7632 27.8772C47.8609 27.628 47.9068 27.3616 47.8983 27.0941H47.8944ZM37.4897 47.8841C37.7651 47.8891 38.0387 47.8392 38.2946 47.7374C38.5505 47.6357 38.7837 47.484 38.9805 47.2914C39.1773 47.0987 39.3339 46.8688 39.4411 46.6151C39.5483 46.3613 39.604 46.0888 39.605 45.8134C39.5991 45.2595 39.3734 44.7307 38.9776 44.3432C38.5818 43.9558 38.0483 43.7415 37.4946 43.7474C36.9408 43.7534 36.4121 43.9791 36.0247 44.375C35.6374 44.7709 35.4231 45.3044 35.4291 45.8583C35.4413 46.3985 35.6639 46.9126 36.0496 47.291C36.4352 47.6694 36.9534 47.8823 37.4936 47.8841H37.4897Z" fill="white"/>
</g>
<defs>
<clipPath id="clip0_801_281">
<rect width="50" height="50" fill="white"/>
</clipPath>
</defs>
</svg>
