<svg width="267" height="446" viewBox="0 0 267 446" fill="none" xmlns="http://www.w3.org/2000/svg">
<path d="M133.698 100.404L131.038 112.456C127.817 127.256 124.843 142.102 122.115 156.995C119.815 169.54 117.661 182.108 115.654 194.7C113.653 207.058 111.812 219.433 110.132 231.825C108.842 241.224 107.691 250.643 106.551 260.061C105.444 269.24 104.387 278.423 103.38 287.609C102.59 294.902 101.93 302.215 101.25 309.559C100.503 317.654 99.776 325.749 99.0691 333.844C98.6957 338.054 98.3623 342.268 98.0689 346.485C97.3887 356.193 96.6785 365.891 96.0683 375.599C95.2581 389.048 94.4979 402.538 93.9478 415.977C93.6477 423.38 93.2276 430.793 93.0375 438.207C93.0375 440.202 92.8475 442.197 92.7475 444.193C92.6475 445.999 92.6475 446.009 90.797 445.999L68.9612 445.849C62.2394 445.849 55.5277 445.849 48.8059 445.67C33.6919 445.31 18.5779 445.43 3.46396 445.231C-0.0869742 445.231 -0.146974 445.171 0.0730837 441.739C0.593221 433.467 1.19337 425.196 1.75352 416.925C2.13362 411.278 2.47369 405.621 2.8638 399.963C3.45395 391.373 4.07413 382.792 4.66429 374.202C5.20443 366.479 5.66454 358.767 6.2747 351.055C6.97488 341.586 7.74511 332.098 8.4853 322.679C9.01544 316.004 9.48554 309.319 10.0857 302.644C10.7959 294.234 11.5561 285.813 12.3163 277.402C12.8464 271.415 13.3766 265.489 13.9467 259.532C14.6136 252.315 15.3438 245.098 16.1373 237.882C16.8042 231.39 17.5043 224.891 18.2379 218.386C19.0781 210.863 19.9083 203.34 20.8285 195.817C21.8288 187.745 22.8891 179.694 23.9694 171.632C25.1197 163.022 26.24 154.401 27.5203 145.811C29.1307 135.095 30.8812 124.399 32.5916 113.694C35.0523 98.2686 37.893 82.9035 40.9138 67.5783C45.1416 46.0738 49.9195 24.6857 55.2476 3.41404C56.2479 -0.487095 55.3376 0.0217857 59.5587 0.0217857H208.598C211.819 0.0217857 211.849 0.0217858 212.529 3.01499C217.63 25.1547 222.382 47.3643 226.643 69.6736C229.844 86.4355 232.814 103.231 235.555 120.059C238.256 136.741 240.746 153.453 243.027 170.195C244.868 183.854 246.688 197.523 248.238 211.232C249.789 224.941 251.399 238.789 252.84 252.578C253.98 263.443 254.84 274.329 255.93 285.194C257.021 296.628 257.931 308.072 258.841 319.516C259.901 332.467 260.862 345.437 261.722 358.428C262.492 370.291 263.332 382.134 264.073 393.987C264.773 405.052 265.393 416.117 266.073 427.182C266.383 432.519 266.703 437.847 266.973 443.145C267.073 445.011 266.973 445.021 265.213 445.071C264.813 445.071 264.413 445.071 264.013 445.071H178.05C174.649 445.071 175.219 445.181 175.049 442.297C174.549 430.743 174.149 419.19 173.569 407.636C172.939 395.294 172.168 382.962 171.418 370.63C170.908 362.109 170.418 353.589 169.768 345.088C168.958 334.352 168.037 323.627 167.117 312.911C166.457 305.278 165.787 297.656 165.007 290.043C164.006 280.535 162.956 271.026 161.856 261.528C160.909 253.373 159.908 245.225 158.855 237.083C157.735 228.543 156.594 220.012 155.284 211.501C153.503 199.848 151.63 188.208 149.662 176.581C146.782 159.686 143.534 142.864 139.92 126.115C138.269 118.393 136.509 110.7 134.789 103.008C134.598 102.15 134.368 101.322 134.148 100.474L133.698 100.404Z" fill="#0083BF" fill-opacity="0.27"/>
</svg>
